<?xml version="1.0" encoding="utf-8"?>
<!-- Generator: Adobe Illustrator 28.7.1, SVG Export Plug-In . SVG Version: 9.03 Build 54978)  -->
<svg version="1.1" id="Capa_1" xmlns="http://www.w3.org/2000/svg" xmlns:xlink="http://www.w3.org/1999/xlink" x="0px" y="0px"
	 viewBox="150 35 190 65" style="enable-background:new 150 35 190 65;" xml:space="preserve">
<style type="text/css">
	.st0{fill:#006640;}
	.st1{fill:#FFFFFF;}
	.st2{fill:#FFED00;}
	.st3{fill:#004F9F;}
</style>
<g>
	<g>
		<circle class="st0" cx="69.5" cy="67.5" r="59.9"/>
		<g>
			<g>
				<path class="st1" d="M30.3,65.1v-0.6h1.9v-13h-2v-0.6h14.2l0.2,4.2h-0.7c-1-2.8-2.2-3.6-4.6-3.6h-2.7v5.9c2.5,0,3-0.6,3.6-2.6
					h0.8v6.1h-0.8c-0.4-2-1-2.7-3.6-2.7v6.3h2.4v0.6L30.3,65.1L30.3,65.1z"/>
				<path class="st1" d="M45.1,65.1v-0.6h2v-13h-2v-0.6h10.1c2.6,0,5.2,1,5.2,3.4c0,2.5-3.6,3-5.7,3.2l0,0c3.6,0.6,5,1.8,5,3.8
					c0,2,0.1,2.5,0.5,2.9c0.2,0.2,0.7,0.3,2,0.1l0.2,0.5c-0.8,0.4-2.1,0.7-3,0.7c-3.1,0-4.2-1.2-4.2-4.4c0-2.5-0.6-3.1-2.6-3.1h-1.1
					v6.6h2.1v0.6L45.1,65.1L45.1,65.1z M51.4,57.2h1.1c2.6,0,3.3-0.4,3.3-1.9v-2.1c0-1,0.4-1.7-2.6-1.7h-1.8V57.2L51.4,57.2
					L51.4,57.2z"/>
				<path class="st1" d="M62.6,65.1v-0.6h2v-13h-1.8v-0.6h14l0.2,3.8h-0.9c-1.1-2.4-2.2-3.2-4.8-3.2h-2.4v5.9c2.5,0,3-0.6,3.6-2.6
					h0.8v6.1h-0.8c-0.4-2-1-2.7-3.6-2.7v6.3h2.5c3.9,0,4.7-1.5,5.4-4h0.8l-0.2,4.6L62.6,65.1L62.6,65.1L62.6,65.1z"/>
				<path class="st1" d="M88.7,50.9h0.8v3.8h-0.8c-0.4-1.7-2.2-3.4-4.4-3.4c-2.2,0-3.4,0.7-3.4,2.1s1.1,1.6,2.3,1.8
					c1.3,0.2,3.4,0.7,4.6,1.1c1.5,0.5,2.8,1.7,2.8,4.2s-1.8,5.1-6,5.1c-4.2,0-2.4-0.3-3.5-1l-1.3,0.8h-0.9V61h0.9
					c0.7,2,2.4,3.7,4.9,3.7s4.1-1.5,4.1-2.9c0-1.4-2.5-2-4.9-2.5c-2.5-0.5-4.9-1.4-4.9-4.6c0-3.2,2.4-4.3,5.4-4.3s2.4,0.4,3.4,1
					L88.7,50.9L88.7,50.9z"/>
				<polygon class="st1" points="90.6,65.1 90.6,64.5 92.5,64.5 92.5,51.5 90.6,51.5 90.6,50.9 98.9,50.9 98.9,51.5 96.8,51.5 
					96.8,57.5 102.4,57.5 102.4,51.5 100.3,51.5 100.3,50.9 108.8,50.9 108.8,51.5 106.7,51.5 106.7,64.5 108.8,64.5 108.8,65.1 
					100.3,65.1 100.3,64.5 102.4,64.5 102.4,58.1 96.8,58.1 96.8,64.5 98.9,64.5 98.9,65.1 				"/>
				<path class="st1" d="M35.5,83.5h2.1v0.6h-8.5v-0.6h2.3V70.7h0l-5,13.5h-0.9l-4.9-13.5h0v11.6c0,1.4,0.9,1.3,2.4,1.3v0.6h-5.4
					v-0.6c1.4,0,2.3,0.1,2.3-1.3V70.6h-2.3v-0.6h7.2l2.9,8.6l3.1-8.6h6.9v0.6h-2.1L35.5,83.5L35.5,83.5L35.5,83.5z"/>
				<path class="st1" d="M37.2,84.1v-0.6c0.6,0,1.7,0,2-0.6l6-13.3h1l6.4,13.9h1.5v0.6h-8.1v-0.6h2l-1.4-3.3h-5.2l-0.7,1.5
					c-0.3,0.6-0.5,1.2-0.5,1.5c0,0.5,2,0.4,2.3,0.4v0.6L37.2,84.1L37.2,84.1z M41.7,79.5h4.6l-2.3-5.2L41.7,79.5z"/>
				<path class="st1" d="M54.1,84.1v-0.6h2v-13h-2v-0.6h10.1c2.6,0,5.2,1,5.2,3.4s-3.6,3-5.7,3.2l0,0c3.6,0.6,5,1.8,5,3.8
					s0.1,2.5,0.5,2.9c0.2,0.2,0.7,0.3,2,0.1l0.2,0.5c-0.8,0.4-2.1,0.7-3,0.7c-3.1,0-4.2-1.2-4.2-4.4c0-2.5-0.6-3.1-2.6-3.1h-1.1v6.6
					h2.1v0.6L54.1,84.1L54.1,84.1z M60.4,76.2h1.1c2.6,0,3.3-0.4,3.3-1.9v-2.1c0-1,0.4-1.7-2.6-1.7h-1.8V76.2L60.4,76.2L60.4,76.2z"
					/>
				<path class="st1" d="M71.6,84.1v-0.6h2v-13h-1.9v-0.6H80v0.6h-2.2v13H80v0.6H71.6L71.6,84.1z M82.3,69.9h6.2v0.6h-1.9
					c-0.4,0-0.6,0.1-0.8,0.3l-4.4,3.9l7.1,8.8h1.8v0.6h-9v-0.6h2.1l-4.9-6c-0.2-0.2-0.4-0.6-0.4-0.8c0-0.2,0.5-0.6,0.7-0.9l5.2-4.5
					c0.3-0.2,0.4-0.4,0.4-0.5c0-0.2-0.5-0.3-1-0.3h-1.2L82.3,69.9L82.3,69.9L82.3,69.9z"/>
				<path class="st1" d="M90,84.1v-0.6h2v-13h-1.8v-0.6h14l0.2,3.8h-0.9c-1.1-2.4-2.2-3.2-4.8-3.2h-2.4v5.9c2.5,0,3-0.6,3.6-2.6h0.8
					V80h-0.8c-0.4-2-1-2.7-3.6-2.7v6.3h2.5c3.9,0,4.7-1.5,5.4-4h0.8l-0.2,4.6L90,84.1L90,84.1z"/>
				<path class="st1" d="M105.8,69.9h15.5l0.2,4.6h-0.7c-0.8-2.6-1.7-4.2-5.2-4v13h2.1v0.6h-8.5v-0.6h2.1v-13
					c-3.5-0.2-4.4,1.4-5.2,4h-0.7L105.8,69.9L105.8,69.9z"/>
			</g>
		</g>
	</g>
</g>
<g>
	<g>
		<g>
			<g>
				<g>
					<g>
						<circle class="st2" cx="167.9" cy="64.2" r="5"/>
						<circle class="st2" cx="168" cy="64.2" r="5"/>
						<path class="st3" d="M247.8,72.5l-0.1-0.5c-1.1-7.7-7.7-13.5-15.5-13.5c-8.6,0-15.6,7-15.6,15.6s7,15.6,15.6,15.6
							c7.3,0,13.6-5,15.2-12.1l-7.7,2.3c-1.8,2.3-4.5,3.7-7.5,3.7c-3.2,0-6.2-1.7-8-4.4l17.5-5.1v0L247.8,72.5z M222.8,73.5
							c0.4-4.9,4.5-8.7,9.5-8.7c3,0,5.8,1.4,7.6,3.8L222.8,73.5z M273.4,58.6l-10.2,18.3L253,58.6h-6.9l17,32l17.1-32H273.4z
							 M188.1,38.4h-20.7v6.1h20.7c10.8,0,19.6,8.8,19.6,19.6s-8.8,19.6-19.6,19.6h-20.7v6.1h20.7c14.2,0,25.7-11.5,25.7-25.7
							S202.3,38.4,188.1,38.4z M293.9,58.6c-8.6,0-15.6,7-15.6,15.6c0,8.6,7,15.6,15.6,15.6c8.6,0,15.6-7,15.6-15.6
							C309.6,65.6,302.6,58.6,293.9,58.6z M293.9,83.7c-5.2,0-9.5-4.3-9.5-9.5c0-5.2,4.3-9.5,9.5-9.5c5.2,0,9.5,4.3,9.5,9.5
							C303.4,79.5,299.2,83.7,293.9,83.7z"/>
						<path class="st3" d="M332.1,59.1l1.1-0.9h-12.4V43.5h-6v14.7h-3.7v6h3.7v9.7l0,0.1l0,0c0.2,6.3,4.4,11.8,10.3,13.8l0.9,0.3
							l-0.2-0.9c-0.2-1.3-0.4-2.7-0.4-4c0-0.4,0-0.9,0-1.4l0-0.3l-0.3-0.2c-2.8-1.7-4.5-4.6-4.5-7.9v-9.2h7.3l0.2-0.3
							C329.3,62,330.6,60.4,332.1,59.1z M344.2,58.1c-8.4,0-15.2,6.8-15.2,15.2c0,8.4,6.8,15.2,15.2,15.2c8.4,0,15.2-6.8,15.2-15.2
							C359.4,65,352.6,58.1,344.2,58.1z M344.2,82.6c-5.1,0-9.2-4.1-9.2-9.2c0-5.1,4.1-9.2,9.2-9.2c5.1,0,9.2,4.1,9.2,9.2
							C353.4,78.4,349.3,82.6,344.2,82.6z"/>
					</g>
				</g>
			</g>
		</g>
	</g>
	<path class="st3" d="M222.1,106.7L222.1,106.7l-3.4-7.5l-2.1,10.3h1.4l1.1-6.1h0l2.8,6.5l2.8-6.5h0l1.1,6.1h1.4l-2-10.3
		L222.1,106.7z M233,106.6c0,0.2,0,0.4-0.1,0.7c0,0.2-0.1,0.4-0.2,0.6c-0.1,0.2-0.2,0.3-0.4,0.4c-0.2,0.1-0.4,0.2-0.7,0.2
		c-0.3,0-0.5-0.1-0.7-0.2c-0.2-0.1-0.3-0.2-0.4-0.4c-0.1-0.2-0.2-0.4-0.2-0.6c0-0.2-0.1-0.4-0.1-0.7v-3.4h-1.4v3.6
		c0,0.9,0.2,1.6,0.7,2.1c0.4,0.5,1.1,0.8,2,0.8c0.9,0,1.6-0.3,2-0.8c0.4-0.5,0.7-1.2,0.7-2.1v-3.6H233V106.6z M239.1,107.4
		L239.1,107.4l-1.8-4.1h-1.6l2.7,5.7l-1.7,3.7h1.5l4.3-9.4h-1.6L239.1,107.4z M255.8,103.8c-0.2-0.2-0.4-0.4-0.6-0.6
		c-0.3-0.1-0.6-0.2-1-0.2c-0.4,0-0.8,0.1-1.1,0.2c-0.3,0.1-0.6,0.4-0.8,0.6c-0.2-0.3-0.4-0.5-0.7-0.7c-0.3-0.1-0.6-0.2-1-0.2
		c-0.3,0-0.6,0.1-0.9,0.2c-0.3,0.2-0.5,0.4-0.7,0.6h-0.1v-0.7h-1.4v6.2h1.4v-3.2c0-0.3,0-0.5,0.1-0.8c0.1-0.2,0.1-0.5,0.3-0.6
		c0.1-0.2,0.2-0.3,0.4-0.4c0.2-0.1,0.3-0.2,0.5-0.2c0.2,0,0.4,0,0.5,0.1c0.1,0.1,0.2,0.2,0.3,0.4c0.1,0.2,0.1,0.3,0.2,0.5
		c0,0.2,0,0.4,0,0.6v3.5h1.4v-3.2c0-0.3,0-0.5,0.1-0.8c0-0.2,0.1-0.5,0.2-0.6c0.1-0.2,0.2-0.3,0.4-0.4c0.2-0.1,0.3-0.2,0.6-0.2
		s0.4,0,0.5,0.1c0.1,0.1,0.2,0.2,0.3,0.4c0.1,0.2,0.1,0.3,0.2,0.5c0,0.2,0,0.4,0,0.6v3.5h1.4v-3.7c0-0.4,0-0.7-0.1-1
		C256.1,104.4,255.9,104.1,255.8,103.8z M262.3,106.6c0,0.2,0,0.4-0.1,0.7c0,0.2-0.1,0.4-0.2,0.6c-0.1,0.2-0.2,0.3-0.4,0.4
		c-0.2,0.1-0.4,0.2-0.7,0.2c-0.3,0-0.5-0.1-0.7-0.2c-0.2-0.1-0.3-0.2-0.4-0.4c-0.1-0.2-0.2-0.4-0.2-0.6s-0.1-0.4-0.1-0.7v-3.4h-1.4
		v3.6c0,0.9,0.2,1.6,0.7,2.1c0.4,0.5,1.1,0.8,2,0.8c0.9,0,1.6-0.3,2-0.8c0.4-0.5,0.7-1.2,0.7-2.1v-3.6h-1.4V106.6z M268.3,107.4
		L268.3,107.4l-1.8-4.1h-1.6l2.7,5.7l-1.7,3.7h1.5l4.3-9.4h-1.6L268.3,107.4z M278.3,104.9c0.2-0.2,0.4-0.3,0.6-0.4
		c0.2-0.1,0.5-0.2,0.8-0.2c0.3,0,0.6,0.1,0.9,0.2c0.3,0.1,0.5,0.3,0.7,0.5l1.1-0.8c-0.3-0.4-0.7-0.7-1.1-0.9
		c-0.4-0.2-0.9-0.3-1.5-0.3c-0.5,0-0.9,0.1-1.3,0.3c-0.4,0.2-0.8,0.4-1,0.7c-0.3,0.3-0.5,0.6-0.7,1.1c-0.2,0.4-0.3,0.8-0.3,1.3
		c0,0.5,0.1,0.9,0.3,1.3c0.2,0.4,0.4,0.7,0.7,1c0.3,0.3,0.6,0.5,1,0.7c0.4,0.2,0.8,0.3,1.3,0.3c0.5,0,1-0.1,1.5-0.3
		c0.4-0.2,0.8-0.5,1.1-0.9l-1.1-0.8c-0.2,0.2-0.4,0.4-0.7,0.5c-0.3,0.1-0.6,0.2-0.9,0.2c-0.3,0-0.5-0.1-0.8-0.2
		c-0.2-0.1-0.5-0.3-0.6-0.4c-0.2-0.2-0.3-0.4-0.4-0.7c-0.1-0.3-0.2-0.5-0.2-0.8c0-0.3,0-0.5,0.2-0.8
		C278,105.3,278.1,105.1,278.3,104.9z M288.8,104c-0.3-0.3-0.6-0.5-1-0.7c-0.4-0.2-0.8-0.3-1.3-0.3c-0.5,0-0.9,0.1-1.3,0.3
		c-0.4,0.2-0.7,0.4-1,0.7c-0.3,0.3-0.5,0.6-0.7,1.1c-0.2,0.4-0.2,0.8-0.2,1.3c0,0.5,0.1,0.9,0.2,1.3c0.2,0.4,0.4,0.8,0.7,1.1
		c0.3,0.3,0.6,0.5,1,0.7c0.4,0.2,0.8,0.3,1.3,0.3c0.6,0,1.2-0.1,1.6-0.4c0.5-0.3,0.9-0.6,1.2-1.1l-1.1-0.7c-0.2,0.3-0.4,0.6-0.7,0.7
		c-0.2,0.2-0.6,0.2-1,0.2c-0.3,0-0.5-0.1-0.8-0.2c-0.2-0.1-0.4-0.2-0.6-0.4c-0.1-0.2-0.3-0.4-0.3-0.6c-0.1-0.2-0.1-0.4-0.2-0.6h5
		v-0.3c0-0.5-0.1-0.9-0.2-1.3C289.3,104.7,289.1,104.3,288.8,104z M284.8,105.6c0.1-0.4,0.3-0.7,0.6-0.9c0.3-0.3,0.6-0.4,1.1-0.4
		c0.5,0,0.8,0.1,1.1,0.4c0.3,0.3,0.5,0.6,0.6,0.9H284.8z M294.1,103.1c-0.1,0-0.3,0.1-0.4,0.2c-0.1,0.1-0.3,0.2-0.4,0.3
		c-0.1,0.1-0.3,0.2-0.3,0.4h-0.1v-0.7h-1.4v6.2h1.4v-3.2c0-0.3,0-0.5,0.1-0.8c0.1-0.2,0.2-0.5,0.3-0.6c0.1-0.2,0.3-0.3,0.5-0.4
		s0.5-0.2,0.7-0.2c0.1,0,0.2,0,0.3,0c0.1,0,0.2,0,0.3,0.1v-1.2c-0.2-0.1-0.4-0.1-0.6-0.1C294.3,103,294.2,103.1,294.1,103.1z
		 M297.8,104.9c0.2-0.2,0.4-0.3,0.6-0.4c0.2-0.1,0.5-0.2,0.8-0.2c0.3,0,0.6,0.1,0.9,0.2c0.3,0.1,0.5,0.3,0.7,0.5l1.1-0.8
		c-0.3-0.4-0.7-0.7-1.1-0.9c-0.4-0.2-0.9-0.3-1.5-0.3c-0.5,0-0.9,0.1-1.3,0.3c-0.4,0.2-0.7,0.4-1,0.7c-0.3,0.3-0.5,0.6-0.7,1.1
		c-0.2,0.4-0.3,0.8-0.3,1.3c0,0.5,0.1,0.9,0.3,1.3c0.2,0.4,0.4,0.7,0.7,1c0.3,0.3,0.6,0.5,1,0.7c0.4,0.2,0.8,0.3,1.3,0.3
		c0.5,0,1-0.1,1.5-0.3c0.4-0.2,0.8-0.5,1.1-0.9l-1.1-0.8c-0.2,0.2-0.4,0.4-0.7,0.5c-0.3,0.1-0.6,0.2-0.9,0.2c-0.3,0-0.5-0.1-0.8-0.2
		c-0.2-0.1-0.5-0.3-0.6-0.4c-0.2-0.2-0.3-0.4-0.4-0.7c-0.1-0.3-0.2-0.5-0.2-0.8c0-0.3,0-0.5,0.2-0.8
		C297.5,105.3,297.7,105.1,297.8,104.9z M308.2,103.2v0.8h-0.1c-0.2-0.3-0.5-0.5-0.9-0.7c-0.4-0.2-0.8-0.3-1.2-0.3
		c-0.4,0-0.8,0.1-1.2,0.3c-0.4,0.2-0.7,0.4-1,0.7c-0.3,0.3-0.5,0.6-0.7,1.1c-0.2,0.4-0.3,0.8-0.3,1.3c0,0.5,0.1,0.9,0.3,1.3
		c0.2,0.4,0.4,0.7,0.7,1c0.3,0.3,0.6,0.5,1,0.7c0.4,0.2,0.8,0.3,1.2,0.3c0.4,0,0.8-0.1,1.2-0.3c0.4-0.2,0.7-0.4,0.9-0.7h0.1v0.8h1.4
		v-6.2H308.2z M308,107.1c-0.1,0.2-0.2,0.5-0.4,0.7c-0.2,0.2-0.4,0.3-0.6,0.4c-0.2,0.1-0.5,0.2-0.8,0.2c-0.3,0-0.5-0.1-0.8-0.2
		c-0.2-0.1-0.5-0.3-0.6-0.4c-0.2-0.2-0.3-0.4-0.4-0.7c-0.1-0.3-0.2-0.5-0.2-0.8c0-0.3,0.1-0.5,0.2-0.8c0.1-0.2,0.2-0.5,0.4-0.7
		c0.2-0.2,0.4-0.3,0.6-0.4c0.2-0.1,0.5-0.2,0.8-0.2c0.3,0,0.5,0.1,0.8,0.2s0.4,0.3,0.6,0.4c0.2,0.2,0.3,0.4,0.4,0.7
		c0.1,0.2,0.2,0.5,0.2,0.8C308.2,106.6,308.1,106.9,308,107.1z"/>
</g>
</svg>
