<?xml version="1.0" encoding="utf-8"?>
<!-- Generator: Adobe Illustrator 28.7.1, SVG Export Plug-In . SVG Version: 9.03 Build 54978)  -->
<svg version="1.1" id="Capa_1" xmlns="http://www.w3.org/2000/svg" xmlns:xlink="http://www.w3.org/1999/xlink" x="0px" y="0px"
	 viewBox="160 35 165 65" style="enable-background:new 160 35 165 65;" xml:space="preserve">
<style type="text/css">
	.st0{fill:#FFFFFF;}
	.st1{fill:#E20613;}
	.st2{fill:#006640;}
</style>
<g>
	<path class="st0" d="M162.9,67.5c0-17.1,44-31,98.3-31c54.3,0,98.3,13.9,98.3,31c0,17.1-44,31-98.3,31
		C206.9,98.5,162.9,84.6,162.9,67.5L162.9,67.5z"/>
	<g>
		<path class="st1" d="M325.2,72.7c1.1,0.8,3.2-0.3,4.8-2.3c1.6-2,2-4.3,0.9-5.1c-1.1-0.8-3.2,0.3-4.8,2.3
			C324.5,69.6,324.1,71.9,325.2,72.7z"/>
		<path class="st1" d="M261.1,36.5c-37.1,0-69.4,6.5-86.2,16.1l46.2,0.6c0,0,10.2-0.5,11.7,1.8c0.1,0,4.1,5.1-7,13.3
			c0,0.1-7.7,4.9-10.4,5.8h15c0,0,3.5,0.7,10.9-9.1c0.1-0.1,3-3.7,3-3.7h10.4l-9.7,11.7c0,0-1.3,2.5,2.5,1.3c0,0,9.6-2.5,19.4-9.5
			c0.1-0.1,6-3.5,6-3.5h6.6c0,0-4.3,1.9-3,3.8c0,0.4,4.4,3.8,1.5,8.7h5.5c0,0,0.7-0.3,1.2-0.8c0,0,0-4.5,5.4-8.2l1.9-1l1.3-0.6
			l1.1-0.4l1.2-0.4l1.4-0.4l1.2-0.2l2.1-0.3l2-0.2h6.5c0,0,2.8-0.3,2.8,2c0,0,0.3,2.6-3.3,4.7c0.1-0.1-2.3,1.4-4.7,1.5
			c-0.1,0.1-3.4-0.2-2.5-2.9c0-0.1-4.6,2.1-5,5.3c0.1,0.1-0.4,1.7,2.8,1.6c0,0.1,12,0,12,0s3.7-0.1,5.8-3.5
			c-0.1,0.1,1.1-3.5,3.7-5.3l1.2-0.7l1-0.5l0.8-0.4l1.1-0.4l1.2-0.4l1.6-0.4l1.7-0.3l2-0.2h5.1c0,0,4.8-0.2,5.1,4
			c0,0-0.4,4.9-7.7,9.5h0c-0.3,0.2-0.7,0.4-1,0.6c-0.1,0.1-4.3,2.2-7,2.1c-0.1,0.1-5.9,0.5-7.9-2.8c-0.1-0.2-0.3-0.5-0.4-0.7
			c0,0-0.3,0.3-0.8,0.7c-1.3,1.1-4.1,3.1-6.7,3h-17.7c0,0-5.1-0.1-6.5-2.8c0,0-2.9,3-8.2,2.8c0-0.1-19.3,0-19.3,0l2.3-3l0.7-0.9h6.5
			c0,0,1.8-1.6,1.6-3.7c0,0-0.2-1.7-1.6-2.1c0,0-6.4,3.9-12.8,6.7v0c-2.7,1.2-5.5,2.2-7.8,2.7c0,0-5.5,1.5-8.3,0.7
			c0,0-3.2-0.5-3.4-3.4c0-0.1,0-0.3,0-0.5c0,0-0.2,0.2-0.5,0.5h0c-1,0.9-3.3,2.8-6,3H194c0,0-3.5,0.4-3.5-2.4c0,0,0-0.2,0.1-0.7
			c0.2-0.9,0.8-2.6,2.6-4.6c-0.1-0.1,4.4-5.4,4.4-5.4l2.8-3.5H212l-7.9,9.7c0,0-1.2,1.9,3.8,0c0,0,8.5-4.1,12.1-9.7
			c0,0,1.5-3.7-2.9-4.2c0-0.1-34.6,1.6-51,2.3c-2.2,2.5-3.3,5.2-3.3,8c0,17.1,44,31,98.3,31s98.3-13.9,98.3-31
			C359.4,50.4,315.4,36.5,261.1,36.5z M257.1,56.9c-0.2,1.6-2.6,2.9-5.4,2.9c-2.8,0-4.8-1.3-4.6-2.9c0.2-1.6,2.6-2.9,5.4-2.9
			C255.3,54,257.3,55.3,257.1,56.9z"/>
	</g>
</g>
<g>
	<g>
		<circle class="st2" cx="69.5" cy="67.5" r="59.9"/>
		<g>
			<g>
				<path class="st0" d="M30.3,65.1v-0.6h1.9v-13h-2v-0.6h14.2l0.2,4.2h-0.7c-1-2.8-2.2-3.6-4.6-3.6h-2.7v5.9c2.5,0,3-0.6,3.6-2.6
					h0.8v6.1h-0.8c-0.4-2-1-2.7-3.6-2.7v6.3h2.4v0.6L30.3,65.1L30.3,65.1z"/>
				<path class="st0" d="M45.1,65.1v-0.6h2v-13h-2v-0.6h10.1c2.6,0,5.2,1,5.2,3.4c0,2.5-3.6,3-5.7,3.2l0,0c3.6,0.6,5,1.8,5,3.8
					c0,2,0.1,2.5,0.5,2.9c0.2,0.2,0.7,0.3,2,0.1l0.2,0.5c-0.8,0.4-2.1,0.7-3,0.7c-3.1,0-4.2-1.2-4.2-4.4c0-2.5-0.6-3.1-2.6-3.1h-1.1
					v6.6h2.1v0.6L45.1,65.1L45.1,65.1z M51.4,57.2h1.1c2.6,0,3.3-0.4,3.3-1.9v-2.1c0-1,0.4-1.7-2.6-1.7h-1.8V57.2L51.4,57.2
					L51.4,57.2z"/>
				<path class="st0" d="M62.6,65.1v-0.6h2v-13h-1.8v-0.6h14l0.2,3.8h-0.9c-1.1-2.4-2.2-3.2-4.8-3.2h-2.4v5.9c2.5,0,3-0.6,3.6-2.6
					h0.8v6.1h-0.8c-0.4-2-1-2.7-3.6-2.7v6.3h2.5c3.9,0,4.7-1.5,5.4-4h0.8l-0.2,4.6L62.6,65.1L62.6,65.1L62.6,65.1z"/>
				<path class="st0" d="M88.7,50.9h0.8v3.8h-0.8c-0.4-1.7-2.2-3.4-4.4-3.4c-2.2,0-3.4,0.7-3.4,2.1s1.1,1.6,2.3,1.8
					c1.3,0.2,3.4,0.7,4.6,1.1c1.5,0.5,2.8,1.7,2.8,4.2s-1.8,5.1-6,5.1c-4.2,0-2.4-0.3-3.5-1l-1.3,0.8h-0.9V61h0.9
					c0.7,2,2.4,3.7,4.9,3.7s4.1-1.5,4.1-2.9c0-1.4-2.5-2-4.9-2.5c-2.5-0.5-4.9-1.4-4.9-4.6c0-3.2,2.4-4.3,5.4-4.3s2.4,0.4,3.4,1
					L88.7,50.9L88.7,50.9z"/>
				<polygon class="st0" points="90.6,65.1 90.6,64.5 92.5,64.5 92.5,51.5 90.6,51.5 90.6,50.9 98.9,50.9 98.9,51.5 96.8,51.5 
					96.8,57.5 102.4,57.5 102.4,51.5 100.3,51.5 100.3,50.9 108.8,50.9 108.8,51.5 106.7,51.5 106.7,64.5 108.8,64.5 108.8,65.1 
					100.3,65.1 100.3,64.5 102.4,64.5 102.4,58.1 96.8,58.1 96.8,64.5 98.9,64.5 98.9,65.1 				"/>
				<path class="st0" d="M35.5,83.5h2.1v0.6h-8.5v-0.6h2.3V70.7h0l-5,13.5h-0.9l-4.9-13.5h0v11.6c0,1.4,0.9,1.3,2.4,1.3v0.6h-5.4
					v-0.6c1.4,0,2.3,0.1,2.3-1.3V70.6h-2.3v-0.6h7.2l2.9,8.6l3.1-8.6h6.9v0.6h-2.1L35.5,83.5L35.5,83.5L35.5,83.5z"/>
				<path class="st0" d="M37.2,84.1v-0.6c0.6,0,1.7,0,2-0.6l6-13.3h1l6.4,13.9h1.5v0.6h-8.1v-0.6h2l-1.4-3.3h-5.2l-0.7,1.5
					c-0.3,0.6-0.5,1.2-0.5,1.5c0,0.5,2,0.4,2.3,0.4v0.6L37.2,84.1L37.2,84.1z M41.7,79.5h4.6l-2.3-5.2L41.7,79.5z"/>
				<path class="st0" d="M54.1,84.1v-0.6h2v-13h-2v-0.6h10.1c2.6,0,5.2,1,5.2,3.4s-3.6,3-5.7,3.2l0,0c3.6,0.6,5,1.8,5,3.8
					s0.1,2.5,0.5,2.9c0.2,0.2,0.7,0.3,2,0.1l0.2,0.5c-0.8,0.4-2.1,0.7-3,0.7c-3.1,0-4.2-1.2-4.2-4.4c0-2.5-0.6-3.1-2.6-3.1h-1.1v6.6
					h2.1v0.6L54.1,84.1L54.1,84.1z M60.4,76.2h1.1c2.6,0,3.3-0.4,3.3-1.9v-2.1c0-1,0.4-1.7-2.6-1.7h-1.8V76.2L60.4,76.2L60.4,76.2z"
					/>
				<path class="st0" d="M71.6,84.1v-0.6h2v-13h-1.9v-0.6H80v0.6h-2.2v13H80v0.6H71.6L71.6,84.1z M82.3,69.9h6.2v0.6h-1.9
					c-0.4,0-0.6,0.1-0.8,0.3l-4.4,3.9l7.1,8.8h1.8v0.6h-9v-0.6h2.1l-4.9-6c-0.2-0.2-0.4-0.6-0.4-0.8c0-0.2,0.5-0.6,0.7-0.9l5.2-4.5
					c0.3-0.2,0.4-0.4,0.4-0.5c0-0.2-0.5-0.3-1-0.3h-1.2L82.3,69.9L82.3,69.9L82.3,69.9z"/>
				<path class="st0" d="M90,84.1v-0.6h2v-13h-1.8v-0.6h14l0.2,3.8h-0.9c-1.1-2.4-2.2-3.2-4.8-3.2h-2.4v5.9c2.5,0,3-0.6,3.6-2.6h0.8
					V80h-0.8c-0.4-2-1-2.7-3.6-2.7v6.3h2.5c3.9,0,4.7-1.5,5.4-4h0.8l-0.2,4.6L90,84.1L90,84.1z"/>
				<path class="st0" d="M105.8,69.9h15.5l0.2,4.6h-0.7c-0.8-2.6-1.7-4.2-5.2-4v13h2.1v0.6h-8.5v-0.6h2.1v-13
					c-3.5-0.2-4.4,1.4-5.2,4h-0.7L105.8,69.9L105.8,69.9z"/>
			</g>
		</g>
	</g>
</g>
</svg>
