<?xml version="1.0" encoding="UTF-8"?>
<svg id="Capa_1" data-name="Capa 1" xmlns="http://www.w3.org/2000/svg" width="300" height="100" version="1.1" viewBox="0 0 300 100">
  <defs>
    <style>
      .cls-1 {
        fill: #096348;
        stroke-width: 0px;
      }
    </style>
  </defs>
  <g id="Capa_1-2" data-name="Capa 1-2">
    <g>
      <path class="cls-1" d="M101.4,27.9L243.7,1.9c.9-.2,1.5.9.9,1.6l-17,19.7c-.9,1.1-2.3,1.8-3.7,1.9l-126.8,9.6c-.8,0-1.3-.8-.9-1.4l1.5-2.6c.8-1.4,2.2-2.5,3.8-2.7"/>
      <path class="cls-1" d="M147,49c8.8-10.3,26.7-11.9,32.3,1.5l1.1-8.1h16.5s-4.4,31.2-5.1,36.1c-.8,6.7,2.6,5.8,4.9,5.1l-1.7,11.5c-7.6,3.5-18.7,3.2-19.2-8-4.2,6.1-11,10-19,9.8-24.3-.6-24-35-9.8-47.9M153.9,71.2c0,7.7,4.1,11,8.7,11.2,6.7.2,14-4.5,14.3-15.6.2-6.9-4-11.3-9.9-11.1-7.5,0-13.1,7-13.1,15.5"/>
      <path class="cls-1" d="M285.6,26h-.9c-5.1,1.9-10.6,3.1-16.3,3.5-1.4,10.4-5.6,40.5-6.4,45.8-1.4,9.1-.7,17.3,7.3,20.4,5.8,2.2,14.3,1.6,20.3-.3l2.1-14.8c-3.1,1.8-8.2,2.1-10.7.4s-2.3-5-1.8-8.9c.7-5.5,1.8-13.2,2.2-15.6h13.3l2-14.1h-13.3l2.3-16.5h-.1Z"/>
      <path class="cls-1" d="M222.8,50.9l1.4-10.3c-4.5,1-9.1,1.5-13.8,1.5s-1.9,0-2.9,0l-7.5,53.2h18.5c-.1-11.1,1.7-28,3.2-31.7,1.9-4.7,5.6-7.9,10.5-7.9,4.4-.2,7.9,3.1,7.5,7.6-.4,4.5-4.6,20.8-4.3,32.1h19.7c-1.6-2.4-1.5-8.3-1-13.5.5-4.6,3.2-17.6,3.8-21.9.7-5.3-.4-9.6-3.2-13.1-7.5-9.5-25.2-7.1-31.9,4"/>
      <path class="cls-1" d="M118,76.7c-4.6,11.5-22.5,10.9-22.9-3.7h37.8c2.8-9.9,2-22.2-7.3-28.1-10.7-7.1-27.9-4.5-36.6,3.7-12.8,11-16,38.1,2.2,46.2,3.8,1.7,8.9,2.6,13.7,2.4,10.5-.4,20.5-4.6,26.3-12.9l-13.2-7.6h0ZM109.4,53c4.8,0,8.8,3,8.8,10.1h-21.4c1.6-6.2,7.5-10,12.6-10.1"/>
      <path class="cls-1" d="M67,54.3h-24.7l-2,14h16.1c.3,0,.5.3.4.5-2.8,7.2-11.3,13.1-19.1,13-10.4.4-16.5-8.4-16.2-18-.2-13.8,9.1-28,23.8-28s13,6.7,14.2,13.3l18.3-8.2c-5.3-12.9-16.5-19.7-29.8-20-5.8,0-11.8.7-17.6,3C13.6,30.6,3.5,47.9,3.4,65.5c0,10,3.7,20.8,12.1,26.6,4.8,3.4,11.9,5.1,18,5.1,9.6,0,18.9-4.3,24.3-11.3l-.2,9.4h12.8l4.5-31.8c.7-4.9-3.1-9.2-7.9-9.2"/>
    </g>
  </g>
</svg>