<svg xmlns="http://www.w3.org/2000/svg" viewBox="0 0 192.39 59.8"><defs><style>.cls-1{fill:#E2001A;}.cls-1,.cls-2{fill-rule:evenodd;}.cls-2,.cls-3{fill:#211915;}</style></defs><title>logo_1</title><g id="Capa_2" data-name="Capa 2"><g id="Capa_1-2" data-name="Capa 1"><g id="Ilustración_1" data-name="Ilustración 1"><path class="cls-1" d="M144,26.33V.85H156V5.13a14.73,14.73,0,0,1,4.24-4A8.31,8.31,0,0,1,164.63,0a8.21,8.21,0,0,1,4.85,1.36,10.41,10.41,0,0,1,3.79,4.3c1-1.85,1.68-3.27,3.22-4.23A9.33,9.33,0,0,1,181.6,0a8.49,8.49,0,0,1,6.5,2.58,10,10,0,0,1,2.4,7V26.33H178V14.12a6.86,6.86,0,0,0-.37-2.77,2.21,2.21,0,0,0-1.78-.72,2.77,2.77,0,0,0-2.15.86,5.36,5.36,0,0,0-.5,2.63V26.33H160.93V14.12a6.69,6.69,0,0,0-.38-2.74,1.4,1.4,0,0,0-1.35-.75c-.73,0-2,.28-2.39.86a5.12,5.12,0,0,0-.52,2.63V26.33Z"/><path class="cls-2" d="M147.85,28.17h43.26a1.29,1.29,0,0,1,1.28,1.28h0a1.27,1.27,0,0,1-1.28,1.26H147.85a1.25,1.25,0,0,1-1.25-1.26h0A1.27,1.27,0,0,1,147.85,28.17Z"/><path class="cls-2" d="M141.47,1.66l1.81,3.51A1.37,1.37,0,0,1,142.7,7h0a1.38,1.38,0,0,1-1.81-.58l-1.43-2.8H132a1.33,1.33,0,0,1-1.33-1.34h0A1.33,1.33,0,0,1,132,.94h8.24A1.37,1.37,0,0,1,141.47,1.66Z"/><path class="cls-2" d="M158.59,32A3.91,3.91,0,1,1,152.11,35,3.87,3.87,0,0,1,153.48,32ZM156,33.83A1.16,1.16,0,0,0,154.87,35a1.16,1.16,0,0,0,2.31,0A1.15,1.15,0,0,0,156,33.83Z"/><path class="cls-2" d="M181.53,32a3.92,3.92,0,1,1-5.13,0ZM179,33.83A1.15,1.15,0,0,0,177.81,35a1.16,1.16,0,0,0,2.31,0A1.16,1.16,0,0,0,179,33.83Z"/><rect class="cls-3" x="0.46" y="42.07" width="190.13" height="1.69"/><path class="cls-1" d="M17.71,17.94V.8h7.42V3.54A9.43,9.43,0,0,1,27.75,1,4.92,4.92,0,0,1,30.44.26a4.92,4.92,0,0,1,3,.87,7.06,7.06,0,0,1,2.34,2.76,6.45,6.45,0,0,1,1.95-2.7A5.53,5.53,0,0,1,40.88.26a5.13,5.13,0,0,1,4,1.66,6.45,6.45,0,0,1,1.48,4.49V17.94H38.65V9.32a4.51,4.51,0,0,0-.23-1.76,1.35,1.35,0,0,0-1.1-.47A1.64,1.64,0,0,0,36,7.63a3.5,3.5,0,0,0-.33,1.69v8.62H28.15V9.32a4.55,4.55,0,0,0-.22-1.74.87.87,0,0,0-.84-.49c-.46,0-1.26.17-1.47.54a3.65,3.65,0,0,0-.31,1.69v8.62Z"/><path class="cls-1" d="M54.1,9.3a2.18,2.18,0,0,0,.76,1.77,2.91,2.91,0,0,0,2,.68,3,3,0,0,0,2-.67,2.22,2.22,0,0,0,.75-1.78,2.29,2.29,0,0,0-.77-1.79,2.86,2.86,0,0,0-2-.68,2.92,2.92,0,0,0-2,.69A2.25,2.25,0,0,0,54.1,9.3ZM59,17.93V15.34a9,9,0,0,1-2.48,2.45,5.44,5.44,0,0,1-2.85.79A5.72,5.72,0,0,1,48.89,16,10.77,10.77,0,0,1,47,9.51a11.26,11.26,0,0,1,1.83-6.72A5.78,5.78,0,0,1,56.36.94a7.38,7.38,0,0,1,2.31,2.13V.8h7.59V17.93Z"/><path class="cls-1" d="M78.32,6.2A2.94,2.94,0,0,0,74.82,9c0,1.78,1,2.95,3.5,3.19v6.11a9.11,9.11,0,0,1-11-11.4c1.38-5,6.06-7.38,11-6.47Z"/><path class="cls-1" d="M79.62,17.94V.8H87V3.2A7.23,7.23,0,0,1,89.13,1,5,5,0,0,1,91.78.24h.32l.21,0V7.59A5.26,5.26,0,0,0,91.17,7a2.74,2.74,0,0,0-1-.17A2.88,2.88,0,0,0,88,7.7a3.4,3.4,0,0,0-.81,2.42v7.82Z"/><path class="cls-1" d="M85.48,30a2,2,0,0,0,.79,1.69,3.34,3.34,0,0,0,2.11.65,3.3,3.3,0,0,0,2.11-.65A2,2,0,0,0,91.28,30a2.09,2.09,0,0,0-.81-1.73,3.13,3.13,0,0,0-2.09-.65,3.23,3.23,0,0,0-2.11.67A2.1,2.1,0,0,0,85.48,30Zm5.06,8.25V35.74A8.74,8.74,0,0,1,88,38.09a5.92,5.92,0,0,1-3,.75,6.06,6.06,0,0,1-4.93-2.43,9.73,9.73,0,0,1-1.93-6.24A10.11,10.11,0,0,1,80,23.71a6,6,0,0,1,5-2.45,6.42,6.42,0,0,1,2.88.66,7.51,7.51,0,0,1,2.39,2V21.79h7.91V38.21Z"/><path class="cls-1" d="M101.59,11.77a3,3,0,0,0,2-.65,2.1,2.1,0,0,0,.77-1.69,2.11,2.11,0,0,0-.76-1.71,3,3,0,0,0-2-.63,3,3,0,0,0-2,.63,2.16,2.16,0,0,0-.75,1.71,2.15,2.15,0,0,0,.75,1.69,3,3,0,0,0,2,.65ZM111,9.43a8.94,8.94,0,0,1-.78,3.7A9.54,9.54,0,0,1,108,16.22,9.19,9.19,0,0,1,105,18,10.89,10.89,0,0,1,98,18,9.1,9.1,0,0,1,95,16.22a8.87,8.87,0,0,1-2.23-3.08A8.81,8.81,0,0,1,92,9.43a8.91,8.91,0,0,1,.79-3.74A9.12,9.12,0,0,1,95,2.62,8.92,8.92,0,0,1,98,.84a10.63,10.63,0,0,1,7.07,0,9.48,9.48,0,0,1,3,1.77,8.91,8.91,0,0,1,2.21,3.07A9.06,9.06,0,0,1,111,9.43Z"/><path class="cls-1" d="M139.69,30.08a8.29,8.29,0,0,1-.81,3.54,8.9,8.9,0,0,1-2.27,3,8.78,8.78,0,0,1-3,1.69,11.4,11.4,0,0,1-7.18,0,9.28,9.28,0,0,1-3-1.71,8.85,8.85,0,0,1-2.27-3,8.37,8.37,0,0,1,0-7.14,9,9,0,0,1,5.24-4.64,11.4,11.4,0,0,1,7.18,0,9.22,9.22,0,0,1,3,1.69,8.67,8.67,0,0,1,3.06,6.53Zm-9.41,1.74a2.88,2.88,0,0,0,1.88-.59,2,2,0,0,0,.73-1.62,2.09,2.09,0,0,0-.71-1.64,2.86,2.86,0,0,0-1.9-.62,2.91,2.91,0,0,0-1.94.62,2.1,2.1,0,0,0-.72,1.64,2,2,0,0,0,.72,1.62A3,3,0,0,0,130.28,31.82Z"/><path class="cls-1" d="M52.3,38.16V21.8h7.57v2.29A7.57,7.57,0,0,1,62.13,22a5.46,5.46,0,0,1,2.75-.7h.35a1.52,1.52,0,0,0,.21,0v7a6.41,6.41,0,0,0-1.2-.54,3.13,3.13,0,0,0-1-.17,3,3,0,0,0-2.3.82,3.13,3.13,0,0,0-.82,2.31v7.43Z"/><path class="cls-1" d="M38.94,28.56l5.38,0a3.22,3.22,0,0,0-.72-2,2.63,2.63,0,0,0-1.93-.64,2.55,2.55,0,0,0-1.84.68,3.38,3.38,0,0,0-.89,2Zm12.29,2.76-11.85,0v.26a3,3,0,0,0,.47,1.86,1.71,1.71,0,0,0,1.45.62,1.58,1.58,0,0,0,1-.34,3.46,3.46,0,0,0,1-1.17l7.85.07a8.48,8.48,0,0,1-3.93,4.77,11.59,11.59,0,0,1-6.05,1.46,11.72,11.72,0,0,1-3.74-.59,9.79,9.79,0,0,1-3.11-1.69,9,9,0,0,1-2.37-3,7.91,7.91,0,0,1-.84-3.54,8,8,0,0,1,.84-3.58,9.17,9.17,0,0,1,2.37-2.95,9.79,9.79,0,0,1,3.11-1.69,11.59,11.59,0,0,1,3.74-.58,11.28,11.28,0,0,1,5,1.06,9.48,9.48,0,0,1,3.64,3.08,7.23,7.23,0,0,1,1.12,2.28,9.19,9.19,0,0,1,.39,2.73,4.21,4.21,0,0,1,0,.57C51.25,31.14,51.23,31.25,51.23,31.32Z"/><path class="cls-1" d="M.48,38.16V21.8H8.64v2.29A6.7,6.7,0,0,1,10.84,22a5.57,5.57,0,0,1,2.77-.68,5.37,5.37,0,0,1,3.08.84,5.83,5.83,0,0,1,2,2.63,7.33,7.33,0,0,1,2.45-2.6,6.36,6.36,0,0,1,3.26-.87,5.39,5.39,0,0,1,4.12,1.59,5.89,5.89,0,0,1,1.55,4.28v11H21.81V29.94a4,4,0,0,0-.24-1.69.88.88,0,0,0-.84-.44,1.08,1.08,0,0,0-1,.52,3,3,0,0,0-.33,1.61v8.22H11.26V29.94A4,4,0,0,0,11,28.26a.87.87,0,0,0-.86-.45,1.12,1.12,0,0,0-1,.52,3,3,0,0,0-.33,1.61v8.22Z"/><path class="cls-1" d="M106.71,30a2,2,0,0,0,.81,1.67,3.72,3.72,0,0,0,4.2,0A2,2,0,0,0,112.5,30a2.09,2.09,0,0,0-.78-1.71,3.69,3.69,0,0,0-4.2,0,2.06,2.06,0,0,0-.81,1.7Zm5.08,8.2V35.7a8.76,8.76,0,0,1-2.6,2.32,5.88,5.88,0,0,1-3,.75,6,6,0,0,1-4.92-2.41,9.48,9.48,0,0,1-2-6.19,10,10,0,0,1,1.9-6.41,6,6,0,0,1,5-2.43,6.14,6.14,0,0,1,2.86.65,7.07,7.07,0,0,1,2.39,2V14.58h7.93V38.16Z"/><path class="cls-1" d="M77.28,27.07a2.9,2.9,0,0,0-3.49,2.69c0,1.68,1,2.8,3.49,3v5.85c-7,1.55-12.9-4.26-11-10.91,1.38-4.8,6.06-7.09,11-6.21Z"/><path class="cls-3" d="M6,52.42a3.12,3.12,0,0,0-2.23-1,3,3,0,0,0,0,6,3.19,3.19,0,0,0,2.21-1v1a3.75,3.75,0,0,1-2.18.72,3.79,3.79,0,1,1,0-7.57A3.49,3.49,0,0,1,6,51.41Z"/><path class="cls-3" d="M8.16,55.17a2.77,2.77,0,0,0,.32,1.63,1.91,1.91,0,0,0,2.91.05,2.51,2.51,0,0,0,.36-1.68V50.82h.82v4.57a2.58,2.58,0,0,1-.64,2,2.68,2.68,0,0,1-2,.84,2.7,2.7,0,0,1-1.89-.75,2.58,2.58,0,0,1-.72-2.12V50.82h.81Z"/><path class="cls-3" d="M15.11,56.06l-.88,2.07h-.9l3.38-7.66L20,58.13h-.91l-.86-2.07Zm1.58-3.69L15.44,55.3h2.47Z"/><path class="cls-3" d="M20.84,50.51l5.7,6V50.82h.82v7.64l-5.7-6v5.63h-.82Z"/><path class="cls-3" d="M30.82,58.13H30V51.57H28.24v-.75h4.37v.75H30.82Z"/><path class="cls-3" d="M40.69,54.49a3.81,3.81,0,1,1-3.81-3.8A3.79,3.79,0,0,1,40.69,54.49Zm-6.81,0a3,3,0,1,0,3-3A3,3,0,0,0,33.88,54.47Z"/><path class="cls-3" d="M45.74,50.4l2.65,6.14,2.67-6.14,1.48,7.73h-.83l-.94-5h0l-2.36,5.25-2.34-5.25h0l-.94,5h-.84Z"/><path class="cls-3" d="M54.57,56.06l-.88,2.07H52.8l3.37-7.66,3.29,7.66h-.9l-.87-2.07Zm1.58-3.69L54.9,55.3h2.47Z"/><path class="cls-3" d="M63.57,52.24a1.34,1.34,0,0,0-1.26-.79,1.16,1.16,0,0,0-1.21,1.13c0,.63.65.92,1.14,1.15l.49.21c1,.42,1.75.89,1.75,2.06a2.3,2.3,0,0,1-4.57.37l.79-.23a1.51,1.51,0,0,0,1.47,1.36,1.47,1.47,0,0,0,1.5-1.42c0-.86-.67-1.15-1.35-1.46l-.45-.2c-.85-.38-1.59-.82-1.59-1.87a1.92,1.92,0,0,1,2-1.86,2.1,2.1,0,0,1,1.89,1.14Z"/><path class="cls-3" d="M74.24,52.42a3.14,3.14,0,0,0-2.23-1,3,3,0,0,0,0,6,3.21,3.21,0,0,0,2.21-1v1a3.75,3.75,0,0,1-2.18.72,3.79,3.79,0,1,1,0-7.57,3.51,3.51,0,0,1,2.18.72Z"/><path class="cls-3" d="M82.87,54.49a3.81,3.81,0,1,1-3.81-3.8A3.79,3.79,0,0,1,82.87,54.49Zm-6.81,0a3,3,0,1,0,3-3A3,3,0,0,0,76.06,54.47Z"/><path class="cls-3" d="M84.93,50.4l2.65,6.14,2.67-6.14,1.48,7.73H90.9l-.94-5h0l-2.36,5.25-2.34-5.25h0l-1,5h-.83Z"/><path class="cls-3" d="M93.48,58.13h-.82V50.82h1.21a3.06,3.06,0,0,1,1.81.39,2,2,0,0,1,.82,1.67,2,2,0,0,1-.69,1.56,2.65,2.65,0,0,1-1.74.49h-.59Zm0-4H94c.91,0,1.67-.27,1.67-1.31,0-1.2-1-1.29-1.91-1.29h-.3Z"/><path class="cls-3" d="M98.36,58.13h-.82V50.82H98.6c1.39,0,2.68.37,2.68,2a1.91,1.91,0,0,1-1.84,2l2.33,3.28h-1l-2.21-3.21h-.2Zm0-3.93h.25c.92,0,1.85-.17,1.85-1.31s-.88-1.32-1.86-1.32h-.24Z"/><path class="cls-3" d="M103.89,56.06,103,58.13h-.89l3.37-7.66,3.29,7.66h-.9L107,56.06Zm1.59-3.69-1.26,2.93h2.48Z"/><path class="cls-3" d="M112.9,52.24a1.34,1.34,0,0,0-1.26-.79,1.16,1.16,0,0,0-1.22,1.13c0,.63.65.92,1.15,1.15l.48.21c1,.42,1.76.89,1.76,2.06a2.31,2.31,0,0,1-4.58.37l.79-.23a1.51,1.51,0,0,0,1.47,1.36,1.47,1.47,0,0,0,1.5-1.42c0-.86-.67-1.15-1.34-1.46l-.45-.2c-.85-.38-1.59-.82-1.59-1.87a1.92,1.92,0,0,1,2-1.86,2.11,2.11,0,0,1,1.9,1.14Z"/><path class="cls-3" d="M116.44,57.31l-1.09,2.49-.52-.22.9-2.52Z"/><path class="cls-3" d="M121.92,50.4l2.66,6.14,2.67-6.14,1.48,7.73h-.83l-.94-5h0l-2.36,5.25-2.35-5.25h0l-.94,5h-.83Z"/><path class="cls-3" d="M129.66,50.82h3.79v.75h-3v2.18h2.89v.75h-2.89v2.87h3v.76h-3.79Z"/><path class="cls-3" d="M134.89,50.51l5.7,6V50.82h.82v7.64l-5.71-6v5.63h-.81Z"/><path class="cls-3" d="M150.18,54.49a3.81,3.81,0,1,1-3.81-3.8A3.79,3.79,0,0,1,150.18,54.49Zm-6.81,0a3,3,0,1,0,3-3A3,3,0,0,0,143.37,54.47Z"/><path class="cls-3" d="M154.61,52.24a1.34,1.34,0,0,0-1.26-.79,1.16,1.16,0,0,0-1.21,1.13c0,.63.64.92,1.14,1.15l.48.21c1,.42,1.76.89,1.76,2.06a2.31,2.31,0,0,1-4.58.37l.8-.23a1.49,1.49,0,0,0,1.46,1.36,1.47,1.47,0,0,0,1.51-1.42c0-.86-.68-1.15-1.35-1.46l-.45-.2c-.85-.38-1.59-.82-1.59-1.87a1.92,1.92,0,0,1,2.05-1.86,2.1,2.1,0,0,1,1.89,1.14Z"/><path class="cls-3" d="M160.51,58.13h-.81V50.82h1.2a3.11,3.11,0,0,1,1.82.39,2.1,2.1,0,0,1,.12,3.23,2.6,2.6,0,0,1-1.73.49h-.6Zm0-4h.55c.9,0,1.66-.27,1.66-1.31,0-1.2-1-1.29-1.91-1.29h-.3Z"/><path class="cls-3" d="M164.9,56.06,164,58.13h-.9l3.38-7.66,3.29,7.66h-.91L168,56.06Zm1.58-3.69-1.25,2.93h2.47Z"/><path class="cls-3" d="M177.38,54.46a3.44,3.44,0,0,1-.76,2.57,3.61,3.61,0,0,1-2.7,1.23,3.79,3.79,0,1,1,3.14-6l-.59.55A3,3,0,0,0,174,51.45a3,3,0,0,0-3,3,3,3,0,0,0,.85,2.07,3.1,3.1,0,0,0,2.08.93,2.51,2.51,0,0,0,2.61-2.29h-2.18v-.75Z"/><path class="cls-3" d="M179.63,56.06l-.88,2.07h-.89l3.37-7.66,3.29,7.66h-.91l-.86-2.07Zm1.58-3.69L180,55.3h2.47Z"/><path class="cls-3" d="M188.63,52.24a1.34,1.34,0,0,0-1.26-.79,1.16,1.16,0,0,0-1.21,1.13c0,.63.65.92,1.14,1.15l.49.21c.94.42,1.75.89,1.75,2.06a2.31,2.31,0,0,1-4.58.37l.8-.23a1.51,1.51,0,0,0,1.46,1.36,1.47,1.47,0,0,0,1.51-1.42c0-.86-.67-1.15-1.35-1.46l-.45-.2c-.85-.38-1.59-.82-1.59-1.87a1.92,1.92,0,0,1,2-1.86,2.1,2.1,0,0,1,1.89,1.14Z"/><path class="cls-3" d="M192,57.7a.55.55,0,1,1-1.09,0,.55.55,0,0,1,1.09,0Z"/></g></g></g></svg>