<?xml version="1.0" encoding="utf-8"?>
<!-- Generator: Adobe Illustrator 26.5.2, SVG Export Plug-In . SVG Version: 6.00 Build 0)  -->
<svg version="1.1" id="Layer_1" xmlns="http://www.w3.org/2000/svg" xmlns:xlink="http://www.w3.org/1999/xlink" x="0px" y="0px"
	 viewBox="0 0 80 35" style="enable-background:new 0 0 80 35;" xml:space="preserve">
<style type="text/css">
	.st0{fill:#FFFFFF;}
	.st1{fill-rule:evenodd;clip-rule:evenodd;fill:#FFFFFF;}
	.st2{fill-rule:evenodd;clip-rule:evenodd;fill:#FFFFFF;}
	.st3{fill-rule:evenodd;clip-rule:evenodd;fill:#FFFFFF;}
	.st4{fill:#FFFFFF;}
</style>
<g>
	<path class="st2" d="M1.12,2.58L0,7.29h7.92L1.69,33.51l7.51-0.09l6.06-25.49c0.09-0.38,0.42-0.64,0.81-0.64H44.6l-6.24,26.22
		l7.51-0.09l6.06-25.49c0.09-0.38,0.42-0.64,0.81-0.64h24.06c0.98,0,1.84-0.68,2.07-1.63L80,0.94H3.19C2.2,0.94,1.35,1.62,1.12,2.58
		z"/>
	<path class="st2" d="M33.02,11.93l-0.22,0.92c-0.05,0.21-0.31,0.27-0.45,0.11c-1.29-1.56-3.31-2.44-6.17-2.35
		c-5.41,0.17-10.04,4.21-11.73,11.68c-1.66,7.33,1.18,11.95,7.21,11.76c2.11-0.07,4.23-0.89,6.1-2.26c0.22-0.16,0.52,0.04,0.45,0.3
		l-0.39,1.64l7.51-0.09l5.39-22.68l-6.6,0.08C33.6,11.04,33.14,11.41,33.02,11.93z M30.02,16.81l-2.38,9.74
		c-0.35,1.45-1.5,2.48-2.78,2.49l-1.09,0.01c-1,0.01-1.69-1.08-1.41-2.21l2.19-8.97c0.25-1.01,1.05-1.72,1.93-1.72h3.12
		C29.9,16.14,30.11,16.47,30.02,16.81z"/>
	<path class="st2" d="M69.62,12.85c-0.05,0.21-0.31,0.27-0.45,0.11c-1.29-1.56-3.31-2.44-6.17-2.35
		c-5.41,0.17-10.04,4.21-11.73,11.68c-1.66,7.33,1.18,11.95,7.21,11.76c2.11-0.07,4.23-0.89,6.1-2.26c0.22-0.16,0.52,0.04,0.45,0.3
		l-0.39,1.64l7.51-0.09l5.39-22.68l-6.6,0.08c-0.53,0.01-1,0.37-1.12,0.89L69.62,12.85z M66.84,16.81l-2.38,9.74
		c-0.35,1.45-1.5,2.48-2.78,2.49l-1.09,0.01c-1,0.01-1.69-1.08-1.41-2.21l2.19-8.97c0.25-1.01,1.05-1.72,1.93-1.72h3.12
		C66.72,16.14,66.92,16.47,66.84,16.81z"/>
</g>
</svg>
