<svg id="Capa_1" data-name="Capa 1" xmlns="http://www.w3.org/2000/svg" viewBox="0 0 280.6 100.99"><defs><style>.cls-1{fill:#0047BA;}.cls-2{fill:#F6323E;}</style></defs><title>tienda-inglesa</title><path class="cls-1" d="M141.8,5.8h-5.61a2.71,2.71,0,0,1-2.7-2.69,2.71,2.71,0,0,1,2.7-2.69h17.07a2.69,2.69,0,0,1,0,5.38h-5.62V24.28a2.92,2.92,0,1,1-5.84,0Z"/><path class="cls-1" d="M159.73,3.11a2.93,2.93,0,0,1,5.85,0V24.28a2.93,2.93,0,0,1-5.85,0Z"/><path class="cls-1" d="M172.71,24.05V3.34A2.9,2.9,0,0,1,175.63.42h14.72A2.62,2.62,0,0,1,193,3a2.59,2.59,0,0,1-2.62,2.58H178.52V11h8.63a2.62,2.62,0,0,1,2.62,2.62,2.59,2.59,0,0,1-2.62,2.58h-8.63v5.57h12a2.63,2.63,0,0,1,2.62,2.62A2.59,2.59,0,0,1,190.54,27H175.63A2.9,2.9,0,0,1,172.71,24.05Z"/><path class="cls-1" d="M198.13,3.19A2.9,2.9,0,0,1,201.05.27h.61a3.62,3.62,0,0,1,3,1.7L216,16.77V3.07a2.88,2.88,0,1,1,5.76,0V24.2a2.9,2.9,0,0,1-2.92,2.92h-.19a3.62,3.62,0,0,1-3-1.7L203.89,10.09V24.32a2.88,2.88,0,0,1-5.76,0Z"/><path class="cls-1" d="M228.1,3.34A2.9,2.9,0,0,1,231,.42h7.43c8.35,0,14.12,5.72,14.12,13.2v.07c0,7.48-5.77,13.28-14.12,13.28H231a2.9,2.9,0,0,1-2.92-2.92ZM238.45,21.7c4.78,0,8-3.23,8-7.93v-.08a7.63,7.63,0,0,0-8-8h-4.51v16Z"/><path class="cls-1" d="M254.65,23.22l9.26-20.91A3.6,3.6,0,0,1,267.32,0h.34A3.56,3.56,0,0,1,271,2.31l9.25,20.91a2.8,2.8,0,0,1,.31,1.17,2.77,2.77,0,0,1-2.77,2.81,3,3,0,0,1-2.81-2L273.24,21H261.55l-1.85,4.36A2.87,2.87,0,0,1,257,27.2a2.68,2.68,0,0,1-2.69-2.73A3,3,0,0,1,254.65,23.22Zm16.43-7.36L267.4,7.09l-3.68,8.77Z"/><path class="cls-2" d="M78.43,45.19a20.61,20.61,0,0,0-24,0,15.4,15.4,0,0,0-6.11,12.52v18a5.65,5.65,0,1,0,11.3,0v-18c0-4.92,6.11-5.07,6.8-5.07s6.81.15,6.81,5.07v18a5.65,5.65,0,1,0,11.3,0v-18A15.4,15.4,0,0,0,78.43,45.19Z"/><path class="cls-2" d="M154.86,70.25a4.17,4.17,0,0,1-3.22-1.39c-1.22-1.45-1.33-4.46-1.31-6.45,0-1,0-22.46,0-22.46a5.61,5.61,0,0,0-11.22,0V61.56c0,.22-.35,9.1,3.7,14.23a15.31,15.31,0,0,0,11.1,5.63l.47,0a5.61,5.61,0,0,0,.47-11.2Z"/><path class="cls-2" d="M34.13,47.12a5.61,5.61,0,0,0-5.61,5.61V75.89a5.61,5.61,0,0,0,11.22,0V52.73A5.61,5.61,0,0,0,34.13,47.12Z"/><path class="cls-2" d="M34.13,47.12a5.61,5.61,0,0,0-5.61,5.61V75.89a5.61,5.61,0,0,0,11.22,0V52.73A5.61,5.61,0,0,0,34.13,47.12Z"/><path class="cls-2" d="M34.13,27.3a7.09,7.09,0,1,0,7.09,7.08A7.08,7.08,0,0,0,34.13,27.3Z"/><path class="cls-2" d="M280.1,61.16a20.53,20.53,0,1,0-8.45,16.62,4.23,4.23,0,0,0,8.45,0ZM259.57,71.27a10.12,10.12,0,1,1,10.12-10.11A10.12,10.12,0,0,1,259.57,71.27Z"/><path class="cls-2" d="M179.5,65.08a5.32,5.32,0,0,0,7.53,0l10.65-10.65a5.31,5.31,0,0,0,0-7.47,20.61,20.61,0,0,0-35.39,14.35A20.64,20.64,0,0,0,183,81.92h.17a20.44,20.44,0,0,0,14.56-6,5.32,5.32,0,1,0-7.53-7.53,9.91,9.91,0,0,1-7,2.92h-.27a10,10,0,1,1,2.56-19.61l-5.9,5.89A5.32,5.32,0,0,0,179.5,65.08Z"/><path class="cls-2" d="M222.26,56.52c-1.83-1-4.84-2.69-5.57-3.69.05-1.06.39-1.51,1.83-1.51h9a5.25,5.25,0,0,0,0-10.49h-9c-7.26,0-12.33,5.07-12.33,12.33v.07c.08,6.4,6.12,9.76,11,12.46,1.77,1,4.67,2.6,5.44,3.57-.05,1.07-.39,1.51-1.83,1.51h-9.24a5.25,5.25,0,0,0,0,10.49h9.24c7.25,0,12.32-5.07,12.32-12.33C233.1,62.56,227.09,59.21,222.26,56.52Z"/><path class="cls-2" d="M132.11,61.5A20.55,20.55,0,1,0,121,79.74V80a1.64,1.64,0,0,0,0,.23,1.94,1.94,0,0,0,0,.24,9.36,9.36,0,0,1-9.35,9.36,5.58,5.58,0,1,0,0,11.15,20.54,20.54,0,0,0,20.51-20.51,1.94,1.94,0,0,0,0-.24,1.64,1.64,0,0,0,0-.23ZM111.6,71.29a9.8,9.8,0,1,1,9.79-9.79A9.8,9.8,0,0,1,111.6,71.29Z"/><path class="cls-1" d="M15.78,40H5.47a5.61,5.61,0,1,1,0-11.21H15.78a5.61,5.61,0,1,1,0,11.21Z"/><path class="cls-1" d="M34.13,21.64A5.61,5.61,0,0,1,28.52,16V5.72a5.61,5.61,0,1,1,11.22,0V16A5.61,5.61,0,0,1,34.13,21.64Z"/><path class="cls-1" d="M9.29,64.82a5.54,5.54,0,0,1-4-1.64,5.6,5.6,0,0,1,0-7.93L17.25,43.37a5.61,5.61,0,0,1,7.93,7.94L13.25,63.18A5.55,5.55,0,0,1,9.29,64.82Z"/><path class="cls-1" d="M47,27.1a5.61,5.61,0,0,1-4-9.57L55,5.65a5.61,5.61,0,1,1,7.93,7.93L51,25.46A5.62,5.62,0,0,1,47,27.1Z"/><path class="cls-1" d="M26.77,21.35a5.61,5.61,0,0,1-9.57,4L5.33,13.4a5.61,5.61,0,0,1,7.93-7.93L25.13,17.39A5.57,5.57,0,0,1,26.77,21.35Z"/></svg>