<?xml version="1.0" encoding="utf-8"?>
<!-- Generator: Adobe Illustrator 15.1.0, SVG Export Plug-In . SVG Version: 6.00 Build 0)  -->
<!DOCTYPE svg PUBLIC "-//W3C//DTD SVG 1.1//EN" "http://www.w3.org/Graphics/SVG/1.1/DTD/svg11.dtd">
<svg version="1.1" id="Layer_1" xmlns="http://www.w3.org/2000/svg" xmlns:xlink="http://www.w3.org/1999/xlink" x="0px" y="0px"
	 width="841.889px" height="130.096px" viewBox="0 0 841.889 130.096" enable-background="new 0 0 841.889 130.096"
	 xml:space="preserve">
<g>
	<path fill="#B3A075" d="M384.66,82.425l13.366-37.314h12.476l13.364,37.314H411.67l-1.447-4.901h-12.196l-1.392,4.901H384.66z
		 M404.154,56.36l-3.789,13.365h7.742L404.154,56.36z"/>
	<path fill="#B3A075" d="M451.325,59.366c-0.167-1.948-0.835-3.452-2.006-4.509c-1.168-1.057-2.673-1.56-4.621-1.56
		c-2.173,0-3.9,0.891-5.069,2.728c-1.225,1.782-1.839,4.512-1.839,8.133c0,1.336,0.111,2.563,0.28,3.785
		c0.167,1.227,0.556,2.341,1.059,3.232c0.5,0.945,1.28,1.67,2.226,2.227c0.949,0.559,2.229,0.837,3.79,0.837
		c1.948,0,3.452-0.613,4.453-1.839c1.004-1.225,1.616-2.728,1.839-4.511h11.751c-0.278,2.396-0.89,4.566-1.895,6.461
		c-0.945,1.893-2.226,3.509-3.73,4.845c-1.562,1.337-3.341,2.34-5.403,3.063c-2.062,0.725-4.344,1.059-6.793,1.059
		c-3.063,0-5.849-0.446-8.299-1.392c-2.45-0.892-4.512-2.229-6.237-3.954c-1.728-1.728-3.006-3.788-3.9-6.182
		c-0.891-2.396-1.336-5.125-1.336-8.188c0-3.007,0.503-5.737,1.447-8.13c0.949-2.396,2.284-4.454,3.956-6.18
		c1.67-1.672,3.62-3.01,5.905-3.901c2.283-0.891,4.675-1.391,7.294-1.391c5.681,0,10.137,1.335,13.312,4.01
		c3.174,2.671,4.958,6.404,5.459,11.193h-11.641L451.325,59.366L451.325,59.366z"/>
	<polygon fill="#B3A075" points="468.701,82.425 468.701,45.11 499.109,45.11 499.109,53.799 480.897,53.799 480.897,59.144 
		496.323,59.144 496.323,67.832 480.897,67.832 480.897,73.679 499.835,73.679 499.835,82.425 	"/>
	<polygon fill="#B3A075" points="506.128,82.425 506.128,45.11 518.324,45.11 518.324,73.679 535.144,73.679 535.144,82.425 	"/>
	<path fill="#B3A075" d="M540.38,45.11h12.251v22.332c0,0.947,0.056,1.839,0.167,2.675c0.111,0.834,0.39,1.558,0.835,2.171
		c0.391,0.613,1.001,1.112,1.783,1.503c0.78,0.392,1.78,0.558,3.008,0.558c1.112,0,2.002-0.166,2.729-0.502
		c0.723-0.334,1.334-0.78,1.781-1.392c0.444-0.612,0.78-1.335,0.946-2.171c0.166-0.838,0.278-1.783,0.278-2.786V45.166h12.254
		v21.107c0,5.96-1.449,10.361-4.346,13.088c-2.896,2.729-7.405,4.122-13.587,4.122c-2.897,0-5.459-0.278-7.687-0.892
		c-2.23-0.558-4.122-1.559-5.626-2.951c-1.503-1.336-2.674-3.117-3.452-5.348c-0.78-2.172-1.169-4.9-1.169-8.131V45.11H540.38
		L540.38,45.11z"/>
	<path fill="#B3A075" d="M596.295,63.991c-1.282,0-2.452-0.224-3.509-0.726c-1.115-0.501-2.061-1.114-2.84-1.95
		c-0.836-0.836-1.449-1.782-1.951-2.894c-0.444-1.115-0.723-2.286-0.723-3.511c0-1.224,0.223-2.395,0.723-3.508
		c0.445-1.113,1.114-2.061,1.951-2.896c0.836-0.837,1.78-1.448,2.84-1.949c1.112-0.502,2.282-0.725,3.509-0.725
		c1.224,0,2.395,0.223,3.508,0.725c1.113,0.445,2.061,1.112,2.841,1.949c0.834,0.837,1.445,1.782,1.95,2.896
		c0.5,1.113,0.723,2.284,0.723,3.508c0,1.226-0.223,2.396-0.723,3.511c-0.505,1.111-1.116,2.06-1.95,2.894
		c-0.836,0.836-1.785,1.449-2.841,1.95C598.689,63.767,597.519,63.991,596.295,63.991 M596.295,61.817
		c0.944,0,1.836-0.167,2.672-0.501c0.836-0.335,1.502-0.837,2.116-1.392c0.613-0.615,1.058-1.337,1.392-2.175
		c0.336-0.833,0.503-1.781,0.503-2.783c0-1.001-0.167-1.948-0.503-2.782c-0.334-0.837-0.778-1.561-1.392-2.174
		c-0.614-0.612-1.28-1.059-2.116-1.447c-0.836-0.334-1.672-0.501-2.672-0.501c-1.005,0-1.896,0.167-2.729,0.501
		c-0.833,0.333-1.505,0.837-2.117,1.447c-0.557,0.613-1.057,1.337-1.336,2.174c-0.334,0.835-0.503,1.781-0.503,2.782
		c0,1.002,0.169,1.95,0.503,2.783c0.335,0.838,0.781,1.56,1.336,2.175c0.557,0.612,1.282,1.057,2.117,1.392
		C594.402,61.65,595.289,61.817,596.295,61.817 M600.747,59.869h-2.337l-2.173-4.123h-1.616v4.123h-2.061v-9.746h4.733
		c1.281,0,2.229,0.223,2.84,0.612c0.612,0.446,0.945,1.225,0.945,2.34c0,0.891-0.222,1.56-0.669,1.948
		c-0.444,0.392-1.11,0.614-1.946,0.67L600.747,59.869z M597.295,54.3c0.558,0,1.002-0.056,1.338-0.278
		c0.334-0.167,0.502-0.614,0.502-1.169c0-0.335-0.056-0.557-0.224-0.781c-0.167-0.167-0.334-0.278-0.557-0.334
		c-0.225-0.056-0.504-0.111-0.782-0.111h-0.78h-2.228v2.672h2.73V54.3z"/>
	<path fill="#B3A075" d="M318.385,33.024c-1.001-1.727,7.464-6.96,3.508-13.533c-7.519-0.557-9.913,8.688-7.072,14.759
		c-1.171,0.278-2.952,2.896-3.508,1.781c2.95-4.063,2.337-13.811-3.566-14.145c-5.011,4.064-1.113,13.755,2.339,16.483
		c-0.725,1.392-2.173,2.174-1.781,4.733c0.39,1.17,3.286-0.11,3.508,1.17c-4.513,1.002-7.13,3.898-7.688,8.854
		c8.521,0.445,11.863-4.289,14.147-10.024c-1.057-0.333-3.452,0.725-3.563-0.611c5.012-1.505,7.684-5.292,8.855-10.582
		c-1.561,0.39-3.675,0.223-4.735,1.168h-0.445V33.024L318.385,33.024z"/>
	<path fill="#B3A075" d="M305.966,34.194v-0.557c-4.735-7.241-8.243,6.906-4.124,10.638c-1.613-0.392-1.447-2.453-3.508-2.342
		c-4.176,2.674-3.063,9.913-0.612,13.59c-1.728-0.445-1.505-2.783-4.122-2.34c-1.56,1.225-1.839,3.678-2.95,5.292
		c-15.931-10.137-42.606-7.687-43.051,14.757c0.779,1.17,2.506-1.782,2.952-2.95v-0.613c2.783-3.287,5.848-6.293,10.022-8.241h0.613
		c0.892-0.112,2.173,0.222,2.339-0.615h0.613h4.124h0.612c0.892,0.892,2.563,0.947,4.12,1.17h0.616
		c6.07,3.342,13.643,5.235,19.435,8.854c-0.222,2.118-1.558,3.121-1.168,5.906v0.612c-1.279-0.111-0.279,2.117-0.612,2.951v0.558
		c-1.004,3.954-1.004,11.974,0,15.928v0.614c0.167,3.174,0.612,6.07,1.78,8.241v0.614c0.783,4.956,1.728,9.634,6.463,10.637
		c-0.837-1.67,1.614-3.008,0-3.563v-0.559c-0.561-6.349-1.449-14.702,1.167-19.438c1.672,8.133,1.447,18.213,9.413,20.05
		c-1.335-4.123-3.23-7.798-4.733-11.806v-0.614c-1.226-5.793-0.336-12.865,0-18.88c-7.296-0.224-6.796,7.352-10.638,10.638
		c-0.056-7.52-0.333-15.26,2.952-19.438c13.086,1.504,28.293,22.334,44.219,16.486c7.297-2.673,10.137-12.143,13.535-20.05
		c-5.458,3.342-6.182,11.528-14.146,12.364h-0.612c-14.092-3.619-24.674-10.694-35.979-17.099c2.228-2.729,6.573-6.236,4.733-11.193
		c-3.897-0.891-6.07,2.951-7.687,2.337c1.45-3.116,1.95-7.685,0.615-10.581c1.057,0.502,1.502,1.672,3.508,1.17
		c1.002-3.954,4.01-9.135,0-11.806v-0.726h0.112V34.194z"/>
	<path fill="#B3A075" d="M301.677,4.732c33.25,0,60.316,27.064,60.316,60.315c0,33.25-27.066,60.316-60.316,60.316
		c-33.248,0-60.314-27.066-60.314-60.316C241.307,31.799,268.373,4.732,301.677,4.732 M301.677,0
		c-35.977,0-65.104,29.126-65.104,65.048s29.127,65.048,65.049,65.048c35.923,0,65.051-29.126,65.051-65.048
		C366.728,29.126,337.6,0,301.677,0"/>
</g>
</svg>
