<?xml version="1.0" encoding="utf-8"?>
<!-- Generator: Adobe Illustrator 24.3.0, SVG Export Plug-In . SVG Version: 6.00 Build 0)  -->
<svg version="1.1" id="Capa_1" xmlns="http://www.w3.org/2000/svg" xmlns:xlink="http://www.w3.org/1999/xlink" x="0px" y="0px"
	 viewBox="0 0 189 46.2" style="enable-background:new 0 0 189 46.2;" xml:space="preserve">
<style type="text/css">
	.st0{fill:#FFFFFF;}
	.st1{fill-rule:evenodd;clip-rule:evenodd;fill:#FFFFFF;}
</style>
<g>
	<g>
		<path class="st0" d="M12.3,38.1l2.1-5.9h2l2.1,5.9h-1.9l-0.2-0.8h-1.9l-0.2,0.8H12.3z M15.3,34l-0.6,2.1H16L15.3,34z"/>
		<path class="st0" d="M22.8,34.5c0-0.3-0.1-0.6-0.3-0.7c-0.2-0.2-0.4-0.3-0.7-0.3c-0.3,0-0.6,0.1-0.8,0.4c-0.2,0.3-0.3,0.7-0.3,1.3
			c0,0.2,0,0.4,0,0.6c0,0.2,0.1,0.4,0.2,0.5c0.1,0.1,0.2,0.3,0.4,0.4c0.2,0.1,0.4,0.1,0.6,0.1c0.3,0,0.5-0.1,0.7-0.3
			c0.2-0.2,0.3-0.4,0.3-0.7h1.9c0,0.4-0.1,0.7-0.3,1c-0.2,0.3-0.4,0.6-0.6,0.8c-0.2,0.2-0.5,0.4-0.9,0.5c-0.3,0.1-0.7,0.2-1.1,0.2
			c-0.5,0-0.9-0.1-1.3-0.2c-0.4-0.1-0.7-0.4-1-0.6c-0.3-0.3-0.5-0.6-0.6-1c-0.1-0.4-0.2-0.8-0.2-1.3c0-0.5,0.1-0.9,0.2-1.3
			c0.2-0.4,0.4-0.7,0.6-1c0.3-0.3,0.6-0.5,0.9-0.6c0.4-0.1,0.8-0.2,1.2-0.2c0.9,0,1.6,0.2,2.1,0.6c0.5,0.4,0.8,1,0.9,1.8H22.8z"/>
		<polygon class="st0" points="25.6,38.1 25.6,32.2 30.4,32.2 30.4,33.6 27.5,33.6 27.5,34.5 29.9,34.5 29.9,35.8 27.5,35.8 
			27.5,36.8 30.5,36.8 30.5,38.1 		"/>
		<polygon class="st0" points="31.5,38.1 31.5,32.2 33.4,32.2 33.4,36.8 36.1,36.8 36.1,38.1 		"/>
		<path class="st0" d="M36.9,32.2h1.9v3.5c0,0.1,0,0.3,0,0.4c0,0.1,0.1,0.2,0.1,0.3c0.1,0.1,0.2,0.2,0.3,0.2
			c0.1,0.1,0.3,0.1,0.5,0.1c0.2,0,0.3,0,0.4-0.1c0.1-0.1,0.2-0.1,0.3-0.2c0.1-0.1,0.1-0.2,0.1-0.3c0-0.1,0-0.3,0-0.4v-3.5h1.9v3.3
			c0,0.9-0.2,1.6-0.7,2.1c-0.5,0.4-1.2,0.7-2.2,0.7c-0.5,0-0.9,0-1.2-0.1c-0.4-0.1-0.6-0.2-0.9-0.5c-0.2-0.2-0.4-0.5-0.6-0.9
			c-0.1-0.3-0.2-0.8-0.2-1.3V32.2z"/>
		<path class="st0" d="M45.8,35.2c-0.2,0-0.4,0-0.6-0.1c-0.2-0.1-0.3-0.2-0.5-0.3c-0.1-0.1-0.2-0.3-0.3-0.5
			c-0.1-0.2-0.1-0.4-0.1-0.6c0-0.2,0-0.4,0.1-0.6c0.1-0.2,0.2-0.3,0.3-0.5c0.1-0.1,0.3-0.2,0.5-0.3c0.2-0.1,0.4-0.1,0.6-0.1
			c0.2,0,0.4,0,0.6,0.1c0.2,0.1,0.3,0.2,0.5,0.3c0.1,0.1,0.2,0.3,0.3,0.5c0.1,0.2,0.1,0.4,0.1,0.6c0,0.2,0,0.4-0.1,0.6
			c-0.1,0.2-0.2,0.3-0.3,0.5c-0.1,0.1-0.3,0.2-0.5,0.3C46.1,35.2,45.9,35.2,45.8,35.2 M45.8,34.9c0.2,0,0.3,0,0.4-0.1
			c0.1-0.1,0.2-0.1,0.3-0.2c0.1-0.1,0.2-0.2,0.2-0.3c0.1-0.1,0.1-0.3,0.1-0.4c0-0.2,0-0.3-0.1-0.4c-0.1-0.1-0.1-0.2-0.2-0.3
			c-0.1-0.1-0.2-0.2-0.3-0.2c-0.1-0.1-0.3-0.1-0.4-0.1c-0.2,0-0.3,0-0.4,0.1c-0.1,0.1-0.2,0.1-0.3,0.2c-0.1,0.1-0.2,0.2-0.2,0.3
			c0,0.1-0.1,0.3-0.1,0.4c0,0.2,0,0.3,0.1,0.4c0.1,0.1,0.1,0.2,0.2,0.3c0.1,0.1,0.2,0.2,0.3,0.2C45.5,34.9,45.6,34.9,45.8,34.9
			 M46.5,34.6h-0.4l-0.3-0.7h-0.3v0.7h-0.3V33h0.7c0.2,0,0.4,0,0.5,0.1c0.1,0.1,0.1,0.2,0.1,0.4c0,0.1,0,0.2-0.1,0.3
			c-0.1,0.1-0.2,0.1-0.3,0.1L46.5,34.6z M45.9,33.7c0.1,0,0.2,0,0.2,0c0.1,0,0.1-0.1,0.1-0.2c0-0.1,0-0.1,0-0.1c0,0-0.1,0-0.1-0.1
			c0,0-0.1,0-0.1,0h-0.1h-0.3v0.4H45.9z"/>
		<path class="st1" d="M32.3,15.3c-0.1-0.3,1.1-1,0.5-2.1c-1.1-0.1-1.5,1.3-1.1,2.2c-0.2,0-0.4,0.4-0.5,0.3c0.5-0.6,0.4-2.1-0.5-2.2
			c-0.8,0.6-0.2,2.1,0.4,2.5c-0.1,0.2-0.3,0.3-0.3,0.7c0.1,0.2,0.5,0,0.5,0.2c-0.7,0.2-1.1,0.6-1.2,1.3c1.3,0.1,1.8-0.7,2.1-1.5
			c-0.2,0-0.5,0.1-0.5-0.1c0.8-0.2,1.2-0.8,1.3-1.6C32.8,15.1,32.5,15.1,32.3,15.3L32.3,15.3z"/>
		<path class="st1" d="M30.4,15.4L30.4,15.4c-0.7-1.2-1.3,1-0.6,1.5c-0.2-0.1-0.2-0.4-0.5-0.4c-0.6,0.4-0.5,1.5-0.1,2.1
			c-0.3-0.1-0.2-0.4-0.6-0.4c-0.2,0.2-0.3,0.6-0.4,0.8c-2.4-1.5-6.5-1.2-6.5,2.2c0.1,0.2,0.4-0.3,0.4-0.4v-0.1
			c0.4-0.5,0.9-1,1.5-1.2h0.1c0.1,0,0.3,0,0.4-0.1H24h0.6h0.1c0.1,0.1,0.4,0.1,0.6,0.2h0.1c0.9,0.5,2.1,0.8,2.9,1.3
			c0,0.3-0.2,0.5-0.2,0.9V22c-0.2,0,0,0.3-0.1,0.4v0.1c-0.1,0.6-0.1,1.8,0,2.4V25c0,0.5,0.1,0.9,0.3,1.3v0.1c0.1,0.7,0.3,1.5,1,1.6
			c-0.1-0.3,0.3-0.5,0-0.5v-0.1c-0.1-1-0.2-2.2,0.2-2.9c0.3,1.2,0.2,2.8,1.4,3c-0.2-0.6-0.5-1.2-0.7-1.8v-0.1
			c-0.2-0.9-0.1-1.9,0-2.9c-1.1,0-1,1.1-1.6,1.6c0-1.1-0.1-2.3,0.4-2.9c2,0.2,4.3,3.4,6.7,2.5c1.1-0.4,1.5-1.8,2.1-3
			c-0.8,0.5-0.9,1.7-2.1,1.9h-0.1c-2.1-0.5-3.7-1.6-5.5-2.6c0.3-0.4,1-0.9,0.7-1.7c-0.6-0.1-0.9,0.4-1.2,0.4
			c0.2-0.5,0.3-1.2,0.1-1.6c0.2,0.1,0.2,0.3,0.5,0.2C30.5,16.7,31,15.9,30.4,15.4L30.4,15.4z"/>
		<path class="st0" d="M29.7,11c5,0,9.1,4.1,9.1,9.1c0,5-4.1,9.1-9.1,9.1c-5,0-9.1-4.1-9.1-9.1C20.6,15.1,24.7,11,29.7,11
			 M29.7,10.3c-5.4,0-9.9,4.4-9.9,9.9c0,5.4,4.4,9.9,9.9,9.9c5.4,0,9.9-4.4,9.9-9.9C39.6,14.7,35.2,10.3,29.7,10.3"/>
	</g>
	<g>
		<path class="st0" d="M69.5,32.3h-6.6v-0.5l0.8-0.5V20.6L63,20.1v-0.5h3.3v0.5l-0.7,0.5v10c0,0.3-0.1,0.5-0.4,0.6v0.1h2.9l0.6-1.7
			h0.8V32.3z"/>
		<path class="st0" d="M73.2,20.6v10.7l0.8,0.5v0.5h-3.4v-0.5l0.8-0.5V20.6l-0.7-0.5v-0.5h3.2v0.5L73.2,20.6z"/>
		<path class="st0" d="M82.9,27.6v2.1c0,0.9-0.3,1.5-0.8,2s-1.3,0.6-2.4,0.6h-4.2v-0.5l0.8-0.5V20.6l-0.7-0.5v-0.5h4
			c0.9,0,1.6,0.2,2.1,0.5s0.7,0.9,0.7,1.8v1.8c0,0.4-0.1,0.7-0.3,1c-0.2,0.3-0.4,0.5-0.7,0.7C82.4,25.8,82.9,26.5,82.9,27.6z
			 M77.8,31.2h1.9c0.9,0,1.4-0.5,1.4-1.5v-2.1c0-0.5-0.1-0.9-0.4-1.2S80,26,79.4,26h-1.3v4.5C78.1,30.9,78,31.1,77.8,31.2L77.8,31.2
			z M79.5,25.1c0.8,0,1.1-0.5,1.1-1.4v-1.8c0-0.4-0.1-0.7-0.3-0.9s-0.5-0.4-0.8-0.4h-1.3v4.5H79.5z"/>
		<path class="st0" d="M89.8,30.7l-0.9-2.3c-0.2-0.5-0.4-0.8-0.6-1c-0.2-0.2-0.6-0.2-1.1-0.2v4.2l0.8,0.5v0.5h-3.4v-0.5l0.8-0.5
			V20.6l-0.7-0.5v-0.5h3.7c1.1,0,1.9,0.2,2.6,0.7c0.6,0.5,1,1.2,1,2.3v1.7c0,0.8-0.2,1.4-0.6,1.8c-0.4,0.5-0.9,0.7-1.5,0.9
			c0.5,0.2,0.8,0.6,1,1.2l0.9,2.3c0.3,0.8,0.7,1.2,1.1,1.1v0.7c-0.3,0.2-0.8,0.2-1.3,0.2c-0.2,0-0.3,0-0.5-0.1
			c-0.1-0.1-0.3-0.1-0.3-0.2c-0.1,0-0.2-0.2-0.3-0.3s-0.2-0.3-0.2-0.3s-0.1-0.2-0.2-0.4C89.8,30.9,89.8,30.7,89.8,30.7z M88.3,20.7
			h-1.2V26h1.2c1.1,0,1.7-0.6,1.7-1.8v-1.7c0-0.6-0.1-1.1-0.4-1.4C89.3,20.9,88.9,20.7,88.3,20.7z"/>
		<path class="st0" d="M100.5,32.3h-6.8v-0.5l0.8-0.5V20.5l-0.7-0.5v-0.5h6.5v2.8h-0.9l-0.5-1.8h-2.5v4.8h1.7l0.5-1h0.5v3.1h-0.5
			l-0.5-1h-1.7v4c0,0.3-0.1,0.5-0.4,0.6v0.1h3.1l0.6-1.7h0.8V32.3z"/>
		<path class="st0" d="M104,29.7c0,1,0.4,1.5,1.3,1.5c0.9,0,1.4-0.5,1.4-1.5v-1.5c0-0.4-0.2-0.8-0.5-1.1c-0.3-0.3-0.7-0.5-1.1-0.7
			c-0.4-0.2-0.9-0.3-1.4-0.5c-0.5-0.2-0.8-0.5-1.2-0.9c-0.3-0.4-0.5-0.9-0.5-1.5v-1.5c0-0.9,0.3-1.6,0.8-2s1.2-0.6,2-0.6
			c0.9,0,1.6,0.3,2.1,0.8h0.1l0.1-0.7h1.2V23h-1.9v-0.9c0-0.4-0.1-0.8-0.4-1s-0.6-0.4-1-0.4c-0.9,0-1.3,0.5-1.3,1.4v1.5
			c0,0.4,0.2,0.7,0.5,1c0.3,0.3,0.7,0.5,1.2,0.6c0.4,0.2,0.9,0.3,1.4,0.5c0.5,0.2,0.8,0.5,1.2,0.9c0.3,0.4,0.5,0.9,0.5,1.5v1.6
			c0,0.9-0.3,1.6-1,2.1c-0.7,0.5-1.5,0.7-2.4,0.7c-0.9,0-1.7-0.2-2.3-0.7c-0.6-0.5-0.9-1.2-0.9-2.1v-1h2.1V29.7z"/>
		<path class="st0" d="M113.9,19.6h3.8c2.4,0,3.6,1.1,3.6,3.3V29c0,1.1-0.3,1.9-1,2.5c-0.7,0.6-1.5,0.9-2.7,0.9h-3.9v-0.5l0.8-0.5
			V20.7l-0.7-0.5V19.6z M117.7,20.7h-1.2v9.8c0,0.3-0.1,0.5-0.4,0.6l0,0.1h1.6c1.2,0,1.8-0.7,1.8-2.2v-6.1
			C119.5,21.4,118.9,20.7,117.7,20.7z"/>
		<path class="st0" d="M130,32.3h-6.8v-0.5l0.8-0.5V20.5l-0.7-0.5v-0.5h6.5v2.8h-0.9l-0.5-1.8h-2.5v4.8h1.7l0.5-1h0.5v3.1h-0.5
			l-0.5-1h-1.7v4c0,0.3-0.1,0.5-0.4,0.6v0.1h3.1l0.6-1.7h0.8V32.3z"/>
		<path class="st0" d="M137.3,22.9v6.2c0,1.5,0.6,2.2,1.7,2.2c1.1,0,1.7-0.7,1.7-2v-1.4l-1.1-0.6v-0.5h3v5.6h-1.2l-0.2-0.9
			c-0.4,0.7-1.2,1.1-2.2,1.1c-1.1,0-2-0.3-2.7-0.9c-0.7-0.6-1-1.4-1-2.5v-6.2c0-1.1,0.4-1.9,1.1-2.5c0.7-0.6,1.5-0.9,2.5-0.9
			c1,0,1.7,0.3,2.2,0.8h0.1l0.1-0.7h1.3v3.5h-1.9v-1c0-0.5-0.2-0.9-0.5-1.1c-0.3-0.2-0.7-0.4-1.2-0.4s-0.9,0.2-1.2,0.5
			C137.4,21.6,137.3,22.1,137.3,22.9z"/>
		<path class="st0" d="M151,32.3h-6.6v-0.5l0.8-0.5V20.6l-0.7-0.5v-0.5h3.3v0.5l-0.7,0.5v10c0,0.3-0.1,0.5-0.4,0.6v0.1h2.9l0.6-1.7
			h0.8V32.3z"/>
		<path class="st0" d="M156.3,31.2c0.6,0,1.1-0.2,1.4-0.5c0.3-0.3,0.4-0.9,0.4-1.6v-8.4l-0.7-0.5v-0.6h2.7v0.6l-0.7,0.5v8.5
			c0,1.2-0.3,2-0.9,2.6c-0.6,0.6-1.4,0.8-2.5,0.8c-1,0-1.8-0.3-2.5-0.9c-0.6-0.6-1-1.4-1-2.5v-8.4l-0.8-0.5v-0.5h3.5v0.5l-0.8,0.5
			v8.4C154.6,30.5,155.2,31.2,156.3,31.2z"/>
		<path class="st0" d="M167.2,20.7h-1.3v10.4l0.8,0.6v0.6h-3.5v-0.6l0.8-0.6V20.7h-1.4l-0.6,2.1h-0.9l0.1-3.2h7.4l0.1,3.2h-0.9
			L167.2,20.7z"/>
		<path class="st0" d="M176.6,32.3h-6.8v-0.5l0.8-0.5V20.5l-0.7-0.5v-0.5h6.5v2.8h-0.9l-0.5-1.8h-2.5v4.8h1.7l0.5-1h0.5v3.1h-0.5
			l-0.5-1h-1.7v4c0,0.3-0.1,0.5-0.4,0.6v0.1h3.1l0.6-1.7h0.8V32.3z"/>
		<path class="st0" d="M180.1,31.3l0.8,0.5v0.6h-2.8v-0.6l0.8-0.5V20.6l-0.7-0.5v-0.5h2.1c0.4,0,0.7,0,0.8,0.1s0.2,0.3,0.3,0.6
			l1.8,5.7l0.8,3.6h0c0-0.3,0-0.8,0-1.5c0-0.7,0-1.2,0-1.5v-5.9l-0.7-0.5v-0.6h2.7v0.6l-0.7,0.5v11.7h-1.6c-0.4,0-0.7-0.2-0.8-0.6
			l-3-10.2l-0.1,0l0.2,1.8V31.3z"/>
	</g>
</g>
</svg>
