<?xml version="1.0" encoding="utf-8"?>
<!-- Generator: Adobe Illustrator 23.0.6, SVG Export Plug-In . SVG Version: 6.00 Build 0)  -->
<svg version="1.1" id="Capa_1" xmlns="http://www.w3.org/2000/svg" xmlns:xlink="http://www.w3.org/1999/xlink" x="0px" y="0px"
	 viewBox="0 0 2834.6 1006.5" style="enable-background:new 0 0 2834.6 1006.5;" xml:space="preserve">
<style type="text/css">
	.st0{fill:#BAA378;}
	.st1{fill:#E6DBCA;}
	.st2{fill:#B09A66;}
</style>
<g>
	<g>
		<path class="st0" d="M564.7,226.8c-25.4-21.3-32.1-49.3-32.1-73.3c0-16.9,5.5-46.1,30.1-68c18.7-16.3,43.2-26.3,81.4-26.3
			c16,0,25.7,1.2,37.4,2.6c9.6,1.5,18.1,3.2,25.7,4.1c2.9,0.3,3.8,1.5,3.8,2.9c0,2-0.6,5-1.2,13.7c-0.6,8.2-0.6,21.9-0.9,26.8
			c-0.3,3.5-1.2,6.1-3.5,6.1c-2,0-2.6-2-2.6-5.3c-0.3-7.9-3.5-16.6-9.9-23.1c-8.8-8.5-26-14.6-49.6-14.6c-22.5,0-36.8,4.1-48.4,14
			c-19,16.3-23.6,40.3-23.6,64.5c0,59,45.5,87,80,87c22.8,0,35.3-1.7,45.5-13.1c4.4-5,7.9-12,8.8-16.6c0.6-3.8,1.2-5,3.2-5
			c1.8,0,2.9,2.3,2.9,4.4c0,2.9-2.9,24.5-5.5,33c-1.2,4.4-2.3,5.5-6.7,7.3c-10.2,4.1-29.8,5.5-46.4,5.5
			C617.8,253.7,588,246.4,564.7,226.8z"/>
	</g>
	<g>
		<path class="st0" d="M931.4,143.7c0.6,0,1.5-0.3,1.5-1.8v-5.2c0-37.7-0.3-46.7-0.6-54.6c-0.6-8.5-2.9-11.1-11.1-13.4
			c-2-0.6-6.4-0.9-9.9-0.9c-2.9,0-4.4-0.9-4.4-2.6c0-1.7,1.7-2.3,5.5-2.3c13.7,0,31.8,0.6,38.5,0.6c6.1,0,23.1-0.6,33-0.6
			c3.8,0,5.5,0.6,5.5,2.3c0,1.8-1.8,2.6-4.7,2.6c-2,0-4.4,0.3-7.6,0.9c-6.7,1.2-8.8,4.7-9.3,13.4c-0.6,7.9-0.6,14.9-0.6,52.5v43.8
			c0,22.8,0,42.3,1.2,53.1c0.9,7,2.3,11.7,10.2,12.8c3.5,0.6,9,0.9,13.1,0.9c2.6,0,4.1,1.5,4.1,2.6c0,1.7-2,2.6-5.3,2.6
			c-16.6,0-33.6-0.9-40.6-0.9c-5.8,0-23.9,0.9-33.9,0.9c-3.5,0-5.5-0.9-5.5-2.6c0-1.2,1.2-2.6,4.1-2.6c4.1,0,7-0.3,9.3-0.9
			c5.3-1.2,6.7-5.8,7.6-13.1c1.2-10.5,1.2-29.5,1.2-52.2v-19c0-0.9-0.9-1.5-1.5-1.5h-96.9c-0.9,0-1.8,0.3-1.8,1.5v19
			c0,22.8,0.3,41.7,1.5,52.5c0.9,7,2.3,11.7,9.9,12.8c3.5,0.6,9.3,0.9,13.1,0.9c2.9,0,4.1,1.5,4.1,2.6c0,1.7-2,2.6-5.2,2.6
			c-16.6,0-34.4-0.9-41.7-0.9c-5.8,0-22.8,0.9-33,0.9c-3.2,0-5-0.9-5-2.6c0-1.2,0.9-2.6,4.1-2.6c3.8,0,6.7-0.3,9-0.9
			c5.3-1.2,6.7-5.8,7.6-13.1c1.2-10.5,1.2-30.1,1.2-52.8v-43.8c0-37.6,0-44.6-0.3-52.5c-0.6-8.5-2.9-11.1-11.1-13.4
			c-2-0.6-6.4-0.9-10.2-0.9c-2.6,0-4.4-0.9-4.4-2.6c0-1.7,2-2.3,5.5-2.3c13.7,0,30.6,0.6,37.6,0.6c6.1,0,23.9-0.6,34.1-0.6
			c3.5,0,5.2,0.6,5.2,2.3c0,1.8-1.5,2.6-4.7,2.6c-2,0-4.4,0.3-7.3,0.9c-7,1.2-9.1,4.7-9.6,13.4c-0.6,7.9-0.6,16.9-0.6,54.6v5.2
			c0,1.5,0.9,1.8,1.8,1.8H931.4z"/>
	</g>
	<g>
		<path class="st0" d="M1055.3,156.5c0-42.3,29.8-97.2,107.7-97.2c64.8,0,105.1,35.9,105.1,92.8c0,56.9-41.4,101.6-107.7,101.6
			C1085.7,253.7,1055.3,200.6,1055.3,156.5z M1229.8,161.2c0-54.9-33-88.7-74.4-88.7c-28.6,0-62.2,15.2-62.2,76.5
			c0,51.1,29.2,91.3,77.6,91.3C1189,240.2,1229.8,231.8,1229.8,161.2z"/>
	</g>
	<g>
		<path class="st0" d="M1356.7,134.6c0-37.6,0-44.6-0.3-52.5c-0.6-8.5-2.9-11.1-11.1-13.4c-2-0.6-6.4-0.9-10.2-0.9
			c-2.6,0-4.4-0.9-4.4-2.6c0-1.7,2-2.3,5.8-2.3c13.4,0,29.8,0.6,35,0.6c8.8,0,32.1-0.6,40-0.6c16.4,0,35,1.5,48.7,10.5
			c7.3,5,18.1,17.5,18.1,34.1c0,18.4-10.5,34.7-35.6,54.9c22.8,28,40.8,50.5,56.3,65.9c14.3,14.3,23.4,15.5,27.4,16.3
			c2.6,0.6,4.1,0.6,6.1,0.6c2,0,3.2,1.5,3.2,2.6c0,2-1.7,2.6-5,2.6h-24.5c-14.3,0-21.3-1.5-28-5c-11.1-5.5-20.7-17.2-35-36.5
			c-10.2-13.4-21-30.1-24.2-33.9c-1.5-1.5-2.9-1.7-4.7-1.7l-23-0.6c-1.2,0-2,0.6-2,2v3.5c0,23.1,0.3,42.3,1.5,52.8
			c0.9,7.3,2,12,9.9,13.1c3.8,0.6,9.3,0.9,12.6,0.9c2,0,3.2,1.5,3.2,2.6c0,1.7-2,2.6-5.2,2.6c-14.9,0-36.2-0.9-40-0.9
			c-5,0-21.3,0.9-31.5,0.9c-3.2,0-5-0.9-5-2.6c0-1.2,0.9-2.6,4.1-2.6c3.8,0,6.7-0.3,9-0.9c5.3-1.2,6.7-5.8,7.6-13.1
			c1.2-10.5,1.2-30.1,1.2-52.8V134.6z M1389.4,153.9c0,2.6,0.6,3.5,2.3,4.4c5.5,1.7,13.1,2.3,19.6,2.3c10.2,0,13.7-0.9,18.1-4.1
			c7.9-5.5,16.6-16.3,16.6-36.8c0-35-23.9-44.1-39.1-44.1c-6.4,0-12.5,0.3-15.2,0.9c-1.7,0.6-2.3,1.5-2.3,3.5V153.9z"/>
	</g>
	<g>
		<path class="st0" d="M1588.9,134.6c0-37.6,0-44.6-0.3-52.5c-0.6-8.5-3.2-11.4-8.8-13.1c-2.9-0.9-6.1-1.2-9.3-1.2
			c-2.6,0-4.1-0.6-4.1-2.9c0-1.5,2-2,6.1-2c9.6,0,27.1,0.6,34.4,0.6c6.4,0,23-0.6,33-0.6c3.2,0,5.3,0.6,5.3,2c0,2.3-1.5,2.9-4.1,2.9
			c-2.6,0-4.7,0.3-7.6,0.9c-7,1.2-9.1,4.7-9.6,13.4c-0.6,7.9-0.6,14.9-0.6,52.5v43.8c0,23.9,0,43.8,1.2,54.3
			c0.9,6.7,2.6,10.5,10.2,11.7c3.5,0.6,9.3,0.9,13.1,0.9c2.9,0,4.1,1.5,4.1,2.6c0,1.7-2,2.6-5,2.6c-16.9,0-34.4-0.9-41.4-0.9
			c-5.8,0-23.3,0.9-33.6,0.9c-3.2,0-4.9-0.9-4.9-2.6c0-1.2,0.9-2.6,4.1-2.6c3.8,0,6.7-0.3,9-0.9c5.3-1.2,6.7-4.7,7.6-12
			c1.2-10.2,1.2-30.1,1.2-54V134.6z"/>
	</g>
	<g>
		<path class="st0" d="M1817.9,234.7c26.3,0,35.3-5.3,39.7-12.8c2-3.8,3.8-7.9,4.7-11.4c0.6-2.6,1.2-4.1,2.9-4.1
			c2,0,2.6,1.7,2.6,7.6c0,8.2-3.2,24.2-5,30.4c-1.5,4.4-3.2,6.4-7.9,6.4c-42.9,0-86.4-1.2-138.3-1.2c-2.9,0-4.4-0.9-4.4-2.6
			c0-1.5,0.3-2.9,3.2-7.3c36.2-54.6,73.5-110.6,108-161.7H1775c-13.1,0-28.3,0-36.5,4.4c-8.5,4.7-13.1,13.1-13.7,19
			c-0.6,3.5-1.7,4.4-3.2,4.4c-1.8,0-2.6-1.2-2.6-4.1c0-5.8,3.8-28.3,5.3-35.9c0.3-3.5,1.4-4.7,2.9-4.7c2.3,0,3.8,1.5,10.2,1.7
			c24.5,0.9,36.8,0.6,47.3,0.6h79.1c2.6,0,4.4,0.9,4.4,2c0,2-0.6,2.9-1.5,4.7c-35.6,55.7-74.1,112.4-110.3,164.6H1817.9z"/>
	</g>
	<g>
		<path class="st0" d="M1926.1,156.5c0-42.3,29.8-97.2,107.7-97.2c64.8,0,105.1,35.9,105.1,92.8c0,56.9-41.4,101.6-107.7,101.6
			C1956.4,253.7,1926.1,200.6,1926.1,156.5z M2100.6,161.2c0-54.9-33-88.7-74.4-88.7c-28.6,0-62.2,15.2-62.2,76.5
			c0,51.1,29.2,91.3,77.6,91.3C2059.7,240.2,2100.6,231.8,2100.6,161.2z"/>
	</g>
	<g>
		<path class="st0" d="M2213.4,247.3c-4.1-1.8-4.9-2.9-4.9-8.5c0-13.4,1.2-28.9,1.4-33c0-3.8,1.2-6.4,3.2-6.4c2.3,0,2.6,2.3,2.6,4.1
			c0,3.2,0.9,8.5,2.3,12.8c5.5,18.4,24.8,24.5,40.8,24.5c22.2,0,35.6-14,35.6-31.5c0-10.8-2.6-21.6-25.4-35l-14.9-8.8
			c-30.3-17.8-40.3-34.4-40.3-56.3c0-30.4,29.2-49.9,64.8-49.9c16.6,0,29.8,2.3,36.5,4.1c2.3,0.6,3.5,1.5,3.5,3.2
			c0,3.2-0.9,10.2-0.9,29.8c0,5.2-1.2,7.9-3.2,7.9c-1.7,0-2.6-1.5-2.6-4.4c0-2.3-1.2-9.9-6.7-16.3c-3.8-4.7-12-11.7-28.6-11.7
			c-18.4,0-35,9.6-35,26.6c0,11.1,4.1,19.8,27.1,32.7l10.5,5.8c33.9,18.7,44.4,37.7,44.4,60.1c0,18.4-7,33.3-25.7,46.4
			c-12.2,8.8-29.2,10.2-42.9,10.2C2240.3,253.7,2224.5,252.2,2213.4,247.3z"/>
	</g>
</g>
<g>
	<g>
		<g>
			<path class="st1" d="M563.5,921.5c0,26.8,0,40.1,4.7,44.1c3.7,3.2,12.1,4.4,28.8,4.4c11.6,0,20-0.2,25.4-5.9
				c2.7-2.7,4.9-8.6,5.4-12.5c0.2-2,0.7-3.2,2.5-3.2c1.5,0,2,2.2,2,4.7c0,2.5-1.5,18-3.2,24.1c-1.5,4.7-2.5,5.6-13.8,5.6
				c-15.5,0-28.1-0.2-38.9-0.7c-10.8-0.2-20-0.5-28.8-0.5c-2.5,0-7.1,0.2-12.3,0.2c-5.2,0.2-10.6,0.5-15,0.5c-2.7,0-4.2-0.7-4.2-2.2
				c0-1,0.7-2.2,3.5-2.2c3.2,0,5.7-0.2,7.6-0.7c4.4-1,5.7-4.9,6.4-11.1c1-8.9,1-25.4,1-44.6v-36.9c0-31.8,0-37.7-0.2-44.3
				c-0.5-7.1-2.5-9.3-9.4-11.3c-1.7-0.5-4.4-0.7-7.1-0.7c-2.5,0-3.7-0.7-3.7-2.2c0-1.5,1.5-2,4.7-2c10.1,0,23.9,0.5,29.8,0.5
				c5.2,0,22.9-0.5,31.3-0.5c3.2,0,4.7,0.5,4.7,2c0,1.5-1.2,2.2-3.9,2.2c-2.5,0-5.9,0.2-8.4,0.7c-5.9,1-7.6,3.9-8.1,11.3
				c-0.5,6.7-0.5,12.6-0.5,44.3V921.5z"/>
		</g>
		<g>
			<path class="st1" d="M709.1,929.6c-1.2,0-1.5,0.3-2,1.5l-11.6,28.1c-2.2,5.2-3.2,10.4-3.2,12.8c0,3.7,2,5.9,8.6,5.9h3.2
				c2.7,0,3.2,1,3.2,2.2c0,1.7-1.2,2.2-3.4,2.2c-7.1,0-17.2-0.7-24.1-0.7c-2.2,0-13.8,0.7-25.1,0.7c-2.7,0-3.9-0.5-3.9-2.2
				c0-1.2,0.7-2.2,2.5-2.2c2,0,4.4-0.2,6.4-0.2c9.9-1.5,13.5-7.9,18-18.5l56.6-131.7c2.5-5.9,4.2-8.4,6.4-8.4c3.2,0,4.2,2,6.4,6.7
				c5.2,11.6,41.4,97.3,55.2,129c8.4,19,14.5,21.7,18.5,22.4c3.2,0.5,5.7,0.7,8.1,0.7c2,0,3,0.7,3,2.2c0,1.7-1.2,2.2-9.4,2.2
				c-7.6,0-23.4,0-41.6-0.5c-3.9-0.2-6.4-0.2-6.4-1.7c0-1.2,0.5-2,2.7-2.2c1.5-0.2,3-2.2,2-4.7l-16.7-42.1c-0.5-1.2-1.2-1.5-2.2-1.5
				H709.1z M755.4,918c1,0,1.2-0.5,1-1.2l-20.4-53.2c-0.2-0.7-0.5-2-1-2c-0.7,0-1,1.2-1.2,2l-20.9,52.9c-0.5,1,0,1.5,0.7,1.5H755.4z
				"/>
		</g>
		<g>
			<path class="st1" d="M1090.8,892.2c0.5,0,1.2-0.2,1.2-1.5v-4.4c0-31.8-0.2-39.4-0.5-46.1c-0.5-7.1-2.5-9.3-9.4-11.3
				c-1.7-0.5-5.4-0.7-8.4-0.7c-2.5,0-3.7-0.7-3.7-2.2c0-1.5,1.5-2,4.7-2c11.6,0,26.8,0.5,32.5,0.5c5.2,0,19.4-0.5,27.8-0.5
				c3.2,0,4.7,0.5,4.7,2c0,1.5-1.5,2.2-3.9,2.2c-1.7,0-3.7,0.2-6.4,0.7c-5.7,1-7.4,3.9-7.9,11.3c-0.5,6.7-0.5,12.6-0.5,44.3v36.9
				c0,19.2,0,35.7,1,44.8c0.7,5.9,2,9.8,8.6,10.9c3,0.5,7.6,0.7,11.1,0.7c2.2,0,3.4,1.2,3.4,2.2c0,1.5-1.7,2.2-4.4,2.2
				c-14,0-28.3-0.7-34.2-0.7c-4.9,0-20.2,0.7-28.6,0.7c-3,0-4.7-0.7-4.7-2.2c0-1,1-2.2,3.5-2.2c3.4,0,5.9-0.2,7.9-0.7
				c4.4-1,5.7-4.9,6.4-11.1c1-8.9,1-24.9,1-44.1v-16c0-0.7-0.7-1.2-1.2-1.2H1009c-0.7,0-1.5,0.2-1.5,1.2v16
				c0,19.2,0.3,35.2,1.2,44.3c0.7,5.9,2,9.8,8.4,10.9c3,0.5,7.9,0.7,11.1,0.7c2.5,0,3.4,1.2,3.4,2.2c0,1.5-1.7,2.2-4.4,2.2
				c-14,0-29.1-0.7-35.2-0.7c-4.9,0-19.2,0.7-27.8,0.7c-2.7,0-4.2-0.7-4.2-2.2c0-1,0.7-2.2,3.5-2.2c3.2,0,5.7-0.2,7.6-0.7
				c4.4-1,5.7-4.9,6.4-11.1c1-8.9,1-25.4,1-44.6v-36.9c0-31.8,0-37.7-0.2-44.3c-0.5-7.1-2.5-9.3-9.4-11.3c-1.7-0.5-5.4-0.7-8.6-0.7
				c-2.2,0-3.7-0.7-3.7-2.2c0-1.5,1.7-2,4.7-2c11.6,0,25.9,0.5,31.8,0.5c5.2,0,20.2-0.5,28.8-0.5c3,0,4.4,0.5,4.4,2
				c0,1.5-1.2,2.2-3.9,2.2c-1.7,0-3.7,0.2-6.2,0.7c-5.9,1-7.6,3.9-8.1,11.3c-0.5,6.7-0.5,14.3-0.5,46.1v4.4c0,1.2,0.7,1.5,1.5,1.5
				H1090.8z"/>
		</g>
		<g>
			<path class="st1" d="M1216.6,884.6c0-31.8,0-37.7-0.3-44.3c-0.5-7.1-2.7-9.6-7.4-11.1c-2.5-0.7-5.2-1-7.9-1
				c-2.2,0-3.5-0.5-3.5-2.5c0-1.2,1.7-1.7,5.2-1.7c8.1,0,22.9,0.5,29.1,0.5c5.4,0,19.5-0.5,27.8-0.5c2.7,0,4.4,0.5,4.4,1.7
				c0,2-1.2,2.5-3.5,2.5c-2.2,0-3.9,0.2-6.4,0.7c-5.9,1-7.6,3.9-8.1,11.3c-0.5,6.7-0.5,12.6-0.5,44.3v36.9c0,20.2,0,36.9,1,45.8
				c0.7,5.6,2.2,8.8,8.6,9.8c3,0.5,7.9,0.7,11.1,0.7c2.5,0,3.4,1.2,3.4,2.2c0,1.5-1.7,2.2-4.2,2.2c-14.3,0-29-0.7-35-0.7
				c-4.9,0-19.7,0.7-28.3,0.7c-2.7,0-4.2-0.7-4.2-2.2c0-1,0.7-2.2,3.4-2.2c3.2,0,5.7-0.2,7.6-0.7c4.4-1,5.7-3.9,6.4-10.1
				c1-8.6,1-25.3,1-45.6V884.6z"/>
		</g>
		<g>
			<path class="st1" d="M1329.6,979.6c-3.4-1.5-4.2-2.5-4.2-7.1c0-11.3,1-24.4,1.2-27.8c0-3.2,1-5.4,2.7-5.4c2,0,2.2,2,2.2,3.4
				c0,2.7,0.7,7.2,2,10.9c4.7,15.5,20.9,20.7,34.5,20.7c18.7,0,30-11.8,30-26.6c0-9.1-2.2-18.2-21.4-29.5l-12.6-7.4
				c-25.6-15-34-29.1-34-47.5c0-25.6,24.6-42.1,54.7-42.1c14,0,25.1,2,30.8,3.4c2,0.5,3,1.2,3,2.7c0,2.7-0.7,8.6-0.7,25.1
				c0,4.4-1,6.7-2.7,6.7c-1.5,0-2.2-1.2-2.2-3.7c0-2-1-8.4-5.7-13.8c-3.2-3.9-10.1-9.8-24.1-9.8c-15.5,0-29.5,8.1-29.5,22.4
				c0,9.4,3.5,16.8,22.9,27.6l8.9,4.9c28.6,15.8,37.4,31.8,37.4,50.7c0,15.5-5.9,28.1-21.7,39.2c-10.3,7.4-24.6,8.6-36.2,8.6
				C1352.3,985,1339,983.8,1329.6,979.6z"/>
		</g>
		<g>
			<path class="st1" d="M1527.9,836.8l-32.2,0.7c-12.6,0.2-17.7,1.7-20.9,6.4c-2.2,3-3.2,5.7-3.7,7.2c-0.5,1.7-1,2.7-2.5,2.7
				c-1.5,0-2-1.2-2-3.4c0-3.5,4.2-23.6,4.7-25.4c0.5-2.7,1.2-3.9,2.5-3.9c1.7,0,3.9,1.7,9.4,2.5c6.4,0.7,14.5,1,21.7,1h87.9
				c6.9,0,11.6-0.5,14.8-1c3.4-0.5,5.2-1,5.9-1c1.5,0,1.7,1.2,1.7,4.4c0,4.4-0.5,19.9-0.5,25.4c-0.2,2.2-0.7,3.4-2,3.4
				c-1.7,0-2.2-1-2.5-4.2l-0.2-2.2c-0.5-5.4-6.2-11.8-25.6-12.1l-27.3-0.5v84.7c0,19.2,0.2,35.7,1.2,44.8c0.7,5.9,2,9.8,8.4,10.9
				c2.9,0.5,7.9,0.7,11.1,0.7c2.5,0,3.4,1.2,3.4,2.2c0,1.5-1.7,2.2-4.2,2.2c-14.3,0-28.8-0.7-35-0.7c-4.9,0-19.7,0.7-28.3,0.7
				c-2.7,0-4.2-0.7-4.2-2.2c0-1,0.7-2.2,3.4-2.2c3.2,0,5.9-0.2,7.6-0.7c4.4-1,5.6-4.9,6.4-11.1c1-8.9,1-25.4,1-44.6V836.8z"/>
		</g>
		<g>
			<path class="st1" d="M1652.7,903c0-35.7,25.1-82,90.9-82c54.7,0,88.6,30.3,88.6,78.3c0,48-35,85.7-90.9,85.7
				C1678.3,985,1652.7,940.2,1652.7,903z M1800,906.9c0-46.3-27.8-74.9-62.8-74.9c-24.1,0-52.5,12.8-52.5,64.5
				c0,43.1,24.6,77.1,65.5,77.1C1765.5,973.7,1800,966.5,1800,906.9z"/>
		</g>
		<g>
			<path class="st1" d="M1897,884.6c0-31.8,0-37.7-0.2-44.3c-0.5-7.1-2.5-9.3-9.4-11.3c-1.7-0.5-5.4-0.7-8.6-0.7
				c-2.2,0-3.7-0.7-3.7-2.2c0-1.5,1.7-2,4.9-2c11.3,0,25.1,0.5,29.5,0.5c7.4,0,27.1-0.5,33.7-0.5c13.8,0,29.5,1.2,41.1,8.9
				c6.2,4.2,15.3,14.8,15.3,28.8c0,15.5-8.9,29.3-30,46.3c19.2,23.6,34.5,42.6,47.5,55.7c12.1,12.1,19.7,13,23.2,13.8
				c2.2,0.5,3.4,0.5,5.2,0.5c1.7,0,2.7,1.2,2.7,2.2c0,1.7-1.5,2.2-4.2,2.2h-20.7c-12.1,0-18-1.2-23.6-4.2
				c-9.3-4.7-17.5-14.5-29.5-30.8c-8.6-11.3-17.7-25.3-20.4-28.6c-1.2-1.2-2.5-1.5-3.9-1.5l-19.5-0.5c-1,0-1.7,0.5-1.7,1.7v3
				c0,19.5,0.2,35.7,1.2,44.6c0.7,6.2,1.7,10.1,8.4,11.1c3.2,0.5,7.9,0.7,10.6,0.7c1.7,0,2.7,1.2,2.7,2.2c0,1.5-1.7,2.2-4.4,2.2
				c-12.6,0-30.5-0.7-33.8-0.7c-4.2,0-18,0.7-26.6,0.7c-2.7,0-4.2-0.7-4.2-2.2c0-1,0.7-2.2,3.5-2.2c3.2,0,5.7-0.2,7.6-0.7
				c4.4-1,5.7-4.9,6.4-11.1c1-8.9,1-25.4,1-44.6V884.6z M1924.6,900.8c0,2.2,0.5,3,2,3.7c4.7,1.5,11.1,2,16.5,2
				c8.6,0,11.6-0.7,15.3-3.5c6.7-4.7,14-13.8,14-31c0-29.5-20.2-37.2-33-37.2c-5.4,0-10.6,0.2-12.8,0.7c-1.5,0.5-2,1.2-2,3V900.8z"
				/>
		</g>
		<g>
			<path class="st1" d="M2090.6,884.6c0-31.8,0-37.7-0.2-44.3c-0.5-7.1-2.7-9.6-7.4-11.1c-2.5-0.7-5.2-1-7.9-1
				c-2.2,0-3.4-0.5-3.4-2.5c0-1.2,1.7-1.7,5.2-1.7c8.1,0,22.9,0.5,29.1,0.5c5.4,0,19.4-0.5,27.8-0.5c2.7,0,4.4,0.5,4.4,1.7
				c0,2-1.2,2.5-3.4,2.5c-2.2,0-3.9,0.2-6.4,0.7c-5.9,1-7.6,3.9-8.1,11.3c-0.5,6.7-0.5,12.6-0.5,44.3v36.9c0,20.2,0,36.9,1,45.8
				c0.7,5.6,2.2,8.8,8.6,9.8c3,0.5,7.9,0.7,11.1,0.7c2.5,0,3.5,1.2,3.5,2.2c0,1.5-1.7,2.2-4.2,2.2c-14.3,0-29.1-0.7-35-0.7
				c-4.9,0-19.7,0.7-28.3,0.7c-2.7,0-4.2-0.7-4.2-2.2c0-1,0.7-2.2,3.5-2.2c3.2,0,5.6-0.2,7.6-0.7c4.4-1,5.7-3.9,6.4-10.1
				c1-8.6,1-25.3,1-45.6V884.6z"/>
		</g>
		<g>
			<path class="st1" d="M2224.5,929.6c-1.2,0-1.5,0.3-2,1.5l-11.6,28.1c-2.2,5.2-3.2,10.4-3.2,12.8c0,3.7,2,5.9,8.6,5.9h3.2
				c2.7,0,3.2,1,3.2,2.2c0,1.7-1.2,2.2-3.5,2.2c-7.1,0-17.2-0.7-24.1-0.7c-2.2,0-13.8,0.7-25.1,0.7c-2.7,0-3.9-0.5-3.9-2.2
				c0-1.2,0.7-2.2,2.5-2.2c2,0,4.4-0.2,6.4-0.2c9.8-1.5,13.5-7.9,18-18.5l56.6-131.7c2.5-5.9,4.2-8.4,6.4-8.4c3.2,0,4.2,2,6.4,6.7
				c5.2,11.6,41.4,97.3,55.2,129c8.4,19,14.5,21.7,18.5,22.4c3.2,0.5,5.6,0.7,8.1,0.7c2,0,3,0.7,3,2.2c0,1.7-1.2,2.2-9.4,2.2
				c-7.6,0-23.4,0-41.6-0.5c-3.9-0.2-6.4-0.2-6.4-1.7c0-1.2,0.5-2,2.7-2.2c1.5-0.2,3-2.2,2-4.7l-16.7-42.1c-0.5-1.2-1.2-1.5-2.2-1.5
				H2224.5z M2270.8,918c1,0,1.2-0.5,1-1.2l-20.4-53.2c-0.3-0.7-0.5-2-1-2c-0.7,0-1,1.2-1.2,2l-20.9,52.9c-0.5,1,0,1.5,0.7,1.5
				H2270.8z"/>
		</g>
	</g>
</g>
<g>
	<g>
		<path class="st0" d="M538.6,734.2c0,13.4,0,20,2.3,21.9c1.8,1.6,6,2.2,14.3,2.2c5.8,0,9.9-0.1,12.6-2.9c1.3-1.4,2.5-4.3,2.7-6.2
			c0.1-1,0.4-1.6,1.2-1.6c0.7,0,1,1.1,1,2.3c0,1.2-0.7,8.9-1.6,12c-0.7,2.3-1.2,2.8-6.9,2.8c-7.7,0-14-0.1-19.4-0.4
			c-5.4-0.1-9.9-0.2-14.3-0.2c-1.2,0-3.5,0.1-6.1,0.1c-2.6,0.1-5.3,0.2-7.5,0.2c-1.3,0-2.1-0.4-2.1-1.1c0-0.5,0.4-1.1,1.7-1.1
			c1.6,0,2.8-0.1,3.8-0.4c2.2-0.5,2.8-2.5,3.2-5.5c0.5-4.4,0.5-12.6,0.5-22.2v-18.4c0-15.8,0-18.8-0.1-22.1
			c-0.3-3.5-1.2-4.6-4.7-5.6c-0.9-0.2-2.2-0.4-3.6-0.4c-1.2,0-1.8-0.4-1.8-1.1c0-0.7,0.7-1,2.3-1c5,0,11.9,0.2,14.8,0.2
			c2.6,0,11.4-0.2,15.6-0.2c1.6,0,2.3,0.2,2.3,1c0,0.7-0.6,1.1-2,1.1c-1.2,0-2.9,0.1-4.2,0.4c-2.9,0.5-3.8,2-4,5.6
			c-0.3,3.3-0.3,6.2-0.3,22.1V734.2z"/>
	</g>
	<g>
		<path class="st0" d="M616.8,734.2c0,13.4,0,20,2.3,21.9c1.8,1.6,6,2.2,14.3,2.2c5.8,0,9.9-0.1,12.6-2.9c1.3-1.4,2.5-4.3,2.7-6.2
			c0.1-1,0.4-1.6,1.2-1.6c0.7,0,1,1.1,1,2.3c0,1.2-0.7,8.9-1.6,12c-0.7,2.3-1.2,2.8-6.9,2.8c-7.7,0-14-0.1-19.4-0.4
			c-5.4-0.1-9.9-0.2-14.3-0.2c-1.2,0-3.6,0.1-6.1,0.1c-2.6,0.1-5.3,0.2-7.5,0.2c-1.3,0-2.1-0.4-2.1-1.1c0-0.5,0.4-1.1,1.7-1.1
			c1.6,0,2.8-0.1,3.8-0.4c2.2-0.5,2.8-2.5,3.2-5.5c0.5-4.4,0.5-12.6,0.5-22.2v-18.4c0-15.8,0-18.8-0.1-22.1
			c-0.3-3.5-1.2-4.6-4.7-5.6c-0.9-0.2-2.2-0.4-3.6-0.4c-1.2,0-1.8-0.4-1.8-1.1c0-0.7,0.7-1,2.3-1c5,0,11.9,0.2,14.8,0.2
			c2.6,0,11.4-0.2,15.6-0.2c1.6,0,2.3,0.2,2.3,1c0,0.7-0.6,1.1-2,1.1c-1.2,0-2.9,0.1-4.2,0.4c-2.9,0.5-3.8,2-4.1,5.6
			c-0.2,3.3-0.2,6.2-0.2,22.1V734.2z"/>
	</g>
	<g>
		<path class="st0" d="M680.5,715.8c0-15.8,0-18.8-0.1-22.1c-0.3-3.5-1.2-4.6-4.7-5.6c-0.9-0.2-2.7-0.4-4.3-0.4
			c-1.1,0-1.8-0.4-1.8-1.1c0-0.7,0.9-1,2.5-1c5.6,0,12.5,0.2,15.6,0.2c3.4,0,27.3,0.1,29.4,0c2-0.1,3.7-0.5,4.5-0.6
			c0.6-0.1,1.2-0.5,1.7-0.5c0.6,0,0.7,0.5,0.7,1c0,0.7-0.6,2-0.9,6.7c-0.1,1.1-0.4,5.6-0.6,6.9c-0.1,0.5-0.4,1.7-1.2,1.7
			c-0.7,0-0.9-0.5-0.9-1.4c0-0.7-0.1-2.6-0.7-3.8c-0.9-1.8-1.7-3.3-7.1-3.8c-1.8-0.2-14.7-0.5-16.9-0.5c-0.5,0-0.7,0.4-0.7,1v25.7
			c0,0.6,0.1,1.1,0.7,1.1c2.5,0,16.4,0,18.9-0.2c2.6-0.3,4.2-0.5,5.1-1.6c0.9-0.7,1.2-1.4,1.7-1.4c0.5,0,0.9,0.5,0.9,1.1
			c0,0.6-0.2,2.3-0.9,7.6c-0.3,2.1-0.5,6.2-0.5,7c0,0.9-0.1,2.3-1.1,2.3c-0.7,0-1-0.4-1-0.9c-0.1-1.1-0.1-2.5-0.4-3.8
			c-0.6-2.1-2-3.7-6-4c-2-0.3-14.2-0.5-16.9-0.5c-0.5,0-0.6,0.5-0.6,1.1v8.3c0,3.5-0.1,12.4,0,15.4c0.3,7.1,3.6,8.7,14.6,8.7
			c2.8,0,7.4-0.1,10.2-1.4c2.7-1.2,3.9-3.4,4.7-7.7c0.2-1.1,0.5-1.6,1.2-1.6c0.9,0,1,1.4,1,2.5c0,2.3-0.9,9.4-1.5,11.5
			c-0.7,2.7-1.7,2.7-5.8,2.7c-8.1,0-14.6-0.1-19.8-0.4c-5.3-0.1-9.3-0.2-12.5-0.2c-1.2,0-3.5,0.1-6.1,0.1c-2.6,0.1-5.3,0.2-7.5,0.2
			c-1.3,0-2.1-0.4-2.1-1.1c0-0.5,0.4-1.1,1.7-1.1c1.6,0,2.8-0.1,3.8-0.4c2.2-0.5,2.8-2.5,3.2-5.5c0.5-4.4,0.5-12.6,0.5-22.2V715.8z"
			/>
	</g>
	<g>
		<path class="st0" d="M827.5,757.5c0,2.8,0,2.9-1.3,3.7c-7.2,3.5-17.9,4.6-26.4,4.6c-26.5,0-49.9-12-49.9-40.8
			c0-16.7,8.9-28.3,18.9-34.1c10.3-6,20-6.7,29-6.7c7.5,0,16.9,1.2,19.1,1.7c2.2,0.4,6,1,8.6,1.1c1.2,0.1,1.5,0.5,1.5,1.2
			c0,1.2-0.7,4.1-0.7,17.2c0,1.6-0.6,2.3-1.5,2.3c-0.7,0-1-0.5-1.1-1.4c-0.3-2.3-0.9-5.6-3.7-8.6c-3.2-3.3-11.3-8-23.4-8
			c-5.9,0-13.4,0.1-20.8,6.1c-6,4.9-9.9,12.6-9.9,25.4c0,22.4,14.5,38.7,37.5,38.7c2.8,0,5,0,7.6-1.1c1.6-0.7,2.1-1.8,2.1-3.7v-9.6
			c0-5.1,0-9.1-0.1-12.2c-0.1-3.6-1.2-4.7-4.7-5.6c-0.9-0.2-2.7-0.4-4.2-0.4c-1,0-1.7-0.5-1.7-1.1c0-0.9,0.9-1,2.3-1
			c5.6,0,13.4,0.3,16.5,0.3c3.4,0,9.1-0.3,12.6-0.3c1.5,0,2.2,0.1,2.2,1c0,0.6-0.6,1.1-1.3,1.1c-0.9,0-1.7,0.1-2.9,0.4
			c-2.9,0.5-4,2-4.2,5.6c-0.1,3.2-0.1,7.3-0.1,12.5V757.5z"/>
	</g>
	<g>
		<path class="st0" d="M872.8,738.2c-0.6,0-0.7,0.1-1,0.7l-5.8,14c-1.1,2.6-1.6,5.1-1.6,6.4c0,1.8,1,2.9,4.3,2.9h1.6
			c1.3,0,1.6,0.5,1.6,1.1c0,0.9-0.6,1.1-1.7,1.1c-3.5,0-8.6-0.4-12-0.4c-1.1,0-6.9,0.4-12.5,0.4c-1.3,0-2-0.2-2-1.1
			c0-0.6,0.4-1.1,1.2-1.1c1,0,2.2-0.1,3.2-0.1c4.9-0.7,6.7-3.9,8.9-9.2l28.2-65.6c1.2-2.9,2.1-4.2,3.2-4.2c1.6,0,2.1,1,3.2,3.3
			c2.6,5.8,20.6,48.4,27.4,64.2c4.2,9.4,7.2,10.8,9.2,11.2c1.6,0.3,2.8,0.4,4,0.4c1,0,1.5,0.4,1.5,1.1c0,0.9-0.6,1.1-4.7,1.1
			c-3.8,0-11.6,0-20.7-0.2c-2-0.1-3.2-0.1-3.2-0.9c0-0.6,0.2-1,1.3-1.1c0.7-0.1,1.5-1.1,1-2.3l-8.3-21c-0.3-0.6-0.6-0.7-1.1-0.7
			H872.8z M895.8,732.5c0.5,0,0.6-0.2,0.5-0.6l-10.2-26.5c-0.1-0.4-0.3-1-0.5-1c-0.4,0-0.5,0.6-0.6,1l-10.4,26.3
			c-0.2,0.5,0,0.7,0.4,0.7H895.8z"/>
	</g>
	<g>
		<path class="st0" d="M956.1,715.8c0-15.8,0-18.8-0.1-22.1c-0.3-3.5-1.2-4.6-4.7-5.6c-0.9-0.2-2.7-0.4-4.3-0.4
			c-1.1,0-1.8-0.4-1.8-1.1c0-0.7,0.9-1,2.5-1c5.6,0,12.5,0.2,14.7,0.2c3.7,0,13.5-0.2,16.8-0.2c6.9,0,14.7,0.6,20.5,4.4
			c3.1,2.1,7.6,7.4,7.6,14.3c0,7.7-4.4,14.6-15,23c9.6,11.8,17.2,21.2,23.6,27.7c6,6,9.8,6.5,11.5,6.9c1.1,0.2,1.7,0.2,2.6,0.2
			c0.9,0,1.3,0.6,1.3,1.1c0,0.9-0.7,1.1-2.1,1.1H1019c-6,0-8.9-0.6-11.8-2.1c-4.7-2.3-8.7-7.2-14.7-15.3
			c-4.3-5.6-8.8-12.6-10.2-14.2c-0.6-0.6-1.2-0.7-2-0.7l-9.7-0.2c-0.5,0-0.9,0.2-0.9,0.9v1.5c0,9.7,0.1,17.8,0.6,22.2
			c0.4,3,0.9,5,4.2,5.5c1.6,0.3,3.9,0.4,5.3,0.4c0.9,0,1.3,0.6,1.3,1.1c0,0.7-0.9,1.1-2.2,1.1c-6.3,0-15.2-0.4-16.8-0.4
			c-2.1,0-8.9,0.4-13.2,0.4c-1.3,0-2.1-0.4-2.1-1.1c0-0.5,0.4-1.1,1.7-1.1c1.6,0,2.8-0.1,3.8-0.4c2.2-0.5,2.8-2.5,3.2-5.5
			c0.5-4.4,0.5-12.6,0.5-22.2V715.8z M969.8,723.9c0,1.1,0.2,1.5,1,1.8c2.3,0.7,5.5,1,8.2,1c4.3,0,5.8-0.4,7.6-1.7
			c3.3-2.3,7-6.9,7-15.4c0-14.7-10-18.5-16.4-18.5c-2.7,0-5.3,0.1-6.4,0.4c-0.7,0.2-1,0.6-1,1.5V723.9z"/>
	</g>
	<g>
		<path class="st0" d="M1038.9,725c0-17.8,12.5-40.8,45.2-40.8c27.2,0,44.1,15.1,44.1,39c0,23.9-17.4,42.6-45.2,42.6
			C1051.7,765.8,1038.9,743.5,1038.9,725z M1112.2,726.9c0-23-13.8-37.2-31.2-37.2c-12,0-26.1,6.4-26.1,32.1
			c0,21.4,12.3,38.4,32.6,38.4C1095.1,760.1,1112.2,756.6,1112.2,726.9z"/>
	</g>
	<g>
		<path class="st0" d="M1169.3,750.2c0.3,8.1,1.6,10.5,3.7,11.3c1.8,0.6,3.9,0.7,5.6,0.7c1.2,0,1.8,0.5,1.8,1.1c0,0.9-1,1.1-2.4,1.1
			c-7,0-12-0.4-14-0.4c-1,0-6.1,0.4-11.6,0.4c-1.5,0-2.4-0.1-2.4-1.1c0-0.6,0.7-1.1,1.7-1.1c1.5,0,3.4-0.1,4.9-0.5
			c2.8-0.7,3.2-3.6,3.3-12.6l1-61.8c0-2.1,0.7-3.5,1.8-3.5c1.3,0,2.8,1.6,4.7,3.4c1.3,1.3,17.5,17.9,33.2,33.2
			c7.4,7.2,21.7,21.9,23.3,23.4h0.5l-1.1-46.3c-0.1-6.4-1.1-8.2-3.7-9.2c-1.6-0.6-4.2-0.6-5.6-0.6c-1.4,0-1.7-0.5-1.7-1.1
			c0-0.9,1.1-1,2.7-1c5.6,0,11.4,0.2,13.7,0.2c1.2,0,5.3-0.2,10.5-0.2c1.5,0,2.5,0.1,2.5,1c0,0.6-0.6,1.1-1.8,1.1
			c-1.1,0-2,0-3.3,0.4c-2.9,0.9-3.8,2.7-3.9,8.6l-1.2,65.7c0,2.3-0.9,3.3-1.7,3.3c-1.8,0-3.3-1.1-4.4-2.2
			c-6.7-6.2-20.2-19.1-31.5-30c-11.8-11.3-23.2-23.9-25.2-25.7h-0.4L1169.3,750.2z"/>
	</g>
	<g>
		<path class="st0" d="M1323.5,715.8c0-15.8,0-18.8-0.1-22.1c-0.3-3.5-1.2-4.6-4.7-5.6c-0.9-0.2-2.7-0.4-4.3-0.4
			c-1.1,0-1.8-0.4-1.8-1.1c0-0.7,0.9-1,2.5-1c5.6,0,12.5,0.2,15.6,0.2c4.4,0,13-0.2,17.9-0.2c13.5,0,18.4,4.4,20.1,5.9
			c2.3,2.2,5.4,6.9,5.4,12.5c0,14.7-11.8,25.2-27.1,25.2c-0.5,0-2.7,0-3.2-0.1c-0.6,0-1.3-0.4-1.3-1.1c0-0.9,1.2-1.3,3.5-1.3
			c6,0,14.5-6.2,14.5-16.9c0-3.4-0.4-10.3-6.4-15.4c-3.9-3.4-8.3-3.9-10.8-3.9c-1.6,0-3.7,0.1-4.7,0.5c-0.6,0.2-0.9,0.9-0.9,2v41.3
			c0,9.6,0,17.8,0.5,22.3c0.4,2.9,1,4.9,4.2,5.4c1.6,0.3,3.9,0.4,5.5,0.4c1.2,0,1.7,0.6,1.7,1.1c0,0.7-0.9,1.1-2,1.1
			c-7.2,0-14.8-0.4-17.6-0.4c-2.5,0-9.3,0.4-13.6,0.4c-1.3,0-2.1-0.4-2.1-1.1c0-0.5,0.4-1.1,1.7-1.1c1.6,0,2.8-0.1,3.8-0.4
			c2.2-0.5,2.8-2.5,3.2-5.5c0.5-4.4,0.5-12.6,0.5-22.2V715.8z"/>
	</g>
	<g>
		<path class="st0" d="M1411.7,738.2c-0.6,0-0.7,0.1-1,0.7l-5.8,14c-1.1,2.6-1.6,5.1-1.6,6.4c0,1.8,1,2.9,4.3,2.9h1.6
			c1.4,0,1.6,0.5,1.6,1.1c0,0.9-0.6,1.1-1.7,1.1c-3.6,0-8.6-0.4-12-0.4c-1.1,0-6.9,0.4-12.5,0.4c-1.3,0-2-0.2-2-1.1
			c0-0.6,0.4-1.1,1.2-1.1c1,0,2.2-0.1,3.2-0.1c4.9-0.7,6.7-3.9,8.9-9.2l28.2-65.6c1.2-2.9,2.1-4.2,3.2-4.2c1.6,0,2.1,1,3.2,3.3
			c2.6,5.8,20.6,48.4,27.4,64.2c4.2,9.4,7.2,10.8,9.2,11.2c1.6,0.3,2.8,0.4,4.1,0.4c1,0,1.5,0.4,1.5,1.1c0,0.9-0.6,1.1-4.7,1.1
			c-3.8,0-11.6,0-20.7-0.2c-2-0.1-3.2-0.1-3.2-0.9c0-0.6,0.3-1,1.4-1.1c0.7-0.1,1.5-1.1,1-2.3l-8.3-21c-0.2-0.6-0.6-0.7-1.1-0.7
			H1411.7z M1434.7,732.5c0.5,0,0.6-0.2,0.5-0.6l-10.2-26.5c-0.1-0.4-0.2-1-0.5-1c-0.4,0-0.5,0.6-0.6,1l-10.4,26.3
			c-0.2,0.5,0,0.7,0.4,0.7H1434.7z"/>
	</g>
	<g>
		<path class="st0" d="M1495,715.8c0-15.8,0-18.8-0.1-22.1c-0.2-3.5-1.2-4.6-4.7-5.6c-0.9-0.2-2.7-0.4-4.3-0.4
			c-1.1,0-1.8-0.4-1.8-1.1c0-0.7,0.9-1,2.5-1c5.6,0,12.5,0.2,14.7,0.2c3.7,0,13.5-0.2,16.8-0.2c6.9,0,14.7,0.6,20.5,4.4
			c3.1,2.1,7.6,7.4,7.6,14.3c0,7.7-4.4,14.6-14.9,23c9.6,11.8,17.2,21.2,23.6,27.7c6,6,9.8,6.5,11.5,6.9c1.1,0.2,1.7,0.2,2.6,0.2
			c0.9,0,1.3,0.6,1.3,1.1c0,0.9-0.7,1.1-2.1,1.1h-10.3c-6,0-8.9-0.6-11.8-2.1c-4.6-2.3-8.7-7.2-14.7-15.3
			c-4.3-5.6-8.8-12.6-10.2-14.2c-0.6-0.6-1.2-0.7-2-0.7l-9.7-0.2c-0.5,0-0.9,0.2-0.9,0.9v1.5c0,9.7,0.1,17.8,0.6,22.2
			c0.4,3,0.9,5,4.2,5.5c1.6,0.3,3.9,0.4,5.3,0.4c0.9,0,1.3,0.6,1.3,1.1c0,0.7-0.9,1.1-2.2,1.1c-6.3,0-15.2-0.4-16.8-0.4
			c-2.1,0-8.9,0.4-13.2,0.4c-1.3,0-2.1-0.4-2.1-1.1c0-0.5,0.4-1.1,1.7-1.1c1.6,0,2.8-0.1,3.8-0.4c2.2-0.5,2.8-2.5,3.2-5.5
			c0.5-4.4,0.5-12.6,0.5-22.2V715.8z M1508.7,723.9c0,1.1,0.2,1.5,1,1.8c2.3,0.7,5.5,1,8.2,1c4.3,0,5.7-0.4,7.6-1.7
			c3.3-2.3,7-6.9,7-15.4c0-14.7-10.1-18.5-16.4-18.5c-2.7,0-5.3,0.1-6.4,0.4c-0.7,0.2-1,0.6-1,1.5V723.9z"/>
	</g>
	<g>
		<path class="st0" d="M1594.3,738.2c-0.6,0-0.7,0.1-1,0.7l-5.8,14c-1.1,2.6-1.6,5.1-1.6,6.4c0,1.8,1,2.9,4.3,2.9h1.6
			c1.4,0,1.6,0.5,1.6,1.1c0,0.9-0.6,1.1-1.7,1.1c-3.6,0-8.6-0.4-12-0.4c-1.1,0-6.9,0.4-12.5,0.4c-1.4,0-2-0.2-2-1.1
			c0-0.6,0.4-1.1,1.2-1.1c1,0,2.2-0.1,3.2-0.1c4.9-0.7,6.7-3.9,8.9-9.2l28.2-65.6c1.2-2.9,2.1-4.2,3.2-4.2c1.6,0,2.1,1,3.2,3.3
			c2.6,5.8,20.6,48.4,27.4,64.2c4.2,9.4,7.2,10.8,9.2,11.2c1.6,0.3,2.8,0.4,4.1,0.4c1,0,1.5,0.4,1.5,1.1c0,0.9-0.6,1.1-4.7,1.1
			c-3.8,0-11.6,0-20.7-0.2c-2-0.1-3.2-0.1-3.2-0.9c0-0.6,0.3-1,1.4-1.1c0.7-0.1,1.5-1.1,1-2.3l-8.3-21c-0.2-0.6-0.6-0.7-1.1-0.7
			H1594.3z M1617.3,732.5c0.5,0,0.6-0.2,0.5-0.6l-10.2-26.5c-0.1-0.4-0.2-1-0.5-1c-0.4,0-0.5,0.6-0.6,1l-10.4,26.3
			c-0.2,0.5,0,0.7,0.4,0.7H1617.3z"/>
	</g>
	<g>
		<path class="st0" d="M1726.6,754.5c-10.7-9-13.5-20.7-13.5-30.8c0-7.1,2.3-19.4,12.6-28.6c7.8-6.9,18.1-11,34.2-11
			c6.7,0,10.8,0.5,15.7,1.1c4.1,0.6,7.6,1.4,10.8,1.7c1.2,0.1,1.6,0.6,1.6,1.2c0,0.9-0.2,2.1-0.5,5.8c-0.2,3.4-0.2,9.2-0.4,11.3
			c-0.1,1.5-0.5,2.6-1.5,2.6c-0.9,0-1.1-0.9-1.1-2.2c-0.1-3.3-1.5-7-4.2-9.7c-3.7-3.5-10.9-6.1-20.8-6.1c-9.4,0-15.4,1.7-20.3,5.9
			c-8,6.9-9.9,16.9-9.9,27.1c0,24.8,19.1,36.5,33.6,36.5c9.6,0,14.8-0.7,19.1-5.5c1.8-2.1,3.3-5,3.7-7c0.2-1.6,0.5-2.1,1.4-2.1
			c0.7,0,1.2,1,1.2,1.8c0,1.2-1.2,10.3-2.3,13.8c-0.5,1.8-1,2.3-2.8,3.1c-4.3,1.7-12.5,2.3-19.5,2.3
			C1748.9,765.8,1736.4,762.7,1726.6,754.5z"/>
	</g>
	<g>
		<path class="st0" d="M1826.5,738.2c-0.6,0-0.7,0.1-1,0.7l-5.8,14c-1.1,2.6-1.6,5.1-1.6,6.4c0,1.8,1,2.9,4.3,2.9h1.6
			c1.4,0,1.6,0.5,1.6,1.1c0,0.9-0.6,1.1-1.7,1.1c-3.6,0-8.6-0.4-12-0.4c-1.1,0-6.9,0.4-12.5,0.4c-1.4,0-2-0.2-2-1.1
			c0-0.6,0.4-1.1,1.2-1.1c1,0,2.2-0.1,3.2-0.1c4.9-0.7,6.7-3.9,8.9-9.2l28.2-65.6c1.2-2.9,2.1-4.2,3.2-4.2c1.6,0,2.1,1,3.2,3.3
			c2.6,5.8,20.6,48.4,27.4,64.2c4.2,9.4,7.2,10.8,9.2,11.2c1.6,0.3,2.8,0.4,4.1,0.4c1,0,1.5,0.4,1.5,1.1c0,0.9-0.6,1.1-4.7,1.1
			c-3.8,0-11.6,0-20.7-0.2c-2-0.1-3.2-0.1-3.2-0.9c0-0.6,0.3-1,1.4-1.1c0.7-0.1,1.5-1.1,1-2.3l-8.3-21c-0.2-0.6-0.6-0.7-1.1-0.7
			H1826.5z M1849.5,732.5c0.5,0,0.6-0.2,0.5-0.6l-10.2-26.5c-0.1-0.4-0.2-1-0.5-1c-0.4,0-0.5,0.6-0.6,1l-10.4,26.3
			c-0.2,0.5,0,0.7,0.4,0.7H1849.5z"/>
	</g>
	<g>
		<path class="st0" d="M1913.8,686c0.2-1.7,1.2-2.7,2.1-2.7c1.1,0,1.8,0.5,3.3,3.3l28.9,58.1l28.9-58.8c0.9-1.7,1.8-2.6,2.8-2.6
			c0.9,0,2.1,1.1,2.5,3.3l9.8,64.3c1,6.5,2,9.3,5.3,10.3c3.1,0.9,4.8,1,6.1,1c1,0,1.7,0.4,1.7,1c0,0.9-1.2,1.2-2.8,1.2
			c-2.7,0-18-0.5-22.3-0.7c-2.6-0.1-3.2-0.6-3.2-1.2c0-0.5,0.5-0.9,1.2-1.1c0.6-0.2,0.9-1.5,0.5-4.4l-6-45.1h-0.4l-23.2,46.6
			c-2.5,4.9-3.1,5.9-4.3,5.9c-1.3,0-2.6-2.1-4.3-5.3c-2.6-4.8-11.2-20.7-12.4-23.7c-0.9-2-7.2-15.1-10.8-22.3h-0.4l-5.1,40.7
			c-0.3,1.8-0.4,3.2-0.4,4.9c0,2,1.5,2.7,3.3,3.1c1.8,0.4,2.8,0.5,3.8,0.5c1,0,1.7,0.5,1.7,1c0,1-1,1.2-2.6,1.2
			c-4.5,0-9.4-0.4-11.4-0.4c-2.1,0-7.2,0.4-10.7,0.4c-1.1,0-2-0.2-2-1.2c0-0.5,0.6-1,1.7-1c0.9,0,1.6,0,3.3-0.2
			c2.9-0.4,3.9-4.5,4.4-8L1913.8,686z"/>
	</g>
	<g>
		<path class="st0" d="M2033.4,715.8c0-15.8,0-18.8-0.1-22.1c-0.2-3.5-1.2-4.6-4.7-5.6c-0.9-0.2-2.7-0.4-4.3-0.4
			c-1.1,0-1.8-0.4-1.8-1.1c0-0.7,0.9-1,2.5-1c5.6,0,12.5,0.2,14.6,0.2c5.4,0,12.5-0.2,16.2-0.2c19.5,0,22.9,10.1,22.9,15.6
			c0,8.1-6,14.3-12.1,18.3c8.8,2.8,19.8,10.3,19.8,22.5c0,11.2-8.8,22.7-28.7,22.7c-1.2,0-4.9-0.1-8.6-0.4c-3.7-0.1-7.5-0.2-9.2-0.2
			c-1.2,0-3.5,0.1-6.1,0.1c-2.6,0.1-5.3,0.2-7.5,0.2c-1.3,0-2.1-0.4-2.1-1.1c0-0.5,0.4-1.1,1.7-1.1c1.6,0,2.8-0.1,3.8-0.4
			c2.2-0.5,2.8-2.5,3.2-5.5c0.5-4.4,0.5-12.6,0.5-22.2V715.8z M2047.4,717.5c0,0.9,0.4,1,0.7,1.1c1,0.2,2.6,0.4,5,0.4
			c3.5,0,6.6-0.4,8.5-1.8c2.8-2.2,4.9-6,4.9-11c0-7-4.2-15.7-13.5-15.7c-1.5,0-3.6,0-4.7,0.2c-0.7,0.1-1,0.6-1,1.7V717.5z
			 M2047.4,748.1c0,6.9,0.4,8.9,3.8,10.3c2.8,1.1,5.3,1.2,7.7,1.2c5.8,0,13.2-3.2,13.2-14.7c0-4.8-2.1-13-10.2-18.5
			c-2.2-1.6-5.1-2.7-9.3-2.7h-4.7c-0.4,0-0.6,0.1-0.6,0.7V748.1z"/>
	</g>
	<g>
		<path class="st0" d="M2122.4,715.8c0-15.8,0-18.8-0.1-22.1c-0.2-3.5-1.4-4.8-3.7-5.5c-1.2-0.4-2.6-0.5-3.9-0.5
			c-1.1,0-1.7-0.2-1.7-1.2c0-0.6,0.9-0.9,2.6-0.9c4.1,0,11.4,0.2,14.5,0.2c2.7,0,9.7-0.2,13.8-0.2c1.4,0,2.2,0.2,2.2,0.9
			c0,1-0.6,1.2-1.7,1.2c-1.1,0-2,0.1-3.2,0.4c-2.9,0.5-3.8,2-4,5.6c-0.2,3.3-0.2,6.2-0.2,22.1v18.4c0,10.1,0,18.4,0.5,22.8
			c0.4,2.8,1.1,4.4,4.3,4.9c1.5,0.3,3.9,0.4,5.5,0.4c1.2,0,1.7,0.6,1.7,1.1c0,0.7-0.9,1.1-2.1,1.1c-7.1,0-14.5-0.4-17.4-0.4
			c-2.5,0-9.8,0.4-14.1,0.4c-1.3,0-2.1-0.4-2.1-1.1c0-0.5,0.4-1.1,1.7-1.1c1.6,0,2.8-0.1,3.8-0.4c2.2-0.5,2.8-2,3.2-5
			c0.5-4.3,0.5-12.6,0.5-22.7V715.8z"/>
	</g>
	<g>
		<path class="st0" d="M2187.5,738.2c-0.6,0-0.7,0.1-1,0.7l-5.8,14c-1.1,2.6-1.6,5.1-1.6,6.4c0,1.8,1,2.9,4.3,2.9h1.6
			c1.4,0,1.6,0.5,1.6,1.1c0,0.9-0.6,1.1-1.7,1.1c-3.6,0-8.6-0.4-12-0.4c-1.1,0-6.9,0.4-12.5,0.4c-1.4,0-2-0.2-2-1.1
			c0-0.6,0.4-1.1,1.2-1.1c1,0,2.2-0.1,3.2-0.1c4.9-0.7,6.7-3.9,8.9-9.2l28.2-65.6c1.2-2.9,2.1-4.2,3.2-4.2c1.6,0,2.1,1,3.2,3.3
			c2.6,5.8,20.6,48.4,27.4,64.2c4.2,9.4,7.2,10.8,9.2,11.2c1.6,0.3,2.8,0.4,4.1,0.4c1,0,1.5,0.4,1.5,1.1c0,0.9-0.6,1.1-4.7,1.1
			c-3.8,0-11.6,0-20.7-0.2c-2-0.1-3.2-0.1-3.2-0.9c0-0.6,0.3-1,1.4-1.1c0.7-0.1,1.5-1.1,1-2.3l-8.3-21c-0.2-0.6-0.6-0.7-1.1-0.7
			H2187.5z M2210.5,732.5c0.5,0,0.6-0.2,0.5-0.6l-10.2-26.5c-0.1-0.4-0.2-1-0.5-1c-0.4,0-0.5,0.6-0.6,1l-10.4,26.3
			c-0.2,0.5,0,0.7,0.4,0.7H2210.5z"/>
	</g>
	<g>
		<path class="st0" d="M2270.8,715.8c0-15.8,0-18.8-0.1-22.1c-0.2-3.5-1.2-4.6-4.7-5.6c-0.9-0.2-2.7-0.4-4.3-0.4
			c-1.1,0-1.8-0.4-1.8-1.1c0-0.7,0.9-1,2.5-1c5.6,0,12.5,0.2,14.7,0.2c3.7,0,13.5-0.2,16.8-0.2c6.9,0,14.7,0.6,20.5,4.4
			c3.1,2.1,7.6,7.4,7.6,14.3c0,7.7-4.4,14.6-14.9,23c9.6,11.8,17.2,21.2,23.6,27.7c6,6,9.8,6.5,11.5,6.9c1.1,0.2,1.7,0.2,2.6,0.2
			c0.9,0,1.3,0.6,1.3,1.1c0,0.9-0.7,1.1-2.1,1.1h-10.3c-6,0-8.9-0.6-11.8-2.1c-4.6-2.3-8.7-7.2-14.7-15.3
			c-4.3-5.6-8.8-12.6-10.2-14.2c-0.6-0.6-1.2-0.7-2-0.7l-9.7-0.2c-0.5,0-0.9,0.2-0.9,0.9v1.5c0,9.7,0.1,17.8,0.6,22.2
			c0.4,3,0.9,5,4.2,5.5c1.6,0.3,3.9,0.4,5.3,0.4c0.9,0,1.3,0.6,1.3,1.1c0,0.7-0.9,1.1-2.2,1.1c-6.3,0-15.2-0.4-16.8-0.4
			c-2.1,0-8.9,0.4-13.2,0.4c-1.3,0-2.1-0.4-2.1-1.1c0-0.5,0.4-1.1,1.7-1.1c1.6,0,2.8-0.1,3.8-0.4c2.2-0.5,2.8-2.5,3.2-5.5
			c0.5-4.4,0.5-12.6,0.5-22.2V715.8z M2284.5,723.9c0,1.1,0.2,1.5,1,1.8c2.3,0.7,5.5,1,8.2,1c4.3,0,5.7-0.4,7.6-1.7
			c3.3-2.3,7-6.9,7-15.4c0-14.7-10.1-18.5-16.4-18.5c-2.7,0-5.3,0.1-6.4,0.4c-0.7,0.2-1,0.6-1,1.5V723.9z"/>
	</g>
</g>
<g>
	<path class="st2" d="M431.8,1004.7c-193.9-70.2-319.2-239.6-319.2-431.4c0-148.1,77.9-288.4,208.3-375.4l4.7,7
		c-128.1,85.4-204.5,223.1-204.5,368.3c0,188.2,123.1,354.4,313.6,423.4L431.8,1004.7z"/>
</g>
<g>
	<path class="st2" d="M121.7,756.8c0,0,27.3,10.7,49.6,25.2"/>
</g>
<g>
	<path class="st2" d="M136.3,706.5c0,0-4.1-21.7,51.1-67.4"/>
</g>
<g>
	<path class="st2" d="M193.4,291.4c0,0-11.2,42.8-18.8,64"/>
</g>
<g>
	<path class="st2" d="M150.6,407.1c0,0,5.4-12.7,78.9-18.9"/>
</g>
<g>
	<path class="st2" d="M201.7,318.4c0,0,5.4-12.7,78.9-18.9"/>
</g>
<g>
	<path class="st2" d="M320.2,198.7c0,0-36.9,27-54.4,42.2"/>
</g>
<g>
	<path class="st2" d="M238.3,275.5c10.2-11.6,21.3-18.8,28.6-30.1c36.3-56.4,42.5-113.3,42.5-113.9l-8.9,17.3
		c0.6,2.4-2.7,43.8-42.1,100.9C252.5,258.3,245.8,267,238.3,275.5c0,0.1-0.1,0.1-0.1,0.2L238.3,275.5z"/>
</g>
<g>
	<path class="st2" d="M329.1,986c0,0,42.9-2.9,69.1-0.7"/>
</g>
<g>
	<path class="st2" d="M182.1,847.1c0,0,41.2,20.4,61,32.4"/>
</g>
<g>
	<path class="st2" d="M328.6,945.5c0,0-25.8-12.7-44.1-79.8"/>
</g>
<g>
	<path class="st2" d="M223,856.7c0,0-15.6-24.3,3.5-91.1"/>
</g>
<g>
	<path class="st2" d="M335.1,955.5c-12.7-8.8-21.2-18.9-33.3-24.8c-60.3-29.4-117.6-28.8-118.1-28.8l18.3,6.8
		c2.2-0.9,43.8-2.5,105.1,29.8C316.5,943.5,325.9,949.1,335.1,955.5c0.1,0,0.1,0.1,0.2,0.1L335.1,955.5z"/>
</g>
<g>
	<path class="st2" d="M2402.8,1006.5l-2.9-8c190.5-69,313.6-235.2,313.6-423.4c0-145.2-76.4-282.9-204.5-368.4l4.7-7
		c130.4,87,208.3,227.3,208.3,375.4C2722,766.9,2596.7,936.3,2402.8,1006.5z"/>
</g>
<g>
	<path class="st2" d="M2713,758.6c0,0-27.3,10.7-49.6,25.2"/>
</g>
<g>
	<path class="st2" d="M2745.1,587.5c0,0-24.9,48.3-33.3,68.8"/>
</g>
<g>
	<path class="st2" d="M2698.4,708.3c0,0,4.1-21.7-51.1-67.4"/>
</g>
<g>
	<path class="st2" d="M2736.8,448.2c0,0-17.4,36.8-24.1,60.7"/>
</g>
<g>
	<path class="st2" d="M2641.3,293.2c0,0,11.1,42.8,18.8,64"/>
</g>
<g>
	<path class="st2" d="M2633,320.2c0,0-5.4-12.8-78.9-18.9"/>
</g>
<g>
	<path class="st2" d="M2514.4,200.5c0,0,37,27,54.4,42.2"/>
</g>
<g>
	<path class="st2" d="M2596.3,277.2c-10.2-11.6-21.3-18.9-28.6-30.1c-36.3-56.4-42.5-113.3-42.6-113.9l8.9,17.3
		c-0.7,2.4,2.7,43.8,42.1,100.9C2582.1,260.1,2588.9,268.8,2596.3,277.2c0.1,0.1,0.1,0.1,0.1,0.2L2596.3,277.2z"/>
</g>
<g>
	<path class="st2" d="M2505.5,987.7c0,0-42.9-2.9-69.2-0.7"/>
</g>
<g>
	<path class="st2" d="M2652.5,848.9c0,0-41.2,20.4-61,32.4"/>
</g>
<g>
	<path class="st2" d="M2506,947.3c0,0,25.9-12.7,44.2-79.8"/>
</g>
<g>
	<path class="st2" d="M2611.7,858.5c0,0,15.6-24.3-3.4-91.1"/>
</g>
<g>
	<g>
		<path class="st0" d="M155.4,773.6C119.7,768.8,30.6,735.4,0,666.9C0,666.9,105.1,676.3,155.4,773.6"/>
	</g>
	<g>
		<path class="st0" d="M127.1,557.9c1.2-26,21.5-90.9,75.5-111.5C202.6,446.4,203.2,523.7,127.1,557.9"/>
	</g>
	<g>
		<path class="st0" d="M104.5,617.8c-24.1-18.7-72-80.2-56.9-140.7C47.6,477.2,120.9,529.1,104.5,617.8"/>
	</g>
	<g>
		<path class="st0" d="M51.2,626.4c8.6-8.9,27.9-6.6,43.1,5.2c15.2,11.8,20.6,28.6,12,37.5c-8.6,8.9-27.9,6.7-43.2-5.2
			C48,652.1,42.6,635.3,51.2,626.4"/>
	</g>
	<g>
		<path class="st0" d="M201.2,684.2c14.6,5.3,20.3,22.9,12.8,39.3c-7.5,16.4-25.4,25.4-39.9,20.1c-14.5-5.2-20.3-22.8-12.7-39.2
			C168.8,688,186.7,679,201.2,684.2"/>
	</g>
	<g>
		<path class="st0" d="M171.6,569c13.6,5.9,17.6,23.1,9.1,38.4c-8.5,15.3-26.5,22.8-40.1,16.9c-13.5-6-17.6-23.1-9-38.4
			C140.1,570.6,158,563.1,171.6,569"/>
	</g>
	<g>
		<path class="st0" d="M141.1,688.3c7.6-26.4,46.8-90.3,116.7-105.3C257.9,583,240.9,661.8,141.1,688.3"/>
	</g>
	<g>
		<path class="st0" d="M111.6,478.6C88,455,44,379.1,68.8,307.1C68.8,307.1,141.6,372.6,111.6,478.6"/>
	</g>
	<g>
		<path class="st0" d="M246.9,303.1c28.9-13.7,112.3-31.8,169.8,6.5C416.7,309.6,333.6,354.2,246.9,303.1"/>
	</g>
	<g>
		<path class="st0" d="M182.8,325.7c-5.5-28.3,0-104.2,53-145.2C235.8,180.5,256.1,262.3,182.8,325.7"/>
	</g>
	<g>
		<path class="st0" d="M135.6,302.8c12.8-2.5,25.7,10.1,29,27.9c3.2,17.9-4.4,34.3-17.1,36.8c-12.7,2.4-25.7-10.1-29-28
			C115.3,321.6,123,305.2,135.6,302.8"/>
	</g>
	<g>
		<path class="st0" d="M207.5,430.2c7.3,12.1-0.6,29.3-17.6,38.2c-17,8.9-36.6,6.4-43.8-5.8c-7.2-12.1,0.7-29.2,17.6-38.2
			C180.7,415.5,200.3,418.1,207.5,430.2"/>
	</g>
	<g>
		<path class="st0" d="M266.5,323.2c6.2,12.3-2.8,28.3-19.9,35.8c-17.1,7.5-35.9,3.7-42-8.6c-6-12.2,2.9-28.3,20-35.8
			C241.7,307.1,260.5,310.9,266.5,323.2"/>
	</g>
	<g>
		<path class="st0" d="M160.4,402.1c24.1-17,98.3-46.7,161.5-20.2C321.9,382,254.1,436,160.4,402.1"/>
	</g>
	<g>
		<path class="st0" d="M302.3,160.7c18-26.3,47.6-103.6,14.6-160.7C316.9,0,259.6,75.1,302.3,160.7"/>
	</g>
	<g>
		<path class="st0" d="M291.3,221.8c29.8-6.9,101.3-42.7,119-104.8C410.3,117.1,322.3,133.3,291.3,221.8"/>
	</g>
	<g>
		<path class="st0" d="M329.5,253.2c-2.6-11.9-19-18.2-36.5-14.1c-17.4,4.1-29.5,17.1-26.8,28.9c2.6,11.9,19,18.2,36.5,14.1
			C320.2,278,332.2,265.1,329.5,253.2"/>
	</g>
	<g>
		<path class="st0" d="M266.6,141.4c-13.2-0.3-24.2,12.5-24.7,28.6c-0.4,16.1,9.9,29.5,23.1,29.8c13.1,0.3,24.2-12.5,24.7-28.6
			C290.1,155,279.8,141.7,266.6,141.4"/>
	</g>
	<g>
		<path class="st0" d="M366.1,984.7c-31.8,12.9-123,26-186.7-20.2C179.3,964.5,270.1,922.5,366.1,984.7"/>
	</g>
	<g>
		<path class="st0" d="M214.7,864.9c-30.5-1.7-107.4-25-135.8-83.1C78.9,781.9,168.6,782.9,214.7,864.9"/>
	</g>
	<g>
		<path class="st0" d="M190.4,907.7c1.9-12,18.9-19.2,38-16.1c19,3.2,33,15.5,31,27.5c-1.9,12-18.9,19.2-38,16
			C202.4,932,188.5,919.7,190.4,907.7"/>
	</g>
	<g>
		<path class="st0" d="M360.4,891.2c14.5-2.2,28.8,10.4,31.9,28.1c3.1,17.7-6,33.9-20.5,36.1c-14.5,2.3-28.7-10.3-31.8-28
			C336.7,909.6,346,893.4,360.4,891.2"/>
	</g>
	<g>
		<path class="st0" d="M310,927c-21.4-18.6-64.2-80.9-47-145.9C263,781.1,329.8,831.8,310,927"/>
	</g>
	<g>
		<path class="st0" d="M216.6,831.3c-8.7-27-13.1-102.4,35.3-149.1C251.8,682.1,282.8,760,216.6,831.3"/>
	</g>
	<g>
		<path class="st0" d="M213.6,905.6c-28.2-14.8-108.5-35.1-161.3,4.5C52.4,910.1,133.7,958.1,213.6,905.6"/>
	</g>
	<g>
		<path class="st0" d="M2679.2,775.4c35.7-4.8,124.8-38.2,155.4-106.7C2834.6,668.7,2729.5,678.1,2679.2,775.4"/>
	</g>
	<g>
		<path class="st0" d="M2707.5,559.7c-1.2-26-21.5-90.9-75.5-111.5C2632.1,448.2,2631.4,525.5,2707.5,559.7"/>
	</g>
	<g>
		<path class="st0" d="M2730.1,619.6c24.1-18.7,72.1-80.2,56.9-140.7C2787,478.9,2713.7,530.8,2730.1,619.6"/>
	</g>
	<g>
		<path class="st0" d="M2783.5,628.2c-8.6-8.9-27.9-6.6-43.1,5.2c-15.2,11.8-20.6,28.6-12,37.5c8.5,8.9,27.9,6.7,43.2-5.2
			C2786.6,653.9,2792,637.1,2783.5,628.2"/>
	</g>
	<g>
		<path class="st0" d="M2633.5,686c-14.6,5.3-20.3,22.9-12.8,39.3c7.6,16.4,25.4,25.4,39.9,20.1c14.5-5.2,20.3-22.8,12.8-39.3
			C2665.8,689.8,2647.9,680.8,2633.5,686"/>
	</g>
	<g>
		<path class="st0" d="M2663.1,570.8c-13.6,5.9-17.6,23.1-9.1,38.4c8.6,15.3,26.5,22.8,40.1,16.9c13.5-6,17.6-23.1,9-38.4
			C2694.5,572.4,2676.6,564.8,2663.1,570.8"/>
	</g>
	<g>
		<path class="st0" d="M2693.5,690c-7.5-26.4-46.8-90.3-116.7-105.3C2576.8,584.8,2593.7,663.6,2693.5,690"/>
	</g>
	<g>
		<path class="st0" d="M2723,480.3c23.6-23.6,67.6-99.5,42.8-171.5C2765.8,308.9,2693.1,374.4,2723,480.3"/>
	</g>
	<g>
		<path class="st0" d="M2587.8,304.8c-28.9-13.7-112.3-31.8-169.8,6.5C2417.9,311.3,2501,356,2587.8,304.8"/>
	</g>
	<g>
		<path class="st0" d="M2651.8,327.5c5.5-28.3,0.1-104.2-53-145.2C2598.9,182.3,2578.5,264.1,2651.8,327.5"/>
	</g>
	<g>
		<path class="st0" d="M2699,304.6c-12.8-2.5-25.7,10.1-29,27.9c-3.3,17.9,4.3,34.3,17,36.8c12.7,2.4,25.7-10.1,29-28
			C2719.3,323.4,2711.7,307,2699,304.6"/>
	</g>
	<g>
		<path class="st0" d="M2627.1,432c-7.3,12.1,0.6,29.3,17.6,38.2c17,8.9,36.6,6.4,43.8-5.8c7.2-12.1-0.7-29.2-17.6-38.1
			C2653.9,417.3,2634.3,419.9,2627.1,432"/>
	</g>
	<g>
		<path class="st0" d="M2568.1,324.9c-6.1,12.3,2.8,28.3,19.9,35.9c17.1,7.5,35.9,3.7,42-8.6c6.1-12.2-2.8-28.3-20-35.8
			C2592.9,308.8,2574.2,312.7,2568.1,324.9"/>
	</g>
	<g>
		<path class="st0" d="M2674.3,403.9c-24.1-17-98.3-46.7-161.6-20.2C2512.7,383.7,2580.5,437.7,2674.3,403.9"/>
	</g>
	<g>
		<path class="st0" d="M2684,408.9c0,0-5.4-12.7-78.9-18.9"/>
	</g>
	<g>
		<path class="st0" d="M2532.3,162.5c-18-26.3-47.6-103.6-14.6-160.7C2517.7,1.8,2575.1,76.9,2532.3,162.5"/>
	</g>
	<g>
		<path class="st0" d="M2543.3,223.6c-29.8-6.9-101.3-42.7-119-104.8C2424.3,118.8,2512.4,135,2543.3,223.6"/>
	</g>
	<g>
		<path class="st0" d="M2505.1,255c2.7-11.9,19-18.2,36.5-14.1c17.5,4.1,29.5,17.1,26.9,28.9c-2.6,11.9-19,18.2-36.5,14.1
			C2514.4,279.8,2502.4,266.9,2505.1,255"/>
	</g>
	<g>
		<path class="st0" d="M2568,143.2c13.2-0.3,24.3,12.5,24.7,28.6c0.4,16.1-9.9,29.5-23,29.8c-13.1,0.3-24.2-12.5-24.6-28.6
			C2544.6,156.8,2554.9,143.5,2568,143.2"/>
	</g>
	<g>
		<path class="st0" d="M2468.6,986.5c31.7,12.9,123,26,186.8-20.1C2655.3,966.3,2564.5,924.3,2468.6,986.5"/>
	</g>
	<g>
		<path class="st0" d="M2619.9,866.7c30.5-1.7,107.4-25,135.8-83C2755.7,783.7,2666,784.8,2619.9,866.7"/>
	</g>
	<g>
		<path class="st0" d="M2644.2,909.5c-1.9-12-18.9-19.2-38-16.1c-19,3.2-32.9,15.4-31,27.5c1.9,12,18.9,19.2,38,16
			C2632.3,933.8,2646.2,921.5,2644.2,909.5"/>
	</g>
	<g>
		<path class="st0" d="M2474.3,893c-14.5-2.2-28.8,10.4-31.9,28.1c-3.1,17.7,6.1,33.9,20.5,36.1c14.5,2.3,28.7-10.3,31.8-28
			C2497.9,911.4,2488.7,895.2,2474.3,893"/>
	</g>
	<g>
		<path class="st0" d="M2524.6,928.8c21.5-18.6,64.2-80.9,47-145.9C2571.6,782.9,2504.9,833.6,2524.6,928.8"/>
	</g>
	<g>
		<path class="st0" d="M2618,833c8.8-27,13.1-102.4-35.2-149.2C2582.8,683.9,2551.9,761.8,2618,833"/>
	</g>
	<g>
		<path class="st0" d="M2621,907.3c28.2-14.8,108.5-35.1,161.3,4.5C2782.3,911.9,2700.9,959.9,2621,907.3"/>
	</g>
</g>
<g>
	<path class="st2" d="M2499.5,957.3c12.7-8.8,21.2-18.9,33.3-24.8c60.3-29.4,117.6-28.8,118.1-28.8l-18.3,6.8
		c-2.2-0.9-43.8-2.5-105.1,29.8C2518.2,945.2,2508.7,950.9,2499.5,957.3c-0.1,0-0.1,0.1-0.2,0.1L2499.5,957.3z"/>
</g>
<g>
	<g>
		<path class="st1" d="M632.2,517.4c-2.3,0-2.7,0.5-3.7,2.8L607,572.3c-4.1,9.6-5.9,19.2-5.9,23.8c0,6.9,3.7,11,16,11h5.9
			c5,0,5.9,1.8,5.9,4.1c0,3.2-2.3,4.1-6.4,4.1c-13.3,0-32-1.4-44.8-1.4c-4.1,0-25.6,1.4-46.6,1.4c-5,0-7.3-0.9-7.3-4.1
			c0-2.3,1.4-4.1,4.6-4.1c3.7,0,8.2-0.5,11.9-0.5c18.3-2.7,25.1-14.6,33.4-34.3l105.1-244.5c4.6-11,7.8-15.5,11.9-15.5
			c5.9,0,7.8,3.7,11.9,12.3c9.6,21.5,76.8,180.5,102.4,239.5c15.5,35.2,27,40.2,34.3,41.6c5.9,0.9,10.5,1.4,15.1,1.4
			c3.7,0,5.5,1.4,5.5,4.1c0,3.2-2.3,4.1-17.4,4.1c-14.2,0-43.4,0-77.2-0.9c-7.3-0.5-11.9-0.5-11.9-3.2c0-2.3,0.9-3.6,5-4.1
			c2.7-0.5,5.5-4.1,3.7-8.7l-31.1-78.2c-0.9-2.3-2.3-2.8-4.1-2.8H632.2z M718.1,496c1.8,0,2.3-0.9,1.8-2.3L682,394.9
			c-0.5-1.4-0.9-3.7-1.8-3.7c-1.4,0-1.8,2.3-2.3,3.7L639,493.2c-0.9,1.8,0,2.8,1.4,2.8H718.1z"/>
	</g>
	<g>
		<path class="st1" d="M974.5,562.2c0.9,30.2,5.9,39.3,13.7,42.1c6.9,2.3,14.6,2.7,21,2.7c4.6,0,6.8,1.8,6.8,4.1
			c0,3.2-3.7,4.1-9.1,4.1c-26.1,0-44.8-1.4-52.1-1.4c-3.7,0-22.9,1.4-43.4,1.4c-5.5,0-9.1-0.5-9.1-4.1c0-2.3,2.7-4.1,6.4-4.1
			c5.5,0,12.8-0.5,18.3-1.8c10.5-2.8,11.9-13.3,12.3-47.1l3.7-230.4c0-7.8,2.7-13.3,6.9-13.3c5,0,10.5,5.9,17.4,12.8
			c5,5,65.4,66.7,123.9,123.9c27.4,27,80.9,81.8,86.8,87.3h1.8l-4.1-172.8c-0.5-23.8-4.1-30.6-13.7-34.3c-5.9-2.3-15.5-2.3-21-2.3
			c-5,0-6.4-1.8-6.4-4.1c0-3.2,4.1-3.7,10.1-3.7c21,0,42.5,0.9,51.2,0.9c4.6,0,19.7-0.9,39.3-0.9c5.5,0,9.1,0.5,9.1,3.7
			c0,2.3-2.3,4.1-6.9,4.1c-4.1,0-7.3,0-12.3,1.4c-11,3.2-14.2,10.1-14.6,32l-4.6,245c0,8.7-3.2,12.3-6.4,12.3
			c-6.9,0-12.3-4.1-16.5-8.2c-25.1-23.3-75.4-71.3-117.5-112c-43.9-42-86.4-89.1-94.2-96h-1.4L974.5,562.2z"/>
	</g>
	<g>
		<path class="st1" d="M1624.8,589.2c0,10.5,0,11-5,13.7c-27,13.3-66.7,17.4-98.3,17.4c-98.7,0-186-44.8-186-152.2
			c0-62.2,33.4-105.6,70.4-127.1c38.4-22.4,74.5-25.1,108.3-25.1c27.9,0,63.1,4.6,71.3,6.4c8.2,1.4,22.4,3.7,32,4.1
			c4.6,0.5,5.5,1.8,5.5,4.6c0,4.6-2.8,15.1-2.8,64c0,5.9-2.3,8.7-5.5,8.7c-2.7,0-3.6-1.8-4.1-5c-0.9-8.7-3.2-21-13.7-32
			c-11.9-12.3-42.1-29.7-87.3-29.7c-21.9,0-49.8,0.5-77.7,22.9c-22.4,18.3-37,47.1-37,94.6c0,83.6,53.9,144.4,139.9,144.4
			c10.5,0,18.8,0,28.3-4.1c5.9-2.7,7.8-6.9,7.8-13.7v-35.6c0-19.2,0-33.8-0.4-45.7c-0.5-13.3-4.6-17.4-17.4-21
			c-3.2-0.9-10.1-1.4-15.5-1.4c-3.7,0-6.4-1.8-6.4-4.1c0-3.2,3.2-3.7,8.7-3.7c21,0,49.8,0.9,61.7,0.9c12.8,0,33.8-0.9,47.1-0.9
			c5.5,0,8.2,0.5,8.2,3.7c0,2.3-2.3,4.1-5,4.1c-3.2,0-6.4,0.5-11,1.4c-11,1.8-15.1,7.3-15.5,21c-0.5,11.9-0.5,27.4-0.5,46.6V589.2z"
			/>
	</g>
	<g>
		<path class="st1" d="M1765.6,433.8c0-59,0.5-69.9-0.5-82.3c-0.9-13.7-4.6-17.4-17.4-21c-3.2-0.9-10.1-1.4-15.5-1.4
			c-4.6,0-6.9-1.4-6.9-4.1c0-2.8,2.7-3.7,8.7-3.7c21.5,0,48.5,0.9,60.3,0.9c10.1,0,37-0.9,51.6-0.9c5.9,0,8.7,0.9,8.7,3.7
			c0,2.7-2.3,4.1-6.4,4.1c-4.6,0-6.8,0.5-11.9,1.4c-10.5,1.8-13.7,7.3-14.6,21c-0.9,12.3-0.9,23.3-0.9,82.3v54.4
			c0,56.7,11,78.6,30.6,94.2c17.8,14.2,37,15.5,50.7,15.5c17.4,0,37.9-5,54-20.6c22.4-21,23.3-54.8,23.3-94.6v-48.9
			c0-59-0.5-69.9-0.9-82.3c-0.9-13.3-4.1-17.4-16.9-21c-3.2-0.9-10.1-1.4-14.6-1.4c-4.6,0-6.9-1.4-6.9-4.1c0-2.8,2.7-3.7,8.2-3.7
			c20.6,0,47.5,0.9,48,0.9c4.6,0,31.5-0.9,47.1-0.9c5.5,0,8.2,0.9,8.2,3.7c0,2.7-2.3,4.1-6.9,4.1c-4.6,0-6.9,0.5-11.9,1.4
			c-11,1.8-13.7,7.3-14.6,21c-0.4,12.3-0.9,23.3-0.9,82.3v41.6c0,43.4-4.6,89.1-38.4,117c-28.3,23.8-59,27.9-85,27.9
			c-21,0-62.6-0.9-91.9-26.5c-20.6-17.8-36.6-46.6-36.6-102.8V433.8z"/>
	</g>
	<g>
		<path class="st1" d="M2154,610.2c-6.4-2.7-7.8-4.6-7.8-13.3c0-21,1.8-45.3,2.3-51.6c0-5.9,1.8-10.1,5-10.1c3.7,0,4.1,3.6,4.1,6.4
			c0,5,1.4,13.2,3.6,20.1c8.7,28.8,38.9,38.4,64,38.4c34.7,0,55.8-21.9,55.8-49.4c0-16.9-4.1-33.8-39.8-54.8l-23.3-13.7
			c-47.5-27.9-63.1-53.9-63.1-88.2c0-47.5,45.7-78.2,101.5-78.2c26.1,0,46.6,3.7,57.1,6.4c3.7,0.9,5.5,2.3,5.5,5
			c0,5-1.4,16-1.4,46.6c0,8.2-1.8,12.3-5,12.3c-2.8,0-4.1-2.3-4.1-6.9c0-3.7-1.8-15.5-10.5-25.6c-5.9-7.3-18.7-18.3-44.8-18.3
			c-28.8,0-54.8,15.1-54.8,41.6c0,17.4,6.4,31.1,42.5,51.2l16.4,9.1c53,29.3,69.5,59,69.5,94.1c0,28.8-11,52.1-40.2,72.7
			c-19.2,13.7-45.7,16-67.2,16C2196.1,620.3,2171.4,618,2154,610.2z"/>
	</g>
</g>
</svg>
