<?xml version="1.0" encoding="utf-8"?>
<!-- Generator: Adobe Illustrator 15.1.0, SVG Export Plug-In . SVG Version: 6.00 Build 0)  -->
<!DOCTYPE svg PUBLIC "-//W3C//DTD SVG 1.1//EN" "http://www.w3.org/Graphics/SVG/1.1/DTD/svg11.dtd">
<svg version="1.1" id="Capa_1" xmlns="http://www.w3.org/2000/svg" xmlns:xlink="http://www.w3.org/1999/xlink" x="0px" y="0px"
	 width="1150.101px" height="461.977px" viewBox="-20.736 -273.868 1150.101 461.977"
	 enable-background="new -20.736 -273.868 1150.101 461.977" xml:space="preserve">
<g>
	<g>
		<path fill="none" stroke="#AC9864" stroke-width="2.802" d="M132.573,150.347C67.001,126.585,20.619,67.846,20.619-0.881
			c0-54.117,28.766-102.052,73.027-131.579"/>
		<path fill="#AC9864" d="M22.32,64.035c0,0,9.667,3.784,17.548,8.916"/>
		<path fill="#AC9864" d="M10.937,3.486c0,0,8.826,17.102,11.784,24.352"/>
		<path fill="#AC9864" d="M27.479,46.247c0,0-1.454-7.687,18.092-23.845"/>
		<path fill="#AC9864" d="M13.893-45.788c0,0,6.16,13.014,8.533,21.476"/>
		<path fill="#AC9864" d="M47.691-100.634c0,0-3.943,15.151-6.646,22.657"/>
		<path fill="#AC9864" d="M32.564-59.686c0,0,1.917-4.506,27.924-6.701"/>
		<path fill="#AC9864" d="M50.619-91.07c0,0,1.927-4.508,27.934-6.695"/>
		<path fill="#AC9864" d="M92.565-133.435c0,0-13.069,9.559-19.238,14.948"/>
		<path fill="#AC9864" d="M63.584-106.281c3.624-4.088,7.552-6.666,10.117-10.652c12.84-19.945,15.023-40.099,15.057-40.297
			l-3.138,6.128c0.226,0.835-0.951,15.493-14.885,35.689C68.609-112.34,66.219-109.258,63.584-106.281
			c-0.015,0.021-0.035,0.046-0.046,0.067L63.584-106.281z"/>
		<path fill="#AC9864" d="M95.709,145.111c0,0,15.166-1.021,24.466-0.256"/>
		<path fill="#AC9864" d="M43.714,95.973c0,0,14.577,7.205,21.595,11.484"/>
		<path fill="#AC9864" d="M95.53,130.8c0,0-9.136-4.5-15.62-28.227"/>
		<path fill="#AC9864" d="M58.151,99.378c0,0-5.517-8.576,1.222-32.239"/>
		<path fill="#AC9864" d="M97.848,134.345c-4.487-3.11-7.517-6.701-11.778-8.78c-21.334-10.396-41.602-10.185-41.789-10.198
			l6.463,2.412c0.793-0.337,15.486-0.895,37.185,10.561C91.239,130.082,94.586,132.072,97.848,134.345
			c0.033,0.014,0.053,0.023,0.081,0.037L97.848,134.345z"/>
		<path fill="#B6A277" d="M34.252,69.984C21.606,68.297-9.922,56.479-20.736,32.223C-20.736,32.225,16.447,35.555,34.252,69.984"/>
		<path fill="#B6A277" d="M24.243-6.347c0.432-9.206,7.597-32.167,26.7-39.441C50.942-45.789,51.17-18.441,24.243-6.347"/>
		<path fill="#B6A277" d="M16.248,14.862C7.73,8.237-9.246-13.516-3.886-34.913C-3.886-34.913,22.053-16.542,16.248,14.862"/>
		<path fill="#B6A277" d="M-2.633,17.886c3.038-3.163,9.873-2.327,15.266,1.83c5.384,4.171,7.3,10.112,4.257,13.265
			c-3.031,3.158-9.86,2.356-15.271-1.824C-3.758,26.985-5.654,21.048-2.633,17.886"/>
		<path fill="#B6A277" d="M50.449,38.364c5.164,1.863,7.173,8.097,4.512,13.902c-2.667,5.798-8.976,8.99-14.12,7.118
			c-5.142-1.845-7.179-8.073-4.512-13.878C39.001,39.697,45.324,36.509,50.449,38.364"/>
		<path fill="#B6A277" d="M39.967-2.41c4.801,2.108,6.234,8.187,3.218,13.587c-3.025,5.398-9.366,8.063-14.176,5.965
			c-4.787-2.111-6.213-8.179-3.188-13.585C28.847-1.852,35.171-4.519,39.967-2.41"/>
		<path fill="#B6A277" d="M29.2,39.789C31.874,30.463,45.759,7.833,70.498,2.53C70.498,2.53,64.505,30.424,29.2,39.789"/>
		<path fill="#B6A277" d="M18.761-34.412C10.404-42.751-5.157-69.626,3.61-95.085C3.61-95.085,29.358-71.894,18.761-34.412"/>
		<path fill="#B6A277" d="M66.618-96.513c10.227-4.833,39.729-11.268,60.085,2.301C126.702-94.212,97.311-78.431,66.618-96.513"/>
		<path fill="#B6A277" d="M43.937-88.498c-1.959-9.999-0.013-36.873,18.754-51.386C62.692-139.883,69.894-110.917,43.937-88.498"/>
		<path fill="#B6A277" d="M27.257-96.605c4.518-0.869,9.089,3.564,10.261,9.886c1.146,6.316-1.541,12.15-6.03,13.003
			c-4.506,0.863-9.113-3.565-10.269-9.9C20.077-89.941,22.779-95.755,27.257-96.605"/>
		<path fill="#B6A277" d="M52.694-51.526c2.575,4.295-0.226,10.355-6.211,13.514c-6.014,3.166-12.942,2.255-15.501-2.048
			c-2.553-4.296,0.233-10.34,6.234-13.501C43.217-56.723,50.138-55.818,52.694-51.526"/>
		<path fill="#B6A277" d="M73.563-89.403c2.173,4.345-1,10.007-7.043,12.686c-6.047,2.66-12.699,1.312-14.856-3.033
			c-2.133-4.327,1.013-10.003,7.073-12.662C64.783-95.093,71.426-93.741,73.563-89.403"/>
		<path fill="#B6A277" d="M36.006-61.459c8.533-6.014,34.786-16.524,57.155-7.133C93.161-68.592,69.18-49.489,36.006-61.459"/>
		<path fill="#B6A277" d="M86.235-146.887c6.371-9.29,16.847-36.661,5.163-56.855C91.398-203.742,71.104-177.158,86.235-146.887"/>
		<path fill="#B6A277" d="M82.339-125.262c10.532-2.439,35.852-15.11,42.118-37.065C124.457-162.327,93.287-156.594,82.339-125.262"
			/>
		<path fill="#B6A277" d="M95.856-114.151c-0.938-4.201-6.708-6.448-12.902-4.998c-6.165,1.455-10.438,6.038-9.493,10.242
			c0.928,4.202,6.727,6.444,12.92,4.999C92.554-105.366,96.804-109.941,95.856-114.151"/>
		<path fill="#B6A277" d="M73.594-153.714c-4.658-0.122-8.571,4.417-8.733,10.133c-0.147,5.701,3.495,10.438,8.162,10.552
			c4.645,0.119,8.571-4.416,8.722-10.128C81.905-148.886,78.261-153.596,73.594-153.714"/>
		<path fill="#B6A277" d="M108.796,144.673c-11.241,4.559-43.534,9.188-66.075-7.135C42.721,137.539,74.835,122.669,108.796,144.673
			"/>
		<path fill="#B6A277" d="M55.239,102.298c-10.798-0.615-37.993-8.835-48.041-29.383C7.198,72.915,38.921,73.285,55.239,102.298"/>
		<path fill="#B6A277" d="M46.625,117.441c0.683-4.264,6.705-6.803,13.448-5.699c6.733,1.129,11.664,5.471,10.963,9.721
			c-0.678,4.265-6.692,6.8-13.457,5.675C50.864,126.033,45.95,121.681,46.625,117.441"/>
		<path fill="#B6A277" d="M106.778,111.576c5.124-0.793,10.191,3.661,11.271,9.939c1.111,6.266-2.143,11.986-7.26,12.773
			c-5.117,0.805-10.166-3.638-11.265-9.918C98.414,118.091,101.68,112.369,106.778,111.576"/>
		<path fill="#B6A277" d="M88.962,124.248c-7.589-6.578-22.72-28.616-16.63-51.626C72.332,72.622,95.951,90.573,88.962,124.248"/>
		<path fill="#B6A277" d="M55.898,90.379c-3.091-9.547-4.631-36.241,12.477-52.77C68.375,37.609,79.311,65.173,55.898,90.379"/>
		<path fill="#B6A277" d="M54.851,116.667c-9.978-5.237-38.396-12.402-57.063,1.598C-2.213,118.266,26.58,135.272,54.851,116.667"/>
	</g>
	<g>
		<path fill="none" stroke="#AC9864" stroke-width="2.802" d="M976.048,150.979C1041.625,127.223,1088,68.48,1088-0.248
			c0-54.122-28.762-102.055-73.021-131.584"/>
		<path fill="#AC9864" d="M1086.31,64.667c0,0-9.672,3.781-17.551,8.916"/>
		<path fill="#AC9864" d="M1097.687,4.115c0,0-8.813,17.096-11.777,24.356"/>
		<path fill="#AC9864" d="M1081.148,46.879c0,0,1.449-7.697-18.09-23.841"/>
		<path fill="#AC9864" d="M1094.728-45.158c0,0-6.164,13.021-8.529,21.473"/>
		<path fill="#AC9864" d="M1060.935-100.001c0,0,3.941,15.15,6.646,22.655"/>
		<path fill="#AC9864" d="M1058-90.44c0,0-1.924-4.513-27.926-6.699"/>
		<path fill="#AC9864" d="M1016.056-132.807c0,0,13.08,9.563,19.242,14.948"/>
		<path fill="#AC9864" d="M1045.039-105.648c-3.619-4.097-7.547-6.673-10.111-10.653c-12.844-19.953-15.027-40.099-15.057-40.295
			l3.141,6.121c-0.238,0.834,0.943,15.504,14.883,35.686C1040.019-111.711,1042.414-108.626,1045.039-105.648
			c0.016,0.021,0.023,0.047,0.051,0.067L1045.039-105.648z"/>
		<path fill="#AC9864" d="M1012.916,145.733c0,0-15.154-1.015-24.461-0.253"/>
		<path fill="#AC9864" d="M1064.904,96.603c0,0-14.57,7.209-21.59,11.478"/>
		<path fill="#AC9864" d="M1013.091,131.425c0,0,9.146-4.5,15.627-28.226"/>
		<path fill="#AC9864" d="M1050.476,100.009c0,0,5.514-8.581-1.219-32.24"/>
		<path fill="#B6A277" d="M1074.378,70.619c12.635-1.689,44.168-13.508,54.986-37.764
			C1129.365,32.855,1092.177,36.179,1074.378,70.619"/>
		<path fill="#B6A277" d="M1084.384-5.72c-0.43-9.206-7.594-32.17-26.707-39.438C1057.681-45.158,1057.457-17.815,1084.384-5.72"/>
		<path fill="#B6A277" d="M1092.375,15.5c8.523-6.626,25.498-28.389,20.143-49.78C1112.515-34.281,1086.568-15.914,1092.375,15.5"/>
		<path fill="#B6A277" d="M1111.25,18.517c-3.035-3.164-9.855-2.336-15.252,1.827c-5.385,4.179-7.303,10.109-4.266,13.26
			c3.029,3.161,9.865,2.358,15.277-1.824C1112.376,27.618,1114.285,21.67,1111.25,18.517"/>
		<path fill="#B6A277" d="M1058.183,38.996c-5.17,1.856-7.176,8.092-4.52,13.893c2.678,5.799,8.979,8.989,14.125,7.128
			c5.135-1.851,7.174-8.073,4.52-13.889C1069.628,40.338,1063.302,37.134,1058.183,38.996"/>
		<path fill="#B6A277" d="M1068.662-1.779c-4.801,2.099-6.232,8.182-3.219,13.585c3.027,5.396,9.361,8.066,14.178,5.97
			c4.773-2.112,6.209-8.188,3.186-13.595C1079.781-1.217,1073.449-3.887,1068.662-1.779"/>
		<path fill="#B6A277" d="M1079.425,40.418c-2.67-9.331-16.557-31.96-41.297-37.257C1038.13,3.161,1044.115,31.063,1079.425,40.418"
			/>
		<path fill="#B6A277" d="M1089.871-33.788c8.35-8.336,23.908-35.208,15.139-60.669
			C1105.011-94.457,1079.267-71.267,1089.871-33.788"/>
		<path fill="#B6A277" d="M1042.009-95.884c-10.227-4.834-39.725-11.268-60.09,2.303
			C981.919-93.581,1011.322-77.798,1042.009-95.884"/>
		<path fill="#B6A277" d="M1064.683-87.868c1.963-10.004,0.023-36.872-18.742-51.387
			C1045.937-139.256,1038.73-110.289,1064.683-87.868"/>
		<path fill="#B6A277" d="M1081.369-95.976c-4.521-0.871-9.092,3.561-10.256,9.883c-1.154,6.318,1.533,12.152,6.031,13.003
			c4.496,0.865,9.104-3.564,10.254-9.893C1088.556-89.312,1085.843-95.12,1081.369-95.976"/>
		<path fill="#B6A277" d="M1055.931-50.902c-2.578,4.299,0.221,10.357,6.215,13.517c6.008,3.164,12.938,2.257,15.498-2.049
			c2.561-4.295-0.234-10.341-6.24-13.494C1065.414-56.1,1058.478-55.189,1055.931-50.902"/>
		<path fill="#B6A277" d="M1035.058-88.779c-2.168,4.345,1,10.01,7.043,12.687c6.059,2.663,12.703,1.313,14.855-3.03
			c2.141-4.33-1.004-10.003-7.064-12.666C1043.839-94.466,1037.205-93.11,1035.058-88.779"/>
		<path fill="#B6A277" d="M1072.617-60.827c-8.531-6.015-34.787-16.525-57.162-7.14
			C1015.457-67.967,1039.455-48.864,1072.617-60.827"/>
		<path fill="#B6A277" d="M1076.07-59.06c0,0-1.928-4.508-27.928-6.693"/>
		<path fill="#B6A277" d="M1022.388-146.257c-6.363-9.29-16.848-36.659-5.16-56.861
			C1017.228-203.117,1037.525-176.525,1022.388-146.257"/>
		<path fill="#B6A277" d="M1026.291-124.631c-10.543-2.44-35.855-15.111-42.121-37.063
			C984.169-161.693,1015.333-155.963,1026.291-124.631"/>
		<path fill="#B6A277" d="M1012.765-113.526c0.943-4.199,6.715-6.442,12.9-4.996c6.18,1.454,10.436,6.034,9.512,10.244
			c-0.938,4.203-6.732,6.45-12.926,4.993C1016.07-104.731,1011.82-109.314,1012.765-113.526"/>
		<path fill="#B6A277" d="M1035.027-153.086c4.664-0.118,8.574,4.417,8.73,10.13c0.15,5.709-3.494,10.44-8.154,10.557
			c-4.65,0.119-8.572-4.418-8.719-10.134C1026.728-148.255,1030.369-152.965,1035.027-153.086"/>
		<path fill="#B6A277" d="M999.833,145.296c11.23,4.564,43.525,9.188,66.078-7.127
			C1065.912,138.169,1033.785,123.298,999.833,145.296"/>
		<path fill="#B6A277" d="M1053.386,102.922c10.805-0.611,37.996-8.829,48.047-29.38
			C1101.429,73.542,1069.707,73.921,1053.386,102.922"/>
		<path fill="#B6A277" d="M1061.99,118.072c-0.676-4.259-6.688-6.806-13.441-5.703c-6.73,1.133-11.654,5.471-10.963,9.721
			c0.684,4.262,6.705,6.804,13.455,5.677C1057.759,126.66,1062.675,122.311,1061.99,118.072"/>
		<path fill="#B6A277" d="M1001.843,112.203c-5.121-0.789-10.188,3.668-11.271,9.938c-1.105,6.27,2.15,11.992,7.271,12.779
			c5.115,0.81,10.166-3.635,11.258-9.924C1010.207,118.728,1006.941,113.001,1001.843,112.203"/>
		<path fill="#B6A277" d="M1019.66,124.88c7.594-6.575,22.721-28.614,16.645-51.624C1036.302,73.256,1012.675,91.204,1019.66,124.88
			"/>
		<path fill="#B6A277" d="M1052.718,91.012c3.102-9.558,4.641-36.246-12.463-52.78C1040.255,38.233,1029.32,65.803,1052.718,91.012"
			/>
		<path fill="#B6A277" d="M1053.771,117.298c9.982-5.233,38.396-12.4,57.076,1.598
			C1110.847,118.896,1082.042,135.896,1053.771,117.298"/>
		<path fill="#AC9864" d="M1010.777,134.97c4.48-3.105,7.512-6.695,11.783-8.78c21.33-10.397,41.598-10.185,41.783-10.192
			l-6.467,2.412c-0.793-0.328-15.484-0.888-37.182,10.557C1017.38,130.714,1014.042,132.708,1010.777,134.97
			c-0.033,0.018-0.051,0.027-0.078,0.051L1010.777,134.97z"/>
	</g>
	<g>
		<g>
			<path fill="#E4DAC9" d="M200.285-125.778c0.238,0,0.476-0.159,0.476-0.555v-1.664c0-12.044,0-14.263-0.159-16.799
				c-0.158-2.693-0.792-3.962-3.407-4.517c-0.634-0.158-1.981-0.238-3.091-0.238c-0.872,0-1.347-0.158-1.347-0.712
				c0-0.555,0.555-0.713,1.665-0.713c4.278,0,9.271,0.238,11.41,0.238c1.902,0,6.894-0.238,9.985-0.238
				c1.108,0,1.663,0.158,1.663,0.713c0,0.554-0.475,0.712-1.427,0.712c-0.634,0-1.347,0.08-2.298,0.238
				c-2.139,0.397-2.773,1.744-2.931,4.517c-0.16,2.536-0.16,4.754-0.16,16.799v13.946c0,7.29,0,13.55,0.398,16.957
				c0.235,2.219,0.711,3.963,3.09,4.281c1.11,0.157,2.853,0.316,4.041,0.316c0.872,0,1.268,0.238,1.268,0.634
				c0,0.555-0.634,0.793-1.585,0.793c-5.149,0-10.143-0.238-12.361-0.238c-1.823,0-6.814,0.238-9.905,0.238
				c-1.109,0-1.664-0.238-1.664-0.793c0-0.396,0.317-0.634,1.268-0.634c1.188,0,2.14-0.159,2.853-0.316
				c1.584-0.318,1.981-2.062,2.299-4.36c0.396-3.328,0.396-9.588,0.396-16.879v-6.972c0-0.318-0.238-0.476-0.476-0.476h-30.27
				c-0.238,0-0.475,0.078-0.475,0.476v6.972c0,7.29,0,13.551,0.397,16.957c0.237,2.219,0.712,3.963,3.091,4.28
				c1.108,0.157,2.852,0.316,4.04,0.316c0.872,0,1.268,0.238,1.268,0.633c0,0.555-0.635,0.793-1.585,0.793
				c-5.149,0-10.143-0.238-12.361-0.238c-1.823,0-6.815,0.238-9.984,0.238c-1.031,0-1.584-0.238-1.584-0.793
				c0-0.396,0.317-0.633,1.268-0.633c1.188,0,2.14-0.159,2.853-0.316c1.585-0.317,1.981-2.061,2.299-4.36
				c0.396-3.328,0.396-9.587,0.396-16.878v-13.945c0-12.044,0-14.264-0.158-16.8c-0.159-2.693-0.793-3.963-3.409-4.517
				c-0.633-0.158-1.981-0.238-3.088-0.238c-0.874,0-1.348-0.158-1.348-0.712c0-0.554,0.554-0.713,1.664-0.713
				c4.279,0,9.271,0.238,11.41,0.238c1.902,0,6.895-0.238,9.985-0.238c1.109,0,1.663,0.159,1.663,0.713
				c0,0.554-0.475,0.712-1.427,0.712c-0.634,0-1.347,0.08-2.297,0.238c-2.139,0.396-2.774,1.743-2.931,4.517
				c-0.159,2.536-0.159,4.754-0.159,16.8v1.664c0,0.396,0.237,0.555,0.475,0.555h30.271v0.001H200.285z"/>
			<path fill="#E4DAC9" d="M246.623-111.752c-0.396,0-0.554,0.16-0.711,0.634l-4.278,11.331c-0.794,1.981-1.191,3.884-1.191,4.834
				c0,1.426,0.715,2.457,3.171,2.457h1.189c0.95,0,1.188,0.159,1.188,0.634c0,0.634-0.475,0.793-1.347,0.793
				c-2.536,0-5.943-0.238-8.398-0.238c-0.873,0-5.23,0.238-9.352,0.238c-1.029,0-1.505-0.159-1.505-0.793
				c0-0.475,0.317-0.634,0.95-0.634c0.714,0,1.823-0.078,2.457-0.159c3.645-0.475,5.151-3.169,6.735-7.132l19.889-49.763
				c0.95-2.298,1.426-3.168,2.217-3.168c0.714,0,1.189,0.713,1.981,2.536c1.902,4.357,14.58,36.688,19.651,48.733
				c3.012,7.131,5.31,8.241,6.973,8.638c1.189,0.237,2.377,0.316,3.33,0.316c0.633,0,1.029,0.079,1.029,0.634
				c0,0.634-0.713,0.793-3.644,0.793c-2.854,0-8.638,0-14.978-0.159c-1.426-0.079-2.376-0.079-2.376-0.634
				c0-0.475,0.316-0.634,1.108-0.712c0.556-0.159,1.11-0.873,0.713-1.823l-6.338-16.799c-0.16-0.396-0.397-0.555-0.792-0.555
				L246.623-111.752L246.623-111.752z M262.79-115.714c0.395,0,0.475-0.237,0.395-0.475l-7.131-19.573
				c-0.079-0.316-0.16-0.711-0.397-0.711c-0.236,0-0.396,0.396-0.475,0.711l-7.289,19.492c-0.08,0.319,0,0.556,0.316,0.556H262.79z"
				/>
			<path fill="#E4DAC9" d="M308.658-150.66c0.237-1.347,0.713-2.06,1.346-2.06c0.635,0,1.11,0.396,2.141,2.457l21.632,44.69
				l21.553-45.246c0.634-1.268,1.031-1.902,1.744-1.902c0.714,0,1.19,0.792,1.426,2.456l7.211,48.97
				c0.714,4.993,1.505,7.29,3.883,8.004c2.298,0.713,3.882,0.793,4.912,0.793c0.713,0,1.269,0.079,1.269,0.555
				c0,0.634-0.951,0.872-2.06,0.872c-1.981,0-12.916-0.238-16.086-0.476c-1.822-0.158-2.298-0.396-2.298-0.872
				c0-0.396,0.318-0.634,0.872-0.872c0.475-0.159,0.713-1.188,0.396-3.407l-4.754-34.865h-0.316l-17.277,35.976
				c-1.822,3.724-2.219,4.438-2.932,4.438c-0.713,0-1.505-1.584-2.774-3.963c-1.902-3.644-8.161-15.768-9.111-17.987
				c-0.714-1.664-5.468-11.648-8.242-17.592h-0.317l-4.121,31.538c-0.159,1.426-0.238,2.457-0.238,3.725
				c0,1.506,1.031,2.218,2.377,2.535c1.426,0.318,2.535,0.397,3.328,0.397c0.634,0,1.189,0.159,1.189,0.555
				c0,0.712-0.713,0.872-1.901,0.872c-3.329,0-6.896-0.238-8.322-0.238c-1.505,0-5.309,0.238-7.844,0.238
				c-0.793,0-1.427-0.159-1.427-0.872c0-0.396,0.476-0.555,1.27-0.555c0.633,0,1.188,0,2.375-0.237
				c2.219-0.476,2.853-3.566,3.25-6.259L308.658-150.66z"/>
			<path fill="#E4DAC9" d="M395.172-127.996c0-12.044,0-14.263-0.157-16.799c-0.16-2.693-0.794-3.962-3.409-4.517
				c-0.633-0.158-1.979-0.238-3.09-0.238c-0.871,0-1.346-0.158-1.346-0.712c0-0.555,0.555-0.713,1.743-0.713
				c4.201,0,9.192,0.238,10.777,0.238c3.882,0,6.973-0.238,9.667-0.238c14.342,0,16.878,7.686,16.878,11.885
				c0,6.498-3.725,10.381-8.081,13.868c6.498,2.22,14.422,7.844,14.422,17.117c0,8.478-6.577,17.274-21.158,17.274
				c-0.951,0-3.248-0.159-5.547-0.237c-2.377-0.159-4.754-0.238-5.942-0.238c-0.872,0-2.614,0-4.518,0.079
				c-1.822,0-3.882,0.159-5.467,0.159c-1.03,0-1.584-0.238-1.584-0.793c0-0.396,0.316-0.634,1.268-0.634
				c1.189,0,2.14-0.159,2.853-0.316c1.583-0.318,1.98-2.061,2.298-4.36c0.395-3.328,0.395-9.587,0.395-16.878L395.172-127.996
				L395.172-127.996z M404.681-126.648c0,0.634,0.238,0.791,0.556,0.872c0.713,0.158,1.901,0.237,3.724,0.237
				c2.615,0,4.359-0.317,5.706-1.506c2.061-1.664,3.25-4.516,3.25-8.399c0-5.311-3.09-12.282-9.905-12.282
				c-1.107,0-1.823,0-2.614,0.158c-0.555,0.159-0.712,0.475-0.712,1.347v19.574L404.681-126.648L404.681-126.648z M415.141-120.311
				c-1.664-1.188-3.486-1.743-6.576-1.902c-1.427-0.079-2.221-0.079-3.407-0.079c-0.317,0-0.476,0.159-0.476,0.555v18.78
				c0,5.229,0.238,6.577,2.773,7.606c2.139,0.872,3.962,0.951,5.785,0.951c3.565,0,9.587-1.902,9.587-10.143
				C422.826-109.454,421.163-116.111,415.141-120.311z"/>
			<path fill="#E4DAC9" d="M454.589-127.996c0-12.044,0-14.263-0.159-16.799c-0.162-2.693-0.792-3.962-3.407-4.517
				c-0.636-0.158-1.98-0.238-3.091-0.238c-0.872,0-1.346-0.158-1.346-0.712c0-0.555,0.554-0.713,1.743-0.713
				c4.203,0,9.189,0.238,11.572,0.238c1.901,0,6.893-0.238,9.746-0.238c1.189,0,1.743,0.158,1.743,0.713
				c0,0.554-0.475,0.712-1.268,0.712c-0.871,0-1.346,0.08-2.298,0.238c-2.141,0.397-2.771,1.744-2.933,4.517
				c-0.158,2.536-0.158,4.754-0.158,16.799v11.092c0,11.491,2.298,16.325,6.181,19.494c3.565,2.931,7.208,3.248,9.901,3.248
				c3.486,0,7.77-1.109,10.936-4.278c4.358-4.358,4.596-11.49,4.596-19.652v-9.905c0-12.044,0-14.263-0.157-16.799
				c-0.159-2.693-0.792-3.962-3.407-4.517c-0.64-0.158-1.981-0.238-2.857-0.238c-0.871,0-1.346-0.158-1.346-0.712
				c0-0.555,0.555-0.713,1.664-0.713c4.042,0,9.033,0.238,9.113,0.238c0.949,0,5.941-0.238,9.032-0.238
				c1.11,0,1.668,0.158,1.668,0.713c0,0.554-0.479,0.712-1.431,0.712c-0.871,0-1.346,0.08-2.293,0.238
				c-2.143,0.397-2.774,1.744-2.933,4.517c-0.161,2.536-0.161,4.754-0.161,16.799v8.479c0,8.795-0.873,18.146-7.529,23.852
				c-5.625,4.833-11.331,5.705-16.482,5.705c-4.198,0-11.806-0.237-17.594-5.467c-4.039-3.646-7.051-9.508-7.051-20.999v-11.57
				L454.589-127.996L454.589-127.996z"/>
			<path fill="#E4DAC9" d="M532.309-127.996c0-12.044,0-14.263-0.16-16.799c-0.158-2.693-0.788-3.962-3.407-4.517
				c-0.635-0.158-1.981-0.238-3.09-0.238c-0.874,0-1.348-0.158-1.348-0.712c0-0.555,0.555-0.713,1.742-0.713
				c4.199,0,9.192,0.238,10.855,0.238c2.693,0,8.716-0.238,11.173-0.238c4.988,0,10.303,0.476,14.575,3.407
				c2.22,1.506,5.391,5.547,5.391,10.857c0,5.863-2.454,11.251-10.46,17.749c7.054,8.875,12.52,15.928,17.195,20.84
				c4.437,4.596,7.685,5.151,8.876,5.389c0.869,0.159,1.582,0.237,2.219,0.237c0.633,0,0.947,0.238,0.947,0.634
				c0,0.634-0.555,0.793-1.5,0.793h-7.531c-4.439,0-6.418-0.396-8.48-1.505c-3.404-1.823-6.418-5.547-10.854-11.648
				c-3.17-4.358-6.813-9.746-7.844-10.936c-0.396-0.474-0.872-0.554-1.428-0.554l-6.894-0.158c-0.396,0-0.634,0.158-0.634,0.634
				v1.109c0,7.368,0,13.628,0.396,16.957c0.238,2.298,0.713,4.041,3.091,4.36c1.191,0.157,2.935,0.316,3.887,0.316
				c0.635,0,0.95,0.238,0.95,0.634c0,0.555-0.555,0.793-1.584,0.793c-4.597,0-10.461-0.238-11.646-0.238
				c-1.506,0-6.498,0.238-9.667,0.238c-1.031,0-1.586-0.238-1.586-0.793c0-0.396,0.318-0.634,1.268-0.634
				c1.19,0,2.144-0.159,2.857-0.316c1.582-0.317,1.979-2.061,2.294-4.36c0.399-3.328,0.399-9.587,0.399-16.878L532.309-127.996
				L532.309-127.996z M541.659-121.737c0,0.872,0.158,1.188,0.714,1.426c1.664,0.556,4.039,0.792,6.021,0.792
				c3.17,0,4.198-0.317,5.626-1.346c2.38-1.744,4.676-5.388,4.676-11.887c0-11.252-7.446-14.501-12.121-14.501
				c-1.98,0-3.407,0.08-4.198,0.318c-0.556,0.157-0.714,0.475-0.714,1.108L541.659-121.737L541.659-121.737z"/>
			<path fill="#E4DAC9" d="M647.035-96.38c0,2.14-0.076,2.298-1.029,2.853c-5.148,2.695-12.916,3.566-19.094,3.566
				c-19.414,0-36.611-9.192-36.611-31.061c0-12.679,6.576-21.555,13.785-25.912c7.611-4.597,14.664-5.151,21.32-5.151
				c5.465,0,12.438,0.952,14.023,1.268c1.666,0.318,4.438,0.793,6.26,0.872c0.951,0.08,1.109,0.396,1.109,0.951
				c0,0.872-0.555,3.09-0.555,12.995c0,1.269-0.24,1.664-0.875,1.664c-0.553,0-0.715-0.396-0.787-1.029
				c-0.238-1.823-0.639-4.359-2.697-6.577c-2.379-2.536-8.715-6.181-17.668-6.181c-4.363,0-10.145,0.317-15.695,4.914
				c-4.438,3.723-7.287,9.667-7.287,19.414c0,17.036,10.854,29.792,27.572,29.792c2.059,0,4.834,0,6.736-0.872
				c1.188-0.554,1.502-1.583,1.502-2.931v-7.45c0-3.962,0-6.972-0.074-9.351c-0.082-2.694-0.795-3.963-3.41-4.516
				c-0.635-0.159-1.979-0.238-3.092-0.238c-0.713,0-1.188-0.159-1.188-0.634c0-0.634,0.553-0.793,1.662-0.793
				c4.117,0,9.113,0.238,11.488,0.238c2.459,0,6.656-0.238,9.275-0.238c1.029,0,1.584,0.16,1.584,0.793
				c0,0.475-0.48,0.634-1.029,0.634c-0.637,0-1.189,0.079-2.141,0.238c-2.145,0.396-2.934,1.743-3.014,4.516
				c-0.078,2.378-0.078,5.548-0.078,9.51v8.714L647.035-96.38L647.035-96.38z"/>
			<path fill="#E4DAC9" d="M672.539-127.996c0-12.044,0-14.263-0.162-16.799c-0.158-2.693-0.791-3.962-3.408-4.517
				c-0.633-0.158-1.98-0.238-3.09-0.238c-0.875,0-1.348-0.158-1.348-0.712c0-0.555,0.555-0.713,1.74-0.713
				c4.199,0,9.191,0.238,11.566,0.238c1.904,0,6.896-0.238,9.75-0.238c1.191,0,1.744,0.158,1.744,0.713
				c0,0.554-0.475,0.712-1.266,0.712c-0.873,0-1.348,0.08-2.295,0.238c-2.145,0.397-2.773,1.744-2.938,4.517
				c-0.16,2.536-0.16,4.754-0.16,16.799v11.092c0,11.491,2.299,16.325,6.184,19.494c3.564,2.931,7.211,3.248,9.902,3.248
				c3.486,0,7.768-1.109,10.936-4.278c4.355-4.358,4.598-11.49,4.598-19.652v-9.905c0-12.044,0-14.263-0.158-16.799
				c-0.162-2.693-0.793-3.962-3.412-4.517c-0.631-0.158-1.979-0.238-2.852-0.238c-0.875,0-1.348-0.158-1.348-0.712
				c0-0.555,0.555-0.713,1.666-0.713c4.037,0,9.035,0.238,9.111,0.238c0.951,0,5.941-0.238,9.035-0.238
				c1.107,0,1.664,0.158,1.664,0.713c0,0.554-0.477,0.712-1.43,0.712c-0.871,0-1.346,0.08-2.293,0.238
				c-2.145,0.397-2.773,1.744-2.934,4.517c-0.16,2.536-0.16,4.754-0.16,16.799v8.479c0,8.795-0.875,18.146-7.531,23.852
				c-5.623,4.833-11.328,5.705-16.48,5.705c-4.199,0-11.807-0.237-17.592-5.467c-4.041-3.646-7.057-9.508-7.057-20.999v-11.57
				L672.539-127.996L672.539-127.996z"/>
			<path fill="#E4DAC9" d="M750.257-127.996c0-12.044,0-14.263-0.158-16.799c-0.156-2.693-0.791-3.962-3.408-4.517
				c-0.635-0.158-1.979-0.238-3.094-0.238c-0.869,0-1.346-0.158-1.346-0.712c0-0.555,0.553-0.713,1.744-0.713
				c2.139,0,4.438,0.078,6.416,0.078c2.061,0.08,3.885,0.16,4.99,0.16c2.535,0,18.305,0,19.811-0.08
				c1.508-0.158,2.771-0.316,3.412-0.476c0.395-0.078,0.869-0.316,1.266-0.316s0.48,0.316,0.48,0.712c0,0.556-0.4,1.506-0.639,5.152
				c-0.078,0.792-0.24,4.278-0.396,5.229c-0.078,0.396-0.24,0.872-0.793,0.872s-0.715-0.396-0.715-1.109
				c0-0.554-0.074-1.901-0.473-2.853c-0.557-1.427-1.346-2.376-5.309-2.853c-1.35-0.158-9.672-0.317-11.256-0.317
				c-0.396,0-0.551,0.238-0.551,0.793v20.048c0,0.555,0.072,0.872,0.551,0.872c1.74,0,10.855,0,12.682-0.158
				c1.9-0.159,3.088-0.396,3.801-1.188c0.555-0.634,0.875-1.03,1.268-1.03c0.318,0,0.553,0.159,0.553,0.634
				c0,0.475-0.313,1.743-0.635,5.786c-0.078,1.583-0.313,4.753-0.313,5.309c0,0.635,0,1.506-0.717,1.506
				c-0.555,0-0.715-0.316-0.715-0.713c-0.074-0.792-0.074-1.822-0.313-2.852c-0.396-1.584-1.506-2.774-4.438-3.091
				c-1.508-0.158-9.35-0.238-11.254-0.238c-0.398,0-0.475,0.316-0.475,0.792v6.259c0,2.694-0.078,9.985,0,12.282
				c0.16,5.468,1.426,6.656,9.508,6.656c2.061,0,5.391,0,7.449-0.95c2.059-0.951,3.008-2.615,3.564-5.864
				c0.158-0.872,0.318-1.189,0.873-1.189c0.631,0,0.631,0.633,0.631,1.427c0,1.823-0.631,7.21-1.025,8.795
				c-0.553,2.061-1.268,2.061-4.277,2.061c-5.943,0-10.301-0.159-13.713-0.237c-3.404-0.16-5.863-0.238-8.238-0.238
				c-0.873,0-2.619,0-4.52,0.078c-1.818,0-3.881,0.16-5.463,0.16c-1.029,0-1.584-0.238-1.584-0.793c0-0.396,0.316-0.634,1.27-0.634
				c1.186,0,2.137-0.159,2.85-0.316c1.588-0.317,1.982-2.061,2.301-4.36c0.396-3.328,0.396-9.587,0.396-16.878V-127.996
				L750.257-127.996z"/>
			<path fill="#E4DAC9" d="M802.783-92.022c-1.266-0.554-1.502-0.951-1.502-2.694c0-4.358,0.311-9.112,0.395-10.38
				c0.082-1.189,0.318-2.06,0.953-2.06c0.713,0,0.791,0.713,0.791,1.347c0,1.029,0.318,2.693,0.717,4.041
				c1.74,5.864,6.416,8.003,11.328,8.003c7.129,0,10.621-4.833,10.621-9.033c0-3.884-1.193-7.529-7.77-12.679l-3.648-2.853
				c-8.715-6.815-11.727-12.362-11.727-18.78c0-8.716,7.293-14.976,18.303-14.976c5.148,0,8.479,0.792,10.537,1.348
				c0.719,0.158,1.111,0.395,1.111,0.95c0,1.03-0.32,3.328-0.32,9.509c0,1.743-0.234,2.378-0.871,2.378
				c-0.553,0-0.791-0.476-0.791-1.426c0-0.713-0.396-3.17-2.061-5.23c-1.188-1.505-3.484-3.883-8.639-3.883
				c-5.865,0-9.426,3.407-9.426,8.162c0,3.646,1.822,6.419,8.396,11.411l2.223,1.664c9.588,7.211,12.994,12.679,12.994,20.206
				c0,4.596-1.742,10.063-7.449,13.789c-3.963,2.535-8.398,3.248-12.598,3.248C809.755-89.961,806.189-90.516,802.783-92.022z"/>
			<path fill="#E4DAC9" d="M863.23-111.752c-0.396,0-0.553,0.16-0.711,0.634l-4.277,11.331c-0.791,1.981-1.188,3.884-1.188,4.834
				c0,1.426,0.711,2.457,3.166,2.457h1.191c0.951,0,1.189,0.159,1.189,0.634c0,0.634-0.477,0.793-1.346,0.793
				c-2.535,0-5.943-0.238-8.402-0.238c-0.871,0-5.227,0.238-9.346,0.238c-1.029,0-1.508-0.159-1.508-0.793
				c0-0.475,0.316-0.634,0.951-0.634c0.713,0,1.82-0.078,2.457-0.159c3.645-0.475,5.152-3.169,6.732-7.132l19.891-49.763
				c0.951-2.298,1.432-3.168,2.219-3.168c0.717,0,1.193,0.713,1.986,2.536c1.898,4.357,14.574,36.688,19.646,48.733
				c3.01,7.131,5.311,8.241,6.973,8.638c1.189,0.237,2.379,0.316,3.33,0.316c0.635,0,1.029,0.079,1.029,0.634
				c0,0.634-0.719,0.793-3.648,0.793c-2.85,0-8.637,0-14.973-0.159c-1.432-0.079-2.381-0.079-2.381-0.634
				c0-0.475,0.318-0.634,1.109-0.712c0.553-0.159,1.109-0.873,0.717-1.823l-6.342-16.799c-0.158-0.396-0.396-0.555-0.793-0.555
				L863.23-111.752L863.23-111.752z M879.396-115.714c0.398,0,0.479-0.237,0.398-0.475l-7.131-19.573
				c-0.08-0.316-0.156-0.711-0.396-0.711c-0.238,0-0.396,0.396-0.477,0.711L864.5-116.27c-0.076,0.319,0,0.556,0.318,0.556H879.396z
				"/>
			<path fill="#E4DAC9" d="M917.974-92.022c-1.266-0.554-1.506-0.951-1.506-2.694c0-4.358,0.318-9.112,0.398-10.38
				c0.08-1.189,0.316-2.06,0.953-2.06c0.713,0,0.791,0.713,0.791,1.347c0,1.029,0.316,2.693,0.717,4.041
				c1.74,5.864,6.418,8.003,11.328,8.003c7.129,0,10.621-4.833,10.621-9.033c0-3.884-1.193-7.529-7.77-12.679l-3.648-2.853
				c-8.717-6.815-11.729-12.362-11.729-18.78c0-8.716,7.293-14.976,18.303-14.976c5.152,0,8.48,0.792,10.541,1.348
				c0.713,0.158,1.109,0.395,1.109,0.95c0,1.03-0.318,3.328-0.318,9.509c0,1.743-0.232,2.378-0.869,2.378
				c-0.557,0-0.795-0.476-0.795-1.426c0-0.713-0.393-3.17-2.057-5.23c-1.189-1.505-3.488-3.883-8.639-3.883
				c-5.863,0-9.426,3.407-9.426,8.162c0,3.646,1.82,6.419,8.396,11.411l2.219,1.664c9.588,7.211,12.996,12.679,12.996,20.206
				c0,4.596-1.742,10.063-7.447,13.789c-3.963,2.535-8.4,3.248-12.6,3.248C924.947-89.961,921.38-90.516,917.974-92.022z"/>
		</g>
		<g>
			<path fill="#E4DAC9" d="M166.838,30.731c0,8.402,0,12.566,1.464,13.798c1.156,1.004,3.777,1.389,9.02,1.389
				c3.623,0,6.244-0.076,7.94-1.85c0.848-0.848,1.541-2.699,1.696-3.932c0.077-0.618,0.231-1.004,0.771-1.004
				c0.462,0,0.616,0.695,0.616,1.466s-0.462,5.626-1.002,7.556c-0.463,1.463-0.771,1.771-4.316,1.771
				c-4.857,0-8.789-0.076-12.181-0.231c-3.392-0.076-6.245-0.154-9.019-0.154c-0.771,0-2.236,0.077-3.855,0.077
				c-1.619,0.076-3.314,0.154-4.702,0.154c-0.849,0-1.31-0.231-1.31-0.693c0-0.309,0.231-0.694,1.079-0.694
				c1.002,0,1.773-0.077,2.39-0.229c1.389-0.31,1.773-1.543,2.004-3.471c0.31-2.775,0.31-7.941,0.31-13.954V19.167
				c0-9.943,0-11.793-0.077-13.874c-0.154-2.236-0.771-2.93-2.93-3.547c-0.539-0.154-1.387-0.232-2.236-0.232
				c-0.771,0-1.156-0.229-1.156-0.691c0-0.464,0.463-0.617,1.465-0.617c3.16,0,7.478,0.153,9.328,0.153
				c1.619,0,7.17-0.153,9.791-0.153c1.003,0,1.465,0.153,1.465,0.617c0,0.462-0.385,0.691-1.234,0.691
				c-0.771,0-1.849,0.078-2.621,0.232c-1.851,0.307-2.39,1.233-2.544,3.547c-0.154,2.081-0.154,3.931-0.154,13.874v11.564H166.838z"
				/>
			<path fill="#E4DAC9" d="M209.853,33.277c-0.386,0-0.464,0.076-0.618,0.46l-3.623,8.791c-0.692,1.617-1.002,3.237-1.002,4.007
				c0,1.157,0.617,1.85,2.698,1.85h1.002c0.848,0,1.002,0.307,1.002,0.694c0,0.541-0.387,0.693-1.08,0.693
				c-2.235,0-5.396-0.231-7.555-0.231c-0.694,0-4.316,0.231-7.864,0.231c-0.848,0-1.234-0.154-1.234-0.693
				c0-0.387,0.232-0.694,0.772-0.694c0.615,0,1.389-0.077,2.004-0.077c3.084-0.461,4.24-2.465,5.628-5.78l17.73-41.243
				c0.771-1.852,1.31-2.622,2.004-2.622c1.002,0,1.31,0.615,2.004,2.081c1.618,3.623,12.95,30.45,17.267,40.394
				c2.622,5.936,4.547,6.785,5.781,7.017c1.003,0.151,1.772,0.229,2.543,0.229c0.618,0,0.927,0.231,0.927,0.694
				c0,0.541-0.386,0.694-2.929,0.694c-2.39,0-7.324,0-13.029-0.154c-1.233-0.077-2.004-0.077-2.004-0.541
				c0-0.386,0.154-0.618,0.848-0.694c0.463-0.077,0.926-0.692,0.616-1.465l-5.243-13.183c-0.154-0.384-0.385-0.46-0.692-0.46
				h-15.955v0.002H209.853z M224.344,29.652c0.309,0,0.385-0.154,0.309-0.387l-6.399-16.649C218.177,12.386,218.1,12,217.945,12
				c-0.231,0-0.308,0.386-0.386,0.616l-6.551,16.574c-0.155,0.308,0,0.462,0.231,0.462H224.344L224.344,29.652z"/>
			<path fill="#E4DAC9" d="M258.57,48.925c-1.079-0.464-1.311-0.77-1.311-2.237c0-3.544,0.309-7.631,0.386-8.71
				c0-1.003,0.307-1.697,0.848-1.697c0.618,0,0.694,0.617,0.694,1.081c0,0.847,0.231,2.235,0.616,3.391
				c1.465,4.856,6.554,6.475,10.792,6.475c5.859,0,9.405-3.701,9.405-8.326c0-2.853-0.693-5.703-6.707-9.251l-3.932-2.313
				c-8.017-4.701-10.638-9.095-10.638-14.877c0-8.017,7.709-13.183,17.114-13.183c4.394,0,7.863,0.618,9.635,1.08
				c0.617,0.155,0.925,0.386,0.925,0.849c0,0.847-0.231,2.697-0.231,7.862c0,1.39-0.308,2.083-0.849,2.083
				c-0.461,0-0.693-0.385-0.693-1.156c0-0.617-0.308-2.622-1.772-4.318c-1.002-1.234-3.161-3.084-7.555-3.084
				c-4.856,0-9.25,2.543-9.25,7.014c0,2.931,1.079,5.243,7.168,8.634l2.776,1.542c8.942,4.934,11.716,9.943,11.716,15.881
				c0,4.856-1.85,8.787-6.783,12.257c-3.237,2.312-7.708,2.698-11.332,2.698C265.662,50.621,261.5,50.236,258.57,48.925z"/>
			<path fill="#E4DAC9" d="M342.825,0.437c0.154-1.081,0.771-1.696,1.31-1.696c0.693,0,1.156,0.307,2.081,2.082l18.193,36.54
				l18.194-37.004c0.539-1.08,1.156-1.618,1.772-1.618c0.541,0,1.312,0.691,1.542,2.081l6.167,40.47
				c0.618,4.086,1.234,5.859,3.314,6.477c1.929,0.539,3.006,0.616,3.854,0.616c0.617,0,1.08,0.231,1.08,0.617
				c0,0.541-0.771,0.771-1.772,0.771c-1.696,0-11.333-0.307-14.031-0.462c-1.619-0.077-2.004-0.386-2.004-0.771
				c0-0.307,0.309-0.54,0.771-0.693c0.385-0.154,0.541-0.925,0.309-2.775l-3.777-28.368h-0.233l-14.569,29.293
				c-1.542,3.084-1.927,3.701-2.698,3.701c-0.848,0-1.619-1.31-2.698-3.315c-1.618-3.007-7.014-13.027-7.785-14.878
				c-0.54-1.232-4.549-9.482-6.785-14.03h-0.232l-3.236,25.596c-0.155,1.154-0.233,2.002-0.233,3.082
				c0,1.234,0.925,1.696,2.082,1.927c1.157,0.23,1.772,0.307,2.39,0.307c0.617,0,1.08,0.307,1.08,0.617
				c0,0.618-0.617,0.771-1.62,0.771c-2.852,0-5.935-0.23-7.168-0.23c-1.311,0-4.549,0.23-6.707,0.23
				c-0.693,0-1.233-0.154-1.233-0.771c0-0.308,0.386-0.617,1.079-0.617c0.541,0,1.002,0,2.081-0.153
				c1.85-0.231,2.468-2.853,2.775-5.011L342.825,0.437z"/>
			<path fill="#E4DAC9" d="M420.991,33.277c-0.386,0-0.463,0.076-0.617,0.46l-3.623,8.791c-0.693,1.617-1.002,3.237-1.002,4.007
				c0,1.157,0.616,1.85,2.698,1.85h1.002c0.848,0,1.002,0.307,1.002,0.694c0,0.541-0.386,0.693-1.08,0.693
				c-2.235,0-5.396-0.231-7.555-0.231c-0.694,0-4.317,0.231-7.864,0.231c-0.848,0-1.233-0.154-1.233-0.693
				c0-0.387,0.231-0.694,0.772-0.694c0.617,0,1.387-0.077,2.004-0.077c3.084-0.461,4.24-2.465,5.627-5.78l17.729-41.243
				c0.771-1.852,1.311-2.622,2.006-2.622c1,0,1.31,0.615,2.003,2.081c1.62,3.623,12.95,30.45,17.268,40.394
				c2.62,5.936,4.547,6.785,5.78,7.017c1.003,0.151,1.772,0.229,2.544,0.229c0.618,0,0.927,0.231,0.927,0.694
				c0,0.541-0.39,0.694-2.93,0.694c-2.389,0-7.323,0-13.028-0.154c-1.232-0.077-2.004-0.077-2.004-0.541
				c0-0.386,0.154-0.618,0.847-0.694c0.464-0.077,0.928-0.692,0.618-1.465l-5.242-13.183c-0.152-0.384-0.386-0.46-0.692-0.46
				h-15.958v0.002H420.991z M435.482,29.652c0.31,0,0.386-0.154,0.31-0.387l-6.398-16.649c-0.076-0.23-0.153-0.616-0.309-0.616
				c-0.232,0-0.309,0.386-0.386,0.616l-6.552,16.574c-0.154,0.308,0,0.462,0.23,0.462H435.482L435.482,29.652z M444.117-12.129
				c0.462,0.925,0,1.157-0.385,1.157c-0.388,0-1.08-0.154-2.622,0c-4.24,0.538-10.329,3.005-13.182,4.548
				c-0.614,0.308-1.155,0.615-1.311,0.615c-0.154,0-0.463-0.154-0.463-0.461c0-0.309,0.309-0.617,0.694-1.003
				c3.083-2.928,11.177-8.94,12.411-9.713c0.771-0.54,1.311-0.693,1.542-0.693c0.54,0,0.694,0.231,1.079,0.926
				C442.497-15.676,443.192-14.21,444.117-12.129z"/>
			<path fill="#E4DAC9" d="M469.708,48.925c-1.079-0.464-1.307-0.77-1.307-2.237c0-3.544,0.307-7.631,0.386-8.71
				c0-1.003,0.307-1.697,0.847-1.697c0.618,0,0.692,0.617,0.692,1.081c0,0.847,0.229,2.235,0.616,3.391
				c1.469,4.856,6.552,6.475,10.793,6.475c5.858,0,9.404-3.701,9.404-8.326c0-2.853-0.694-5.703-6.707-9.251l-3.932-2.313
				c-8.017-4.701-10.637-9.095-10.637-14.877c0-8.017,7.708-13.183,17.112-13.183c4.395,0,7.864,0.618,9.636,1.08
				c0.618,0.155,0.925,0.386,0.925,0.849c0,0.847-0.23,2.697-0.23,7.862c0,1.39-0.309,2.083-0.848,2.083
				c-0.463,0-0.694-0.385-0.694-1.156c0-0.617-0.309-2.622-1.771-4.318c-1.005-1.234-3.16-3.084-7.555-3.084
				c-4.856,0-9.25,2.543-9.25,7.014c0,2.931,1.078,5.243,7.165,8.634l2.776,1.542c8.946,4.934,11.716,9.943,11.716,15.881
				c0,4.856-1.85,8.787-6.779,12.257c-3.238,2.312-7.713,2.698-11.332,2.698C476.801,50.621,472.638,50.236,469.708,48.925z"/>
			<path fill="#E4DAC9" d="M592.816,45.378c0,1.771,0,1.85-0.85,2.313c-4.549,2.235-11.256,2.93-16.575,2.93
				c-16.649,0-31.373-7.554-31.373-25.671c0-10.484,5.628-17.807,11.871-21.429c6.477-3.778,12.565-4.241,18.271-4.241
				c4.7,0,10.633,0.773,12.02,1.079c1.395,0.232,3.777,0.619,5.4,0.695c0.771,0.077,0.922,0.308,0.922,0.77
				c0,0.772-0.461,2.545-0.461,10.792c0,1.004-0.385,1.465-0.924,1.465c-0.463,0-0.617-0.309-0.695-0.848
				c-0.152-1.465-0.539-3.547-2.309-5.396c-2.006-2.082-7.094-5.01-14.723-5.01c-3.702,0-8.4,0.077-13.107,3.853
				c-3.775,3.085-6.242,7.941-6.242,15.958c0,14.105,9.095,24.358,23.59,24.358c1.773,0,3.158,0,4.779-0.693
				c1.006-0.461,1.309-1.155,1.309-2.313v-6.011c0-3.237,0-5.704-0.072-7.709c-0.074-2.235-0.771-2.931-2.932-3.547
				c-0.543-0.154-1.693-0.232-2.621-0.232c-0.619,0-1.082-0.308-1.082-0.692c0-0.541,0.545-0.617,1.467-0.617
				c3.547,0,8.402,0.154,10.41,0.154c2.152,0,5.705-0.154,7.939-0.154c0.924,0,1.387,0.076,1.387,0.617
				c0,0.384-0.385,0.692-0.85,0.692c-0.537,0-1.078,0.078-1.852,0.232c-1.846,0.307-2.541,1.233-2.619,3.547
				c-0.076,2.005-0.076,4.625-0.076,7.863v7.247h-0.004V45.378z"/>
			<path fill="#E4DAC9" d="M618.41,19.167c0-9.943,0-11.793-0.076-13.874c-0.154-2.236-0.771-2.93-2.932-3.547
				c-0.539-0.154-1.697-0.232-2.695-0.232c-0.695,0-1.158-0.229-1.158-0.691c0-0.464,0.543-0.617,1.543-0.617
				c3.547,0,7.865,0.153,9.25,0.153c2.313,0,8.479-0.153,10.563-0.153c4.314,0,9.246,0.386,12.869,2.774
				c1.932,1.309,4.779,4.626,4.779,9.02c0,4.856-2.773,9.174-9.404,14.491c6.016,7.4,10.793,13.338,14.879,17.422
				c3.775,3.778,6.168,4.086,7.242,4.319c0.695,0.153,1.08,0.153,1.625,0.153c0.539,0,0.85,0.385,0.85,0.694
				c0,0.541-0.463,0.693-1.313,0.693h-6.477c-3.775,0-5.625-0.386-7.398-1.311c-2.928-1.465-5.475-4.548-9.252-9.635
				c-2.697-3.544-5.547-7.939-6.396-8.941c-0.385-0.387-0.775-0.463-1.232-0.463l-6.09-0.156c-0.307,0-0.541,0.156-0.541,0.541
				v0.925c0,6.09,0.074,11.178,0.389,13.954c0.229,1.926,0.539,3.16,2.617,3.471c1.002,0.152,2.469,0.229,3.314,0.229
				c0.543,0,0.85,0.385,0.85,0.694c0,0.462-0.539,0.693-1.385,0.693c-3.936,0-9.563-0.231-10.563-0.231
				c-1.307,0-5.625,0.231-8.326,0.231c-0.848,0-1.311-0.231-1.311-0.693c0-0.309,0.232-0.694,1.076-0.694
				c1.004,0,1.773-0.077,2.395-0.229c1.387-0.31,1.77-1.543,2.006-3.471c0.309-2.775,0.309-7.941,0.309-13.954V19.167H618.41
				L618.41,19.167z M627.044,24.256c0,0.693,0.154,0.926,0.617,1.157c1.461,0.461,3.467,0.617,5.164,0.617
				c2.695,0,3.623-0.231,4.777-1.081c2.082-1.462,4.396-4.316,4.396-9.712c0-9.25-6.322-11.641-10.33-11.641
				c-1.695,0-3.318,0.077-4.006,0.231c-0.463,0.154-0.615,0.384-0.615,0.924v19.504L627.044,24.256L627.044,24.256z"/>
			<path fill="#E4DAC9" d="M680.847,33.277c-0.389,0-0.459,0.076-0.613,0.46l-3.625,8.791c-0.693,1.617-1.004,3.237-1.004,4.007
				c0,1.157,0.617,1.85,2.701,1.85h1.002c0.85,0,1.004,0.307,1.004,0.694c0,0.541-0.387,0.693-1.08,0.693
				c-2.236,0-5.398-0.231-7.557-0.231c-0.691,0-4.316,0.231-7.861,0.231c-0.85,0-1.234-0.154-1.234-0.693
				c0-0.387,0.23-0.694,0.771-0.694c0.615,0,1.391-0.077,2.01-0.077c3.08-0.461,4.236-2.465,5.625-5.78l17.73-41.243
				c0.775-1.852,1.311-2.622,2.006-2.622c1.002,0,1.311,0.615,2.006,2.081c1.617,3.623,12.949,30.45,17.27,40.394
				c2.619,5.936,4.549,6.785,5.779,7.017c1.002,0.151,1.773,0.229,2.545,0.229c0.617,0,0.926,0.231,0.926,0.694
				c0,0.541-0.385,0.694-2.932,0.694c-2.389,0-7.32,0-13.027-0.154c-1.232-0.077-2.008-0.077-2.008-0.541
				c0-0.386,0.156-0.618,0.848-0.694c0.463-0.077,0.926-0.692,0.619-1.465l-5.244-13.183c-0.154-0.384-0.385-0.46-0.689-0.46
				h-15.961v0.002H680.847L680.847,33.277z M695.337,29.652c0.309,0,0.389-0.154,0.309-0.387l-6.396-16.649
				c-0.076-0.23-0.156-0.616-0.311-0.616c-0.229,0-0.307,0.386-0.385,0.616L682,29.19c-0.152,0.308,0,0.462,0.232,0.462H695.337
				L695.337,29.652z"/>
			<path fill="#E4DAC9" d="M737.507,40.832c0.156,5.086,1.002,6.629,2.313,7.092c1.156,0.383,2.471,0.46,3.545,0.46
				c0.773,0,1.156,0.307,1.156,0.694c0,0.541-0.617,0.693-1.537,0.693c-4.398,0-7.559-0.231-8.793-0.231
				c-0.617,0-3.85,0.231-7.32,0.231c-0.924,0-1.541-0.077-1.541-0.693c0-0.387,0.463-0.694,1.078-0.694
				c0.926,0,2.154-0.077,3.086-0.307c1.771-0.461,2.006-2.235,2.084-7.939l0.615-38.852c0-1.312,0.465-2.237,1.152-2.237
				c0.848,0,1.775,1.004,2.932,2.159c0.848,0.847,11.027,11.255,20.895,20.891c4.625,4.548,13.645,13.8,14.648,14.724h0.307
				l-0.693-29.139c-0.074-4.008-0.691-5.166-2.313-5.782c-1.004-0.387-2.621-0.387-3.545-0.387c-0.85,0-1.08-0.307-1.08-0.691
				c0-0.541,0.689-0.617,1.699-0.617c3.543,0,7.162,0.153,8.627,0.153c0.775,0,3.316-0.153,6.635-0.153
				c0.924,0,1.537,0.077,1.537,0.617c0,0.385-0.381,0.691-1.154,0.691c-0.691,0-1.232,0-2.082,0.232
				c-1.852,0.541-2.389,1.697-2.465,5.396l-0.775,41.318c0,1.465-0.539,2.083-1.08,2.083c-1.154,0-2.084-0.693-2.77-1.389
				c-4.244-3.931-12.725-12.024-19.814-18.885c-7.4-7.092-14.568-15.033-15.879-16.189h-0.236L737.507,40.832z"/>
			<path fill="#E4DAC9" d="M804.728,19.167c0-9.943,0-11.793-0.078-13.874c-0.154-2.236-0.771-2.93-2.934-3.547
				c-0.541-0.154-1.693-0.232-2.693-0.232c-0.695,0-1.156-0.229-1.156-0.691c0-0.464,0.541-0.617,1.539-0.617
				c3.547,0,7.861,0.153,9.793,0.153c2.078,0,6.934-0.153,11.023-0.153c8.477,0,19.889,0,27.285,7.478
				c3.393,3.392,6.4,8.863,6.4,16.649c0,8.249-3.549,14.493-7.4,18.271c-3.084,3.084-10.252,7.708-22.738,7.708
				c-2.475,0-5.4-0.231-8.102-0.386c-2.697-0.231-5.166-0.385-6.857-0.385c-0.771,0-2.236,0.077-3.857,0.077
				c-1.617,0.076-3.314,0.154-4.701,0.154c-0.842,0-1.305-0.231-1.305-0.693c0-0.309,0.229-0.694,1.076-0.694
				c1.002,0,1.77-0.077,2.391-0.229c1.391-0.31,1.77-1.543,2.006-3.471c0.311-2.775,0.311-7.941,0.311-13.954V19.167H804.728z
				 M813.822,26.414c0,6.939,0.078,11.95,0.152,13.26c0.08,1.618,0.232,3.931,0.771,4.626c0.852,1.234,3.549,2.621,8.865,2.621
				c6.166,0,10.715-1.078,14.805-4.471c4.393-3.623,5.783-9.48,5.783-16.266c0-8.325-3.318-13.72-6.324-16.342
				c-6.244-5.551-13.639-6.244-18.961-6.244c-1.393,0-3.627,0.156-4.168,0.462c-0.613,0.229-0.846,0.54-0.846,1.31
				c-0.074,2.237-0.074,7.632-0.074,12.798v8.247L813.822,26.414L813.822,26.414z"/>
			<path fill="#E4DAC9" d="M875.414,19.167c0-9.943,0-11.793-0.074-13.874c-0.158-2.236-0.775-2.93-2.928-3.547
				c-0.543-0.154-1.697-0.232-2.703-0.232c-0.691,0-1.156-0.229-1.156-0.691c0-0.464,0.539-0.617,1.543-0.617
				c3.545,0,7.861,0.153,9.789,0.153c2.158,0,17.191,0.078,18.5,0c1.232-0.076,2.314-0.307,2.855-0.385
				c0.385-0.076,0.771-0.307,1.08-0.307c0.383,0,0.461,0.307,0.461,0.617c0,0.462-0.383,1.232-0.541,4.239
				c-0.074,0.694-0.232,3.546-0.385,4.317c-0.076,0.307-0.232,1.08-0.773,1.08c-0.463,0-0.541-0.309-0.541-0.849
				c0-0.46-0.074-1.619-0.463-2.39c-0.541-1.155-1.076-2.08-4.469-2.39c-1.158-0.154-9.25-0.307-10.639-0.307
				c-0.311,0-0.465,0.23-0.465,0.617V20.79c0,0.385,0.074,0.693,0.465,0.693c1.539,0,10.326,0,11.873-0.155
				c1.617-0.153,2.617-0.307,3.234-1.002c0.541-0.462,0.773-0.848,1.08-0.848s0.543,0.309,0.543,0.694
				c0,0.386-0.156,1.463-0.543,4.779c-0.154,1.31-0.309,3.932-0.309,4.395c0,0.541-0.076,1.466-0.693,1.466
				c-0.463,0-0.617-0.231-0.617-0.54c-0.078-0.694-0.078-1.543-0.23-2.39c-0.385-1.31-1.234-2.313-3.777-2.543
				c-1.232-0.155-8.939-0.308-10.637-0.308c-0.309,0-0.389,0.308-0.389,0.692v5.243c0,2.237-0.076,7.784,0,9.713
				c0.154,4.471,2.238,5.472,9.174,5.472c1.773,0,4.625-0.078,6.4-0.848c1.695-0.772,2.469-2.157,2.926-4.856
				c0.156-0.692,0.309-1.003,0.775-1.003c0.539,0,0.615,0.849,0.615,1.54c0,1.466-0.539,5.937-0.928,7.249
				c-0.457,1.695-1.07,1.695-3.615,1.695c-5.092,0-9.174-0.076-12.492-0.231c-3.316-0.076-5.857-0.154-7.863-0.154
				c-0.771,0-2.232,0.077-3.852,0.077c-1.621,0.076-3.314,0.154-4.699,0.154c-0.852,0-1.314-0.231-1.314-0.693
				c0-0.309,0.232-0.694,1.082-0.694c1.002,0,1.771-0.077,2.383-0.229c1.393-0.31,1.775-1.543,2.01-3.471
				c0.307-2.775,0.307-7.941,0.307-13.954V19.167L875.414,19.167z"/>
			<path fill="#E4DAC9" d="M922.744,48.925c-1.08-0.464-1.305-0.77-1.305-2.237c0-3.544,0.307-7.631,0.381-8.71
				c0-1.003,0.307-1.697,0.85-1.697c0.617,0,0.691,0.617,0.691,1.081c0,0.847,0.229,2.235,0.615,3.391
				c1.469,4.856,6.555,6.475,10.793,6.475c5.859,0,9.404-3.701,9.404-8.326c0-2.853-0.693-5.703-6.709-9.251l-3.93-2.313
				c-8.018-4.701-10.643-9.095-10.643-14.877c0-8.017,7.717-13.183,17.117-13.183c4.396,0,7.863,0.618,9.639,1.08
				c0.615,0.155,0.922,0.386,0.922,0.849c0,0.847-0.229,2.697-0.229,7.862c0,1.39-0.309,2.083-0.852,2.083
				c-0.459,0-0.693-0.385-0.693-1.156c0-0.617-0.307-2.622-1.771-4.318c-0.998-1.234-3.158-3.084-7.555-3.084
				c-4.854,0-9.248,2.543-9.248,7.014c0,2.931,1.08,5.243,7.166,8.634l2.777,1.542c8.941,4.934,11.713,9.943,11.713,15.881
				c0,4.856-1.846,8.787-6.779,12.257c-3.234,2.312-7.711,2.698-11.33,2.698C929.837,50.621,925.675,50.236,922.744,48.925z"/>
		</g>
		<g>
			<path fill="#E4DAC9" d="M162.722,94.064c0-13.611,0-16.142-0.105-18.992c-0.211-3.06-1.055-4.009-4.008-4.852
				c-0.738-0.212-2.321-0.317-3.693-0.317c-0.949,0-1.583-0.316-1.583-0.95c0-0.634,0.738-0.843,2.111-0.843
				c4.853,0,10.761,0.21,13.398,0.21c2.849,0,9.494-0.21,15.086-0.21c11.605,0,27.22,0,37.347,10.232
				c4.642,4.644,8.756,12.133,8.756,22.789c0,11.291-4.853,19.833-10.128,25.005c-4.22,4.225-14.032,10.554-31.123,10.554
				c-3.377,0-7.385-0.315-11.078-0.53c-3.692-0.313-7.068-0.525-9.391-0.525c-1.054,0-3.06,0.107-5.273,0.107
				c-2.217,0.105-4.538,0.211-6.437,0.211c-1.159,0-1.794-0.316-1.794-0.951c0-0.42,0.318-0.949,1.479-0.949
				c1.372,0,2.427-0.104,3.27-0.315c1.899-0.423,2.427-2.108,2.743-4.747c0.42-3.797,0.42-10.865,0.42-19.097L162.722,94.064
				L162.722,94.064z M175.17,103.98c0,9.494,0.106,16.354,0.211,18.146c0.107,2.217,0.318,5.379,1.057,6.33
				c1.16,1.688,4.853,3.586,12.132,3.586c8.44,0,14.666-1.477,20.256-6.117c6.013-4.959,7.912-12.977,7.912-22.263
				c0-11.393-4.537-18.776-8.652-22.363c-8.545-7.595-18.674-8.545-25.953-8.545c-1.898,0-4.959,0.211-5.696,0.634
				c-0.845,0.315-1.161,0.738-1.161,1.792c-0.106,3.062-0.106,10.45-0.106,17.515V103.98L175.17,103.98z"/>
			<path fill="#E4DAC9" d="M260.94,94.064c0-13.611,0-16.142-0.105-18.992c-0.212-3.06-1.055-4.009-4.009-4.852
				c-0.738-0.212-2.32-0.317-3.693-0.317c-0.95,0-1.583-0.316-1.583-0.95c0-0.634,0.738-0.843,2.11-0.843
				c4.853,0,10.761,0.21,13.398,0.21c2.953,0,23.527,0.105,25.32,0c1.688-0.108,3.165-0.421,3.903-0.525
				c0.528-0.108,1.055-0.423,1.477-0.423c0.528,0,0.634,0.423,0.634,0.84c0,0.636-0.528,1.689-0.739,5.805
				c-0.106,0.948-0.316,4.853-0.527,5.907c-0.106,0.423-0.316,1.478-1.056,1.478c-0.633,0-0.738-0.423-0.738-1.16
				c0-0.633-0.105-2.214-0.632-3.27c-0.738-1.583-1.478-2.851-6.12-3.272c-1.582-0.212-12.659-0.421-14.558-0.421
				c-0.423,0-0.634,0.316-0.634,0.843V96.28c0,0.524,0.107,0.947,0.634,0.947c2.11,0,14.138,0,16.247-0.212
				c2.216-0.213,3.587-0.423,4.431-1.372c0.738-0.635,1.055-1.159,1.477-1.159c0.423,0,0.738,0.423,0.738,0.95
				c0,0.526-0.211,2.008-0.738,6.542c-0.211,1.793-0.422,5.382-0.422,6.015c0,0.735-0.105,2.008-0.95,2.008
				c-0.632,0-0.843-0.317-0.843-0.736c-0.106-0.951-0.106-2.11-0.318-3.273c-0.527-1.791-1.688-3.164-5.17-3.479
				c-1.688-0.214-12.238-0.421-14.558-0.421c-0.423,0-0.528,0.421-0.528,0.948v7.174c0,3.06-0.105,10.656,0,13.295
				c0.212,6.117,3.061,7.49,12.555,7.49c2.427,0,6.33-0.109,8.758-1.16c2.32-1.057,3.376-2.953,4.009-6.647
				c0.211-0.95,0.423-1.371,1.055-1.371c0.738,0,0.845,1.158,0.845,2.108c0,2.008-0.738,8.125-1.265,9.918
				c-0.633,2.32-1.478,2.32-4.959,2.32c-6.962,0-12.555-0.106-17.09-0.314c-4.537-0.105-8.018-0.213-10.762-0.213
				c-1.054,0-3.059,0.105-5.274,0.105c-2.216,0.106-4.537,0.213-6.436,0.213c-1.16,0-1.794-0.314-1.794-0.949
				c0-0.42,0.318-0.952,1.479-0.952c1.37,0,2.426-0.104,3.27-0.313c1.898-0.423,2.426-2.109,2.742-4.746
				c0.422-3.8,0.422-10.867,0.422-19.099L260.94,94.064L260.94,94.064z"/>
			<path fill="#E4DAC9" d="M344.706,109.888c0,11.5,0,17.197,2.005,18.885c1.582,1.371,5.17,1.896,12.343,1.896
				c4.959,0,8.545-0.104,10.867-2.527c1.161-1.16,2.109-3.691,2.322-5.38c0.104-0.847,0.316-1.373,1.054-1.373
				c0.634,0,0.845,0.95,0.845,2.006c0,1.06-0.634,7.703-1.372,10.34c-0.633,2.007-1.055,2.427-5.907,2.427
				c-6.647,0-12.028-0.105-16.669-0.313c-4.643-0.106-8.546-0.214-12.346-0.214c-1.054,0-3.059,0.107-5.274,0.107
				c-2.216,0.106-4.537,0.211-6.437,0.211c-1.16,0-1.793-0.314-1.793-0.949c0-0.422,0.317-0.951,1.478-0.951
				c1.372,0,2.427-0.104,3.27-0.313c1.899-0.423,2.427-2.108,2.742-4.747c0.423-3.799,0.423-10.865,0.423-19.097v-15.83
				c0-13.609,0-16.141-0.105-18.99c-0.212-3.06-1.056-4.01-4.009-4.852c-0.738-0.213-1.898-0.318-3.06-0.318
				c-1.055,0-1.582-0.314-1.582-0.947c0-0.635,0.633-0.845,2.004-0.845c4.326,0,10.234,0.211,12.765,0.211
				c2.216,0,9.812-0.211,13.399-0.211c1.371,0,2.005,0.211,2.005,0.845c0,0.631-0.528,0.947-1.688,0.947
				c-1.056,0-2.532,0.108-3.588,0.318c-2.532,0.42-3.271,1.687-3.482,4.852c-0.21,2.849-0.21,5.381-0.21,18.99V109.888
				L344.706,109.888z"/>
			<path fill="#E4DAC9" d="M443.237,94.064c0-13.611,0-16.142-0.105-18.992c-0.212-3.06-1.161-4.113-3.165-4.747
				c-1.055-0.316-2.214-0.423-3.375-0.423c-0.95,0-1.477-0.211-1.477-1.056c0-0.528,0.738-0.738,2.215-0.738
				c3.481,0,9.811,0.211,12.449,0.211c2.321,0,8.334-0.211,11.921-0.211c1.158,0,1.898,0.211,1.898,0.738
				c0,0.845-0.526,1.056-1.477,1.056s-1.688,0.106-2.743,0.317c-2.533,0.421-3.273,1.688-3.48,4.852
				c-0.214,2.85-0.214,5.38-0.214,18.991v15.822c0,8.652,0,15.826,0.424,19.625c0.314,2.429,0.947,3.797,3.693,4.22
				c1.265,0.214,3.376,0.315,4.747,0.315c1.055,0,1.478,0.529,1.478,0.949c0,0.635-0.735,0.949-1.793,0.949
				c-6.116,0-12.446-0.314-14.981-0.314c-2.11,0-8.44,0.314-12.133,0.314c-1.16,0-1.794-0.314-1.794-0.949
				c0-0.42,0.317-0.949,1.479-0.949c1.37,0,2.428-0.104,3.271-0.315c1.897-0.423,2.425-1.687,2.742-4.323
				c0.422-3.693,0.422-10.865,0.422-19.519V94.064H443.237z"/>
			<path fill="#E4DAC9" d="M500.207,68.424c0.214-1.477,1.055-2.32,1.793-2.32c0.95,0,1.583,0.422,2.848,2.85l24.902,50.006
				l24.898-50.642c0.733-1.478,1.582-2.215,2.428-2.215c0.738,0,1.792,0.951,2.106,2.85l8.438,55.387
				c0.843,5.592,1.688,8.015,4.534,8.859c2.637,0.74,4.116,0.842,5.274,0.842c0.846,0,1.479,0.317,1.479,0.847
				c0,0.735-1.057,1.056-2.426,1.056c-2.321,0-15.51-0.419-19.201-0.633c-2.213-0.107-2.743-0.527-2.743-1.059
				c0-0.422,0.422-0.734,1.061-0.951c0.524-0.213,0.735-1.264,0.418-3.797l-5.17-38.825h-0.313l-19.942,40.09
				c-2.105,4.22-2.635,5.065-3.691,5.065c-1.157,0-2.217-1.795-3.692-4.537c-2.216-4.117-9.602-17.828-10.656-20.36
				c-0.734-1.688-6.22-12.979-9.281-19.202h-0.315l-4.431,35.023c-0.212,1.582-0.313,2.746-0.313,4.224
				c0,1.687,1.263,2.32,2.848,2.638c1.582,0.315,2.429,0.42,3.271,0.42c0.844,0,1.479,0.424,1.479,0.847
				c0,0.841-0.844,1.054-2.215,1.054c-3.903,0-8.124-0.314-9.812-0.314c-1.793,0-6.226,0.314-9.179,0.314
				c-0.952,0-1.688-0.213-1.688-1.054c0-0.423,0.529-0.847,1.478-0.847c0.739,0,1.372,0,2.85-0.211
				c2.533-0.315,3.377-3.902,3.801-6.858L500.207,68.424z"/>
			<path fill="#E4DAC9" d="M604.648,94.064c0-13.611,0-16.142-0.105-18.992c-0.211-3.06-1.057-4.009-4.008-4.852
				c-0.734-0.212-2.322-0.317-3.693-0.317c-0.951,0-1.58-0.316-1.58-0.95c0-0.634,0.734-0.843,2.104-0.843
				c4.854,0,10.76,0.21,13.398,0.21c3.797,0,11.188-0.21,15.402-0.21c11.605,0,15.826,3.798,17.303,5.064
				c2.008,1.899,4.646,5.907,4.646,10.761c0,12.659-10.131,21.732-23.314,21.732c-0.424,0-2.322,0-2.746-0.106
				c-0.523,0-1.16-0.314-1.16-0.947c0-0.739,1.064-1.16,3.061-1.16c5.174,0,12.451-5.38,12.451-14.559
				c0-2.954-0.316-8.863-5.486-13.296c-3.377-2.953-7.172-3.376-9.285-3.376c-1.369,0-3.164,0.107-4.01,0.423
				c-0.523,0.213-0.738,0.736-0.738,1.687v35.553c0,8.229,0,15.298,0.422,19.201c0.316,2.527,0.848,4.218,3.588,4.641
				c1.375,0.214,3.377,0.314,4.75,0.314c1.055,0,1.477,0.528,1.477,0.951c0,0.633-0.736,0.949-1.689,0.949
				c-6.219,0-12.766-0.316-15.186-0.316c-2.115,0-8.021,0.316-11.713,0.316c-1.162,0-1.793-0.316-1.793-0.949
				c0-0.423,0.314-0.951,1.477-0.951c1.371,0,2.428-0.104,3.271-0.314c1.898-0.423,2.43-2.109,2.744-4.747
				c0.422-3.797,0.422-10.868,0.422-19.099V94.063h-0.004v0.002L604.648,94.064L604.648,94.064z"/>
			<path fill="#E4DAC9" d="M678.076,94.064c0-13.611,0-16.142-0.105-18.992c-0.215-3.06-1.059-4.009-4.01-4.852
				c-0.738-0.212-2.32-0.317-3.691-0.317c-0.951,0-1.582-0.316-1.582-0.95c0-0.634,0.736-0.843,2.107-0.843
				c4.854,0,10.76,0.21,13.398,0.21c2.953,0,23.529,0.105,25.32,0c1.684-0.108,3.168-0.421,3.902-0.525
				c0.525-0.108,1.057-0.423,1.479-0.423c0.525,0,0.633,0.423,0.633,0.84c0,0.636-0.529,1.689-0.738,5.805
				c-0.105,0.948-0.313,4.853-0.529,5.907c-0.102,0.423-0.313,1.478-1.053,1.478c-0.637,0-0.74-0.423-0.74-1.16
				c0-0.633-0.105-2.214-0.631-3.27c-0.74-1.583-1.479-2.851-6.121-3.272c-1.582-0.212-12.658-0.421-14.559-0.421
				c-0.422,0-0.633,0.316-0.633,0.843V96.28c0,0.524,0.105,0.947,0.633,0.947c2.107,0,14.137,0,16.248-0.212
				c2.215-0.213,3.586-0.423,4.432-1.372c0.734-0.635,1.055-1.159,1.477-1.159c0.424,0,0.738,0.423,0.738,0.95
				c0,0.526-0.215,2.008-0.738,6.542c-0.213,1.793-0.422,5.382-0.422,6.015c0,0.735-0.105,2.008-0.953,2.008
				c-0.631,0-0.842-0.317-0.842-0.736c-0.104-0.951-0.104-2.11-0.313-3.273c-0.529-1.791-1.688-3.164-5.172-3.479
				c-1.688-0.214-12.238-0.421-14.561-0.421c-0.422,0-0.525,0.421-0.525,0.948v7.174c0,3.06-0.111,10.656,0,13.295
				c0.211,6.117,3.053,7.49,12.549,7.49c2.434,0,6.332-0.109,8.762-1.16c2.322-1.057,3.377-2.953,4.008-6.647
				c0.213-0.95,0.422-1.371,1.053-1.371c0.738,0,0.848,1.158,0.848,2.108c0,2.008-0.74,8.125-1.27,9.918
				c-0.633,2.32-1.477,2.32-4.955,2.32c-6.967,0-12.555-0.106-17.092-0.314c-4.539-0.105-8.018-0.213-10.76-0.213
				c-1.057,0-3.057,0.105-5.273,0.105c-2.217,0.106-4.535,0.213-6.438,0.213c-1.158,0-1.793-0.314-1.793-0.949
				c0-0.42,0.313-0.952,1.479-0.952c1.369,0,2.424-0.104,3.27-0.313c1.898-0.423,2.43-2.109,2.746-4.746
				c0.422-3.8,0.422-10.867,0.422-19.099V94.07h-0.002L678.076,94.064L678.076,94.064z"/>
			<path fill="#E4DAC9" d="M749.392,94.064c0-13.611,0-16.142-0.105-18.992c-0.211-3.06-1.059-4.009-4.008-4.852
				c-0.738-0.212-2.324-0.317-3.691-0.317c-0.955,0-1.584-0.316-1.584-0.95c0-0.634,0.738-0.843,2.109-0.843
				c4.852,0,10.76,0.21,12.658,0.21c3.166,0,11.604-0.21,14.455-0.21c5.908,0,12.658,0.525,17.617,3.798
				c2.639,1.792,6.543,6.331,6.543,12.343c0,6.649-3.799,12.553-12.871,19.833c8.23,10.13,14.77,18.253,20.363,23.843
				c5.172,5.171,8.439,5.594,9.914,5.91c0.953,0.211,1.477,0.211,2.217,0.211c0.736,0,1.158,0.527,1.158,0.949
				c0,0.738-0.633,0.949-1.791,0.949h-8.863c-5.172,0-7.699-0.527-10.131-1.791c-4.008-2.006-7.49-6.226-12.662-13.188
				c-3.689-4.854-7.594-10.868-8.754-12.241c-0.527-0.524-1.057-0.631-1.688-0.631l-8.336-0.212c-0.424,0-0.736,0.212-0.736,0.737
				v1.264c0,8.336,0.105,15.299,0.525,19.1c0.316,2.633,0.74,4.322,3.588,4.747c1.375,0.213,3.377,0.313,4.535,0.313
				c0.74,0,1.16,0.528,1.16,0.951c0,0.635-0.736,0.95-1.896,0.95c-5.377,0-13.082-0.315-14.453-0.315
				c-1.795,0-7.703,0.315-11.398,0.315c-1.158,0-1.791-0.315-1.791-0.95c0-0.423,0.314-0.951,1.479-0.951
				c1.371,0,2.428-0.103,3.271-0.313c1.898-0.423,2.43-2.108,2.744-4.747c0.422-3.801,0.422-10.87,0.422-19.1V94.062V94.064
				L749.392,94.064z M761.205,101.027c0,0.947,0.215,1.265,0.846,1.583c2.006,0.637,4.746,0.846,7.068,0.846
				c3.689,0,4.959-0.318,6.541-1.481c2.846-2.005,6.012-5.906,6.012-13.294c0-12.659-8.65-15.931-14.141-15.931
				c-2.314,0-4.535,0.108-5.482,0.316c-0.637,0.211-0.844,0.527-0.844,1.265V101.027L761.205,101.027z"/>
			<path fill="#E4DAC9" d="M832.312,94.064c0-13.611,0-16.142-0.107-18.992c-0.211-3.06-1.158-4.113-3.166-4.747
				c-1.057-0.316-2.217-0.423-3.377-0.423c-0.947,0-1.48-0.211-1.48-1.056c0-0.528,0.738-0.738,2.221-0.738
				c3.479,0,9.809,0.211,12.445,0.211c2.322,0,8.336-0.211,11.926-0.211c1.156,0,1.898,0.211,1.898,0.738
				c0,0.845-0.529,1.056-1.48,1.056c-0.947,0-1.684,0.106-2.738,0.317c-2.533,0.421-3.275,1.688-3.482,4.852
				c-0.211,2.85-0.211,5.38-0.211,18.991v15.822c0,8.652,0,15.826,0.418,19.625c0.318,2.429,0.953,3.797,3.697,4.22
				c1.262,0.214,3.377,0.315,4.748,0.315c1.055,0,1.477,0.529,1.477,0.949c0,0.635-0.738,0.949-1.793,0.949
				c-6.117,0-12.447-0.314-14.98-0.314c-2.113,0-8.439,0.314-12.133,0.314c-1.162,0-1.793-0.314-1.793-0.949
				c0-0.42,0.314-0.949,1.477-0.949c1.371,0,2.428-0.104,3.271-0.315c1.902-0.423,2.432-1.687,2.744-4.323
				c0.424-3.693,0.424-10.865,0.424-19.519V94.064H832.312z"/>
			<path fill="#E4DAC9" d="M875.671,101.975c0-15.296,10.762-35.131,38.928-35.131c23.424,0,37.982,12.979,37.982,33.549
				c0,20.571-14.982,36.716-38.93,36.716C886.644,137.108,875.671,117.906,875.671,101.975z M938.759,103.662
				c0-19.835-11.92-32.072-26.896-32.072c-10.342,0-22.473,5.487-22.473,27.642c0,18.464,10.555,33.021,28.063,33.021
				C923.988,132.251,938.759,129.192,938.759,103.662z"/>
		</g>
		<g>
			<path fill="#E4DAC9" d="M159.52-55.518c0-9.744,0-11.556-0.076-13.596c-0.151-2.191-0.756-2.87-2.87-3.475
				c-0.528-0.15-1.662-0.227-2.644-0.227c-0.68,0-1.133-0.227-1.133-0.68c0-0.454,0.528-0.604,1.511-0.604
				c3.474,0,7.704,0.15,9.593,0.15c2.719,0,8.006-0.15,11.028-0.15c8.309,0,11.33,2.719,12.388,3.625
				c1.435,1.36,3.323,4.23,3.323,7.705c0,9.065-7.251,15.561-16.693,15.561c-0.302,0-1.662,0-1.963-0.077
				c-0.377,0-0.831-0.227-0.831-0.68c0-0.528,0.755-0.831,2.19-0.831c3.701,0,8.913-3.852,8.913-10.424
				c0-2.116-0.226-6.345-3.927-9.518c-2.417-2.115-5.136-2.417-6.647-2.417c-0.982,0-2.266,0.076-2.87,0.303
				c-0.378,0.151-0.528,0.528-0.528,1.208v25.455c0,5.891,0,10.952,0.303,13.747c0.227,1.812,0.604,3.022,2.568,3.323
				c0.982,0.151,2.417,0.227,3.399,0.227c0.755,0,1.058,0.378,1.058,0.681c0,0.453-0.528,0.68-1.208,0.68
				c-4.458,0-9.14-0.227-10.878-0.227c-1.511,0-5.74,0.227-8.383,0.227c-0.831,0-1.284-0.227-1.284-0.68
				c0-0.303,0.226-0.681,1.058-0.681c0.981,0,1.737-0.076,2.341-0.227c1.36-0.302,1.737-1.511,1.964-3.399
				c0.303-2.718,0.303-7.779,0.303-13.672v-11.327H159.52z"/>
			<path fill="#E4DAC9" d="M204.537-55.518c0-9.744,0-11.556-0.075-13.596c-0.151-2.191-0.756-2.87-2.87-3.475
				c-0.528-0.15-1.662-0.227-2.644-0.227c-0.68,0-1.134-0.227-1.134-0.68c0-0.454,0.529-0.604,1.511-0.604
				c3.474,0,7.705,0.15,9.064,0.15c2.266,0,8.309-0.15,10.348-0.15c4.229,0,9.063,0.377,12.614,2.719
				c1.889,1.285,4.683,4.532,4.683,8.837c0,4.759-2.719,8.989-9.214,14.2c5.891,7.251,10.574,13.067,14.577,17.071
				c3.701,3.701,6.043,4.003,7.1,4.229c0.68,0.15,1.058,0.15,1.586,0.15s0.831,0.378,0.831,0.681c0,0.528-0.452,0.68-1.285,0.68
				h-6.344c-3.701,0-5.514-0.377-7.251-1.285c-2.871-1.436-5.363-4.456-9.064-9.441c-2.645-3.474-5.438-7.779-6.27-8.762
				c-0.377-0.377-0.756-0.452-1.208-0.452l-5.967-0.151c-0.303,0-0.528,0.151-0.528,0.528v0.907c0,5.966,0.075,10.952,0.377,13.671
				c0.227,1.889,0.529,3.097,2.568,3.399c0.981,0.151,2.417,0.227,3.248,0.227c0.53,0,0.831,0.377,0.831,0.68
				c0,0.453-0.529,0.68-1.36,0.68c-3.852,0-9.367-0.227-10.348-0.227c-1.284,0-5.514,0.227-8.159,0.227
				c-0.831,0-1.284-0.227-1.284-0.68c0-0.303,0.227-0.68,1.058-0.68c0.981,0,1.737-0.076,2.34-0.227
				c1.361-0.303,1.738-1.511,1.964-3.399c0.302-2.719,0.302-7.78,0.302-13.671L204.537-55.518L204.537-55.518z M212.996-50.532
				c0,0.68,0.151,0.906,0.604,1.133c1.435,0.454,3.399,0.604,5.06,0.604c2.645,0,3.55-0.227,4.683-1.058
				c2.04-1.436,4.306-4.229,4.306-9.517c0-9.064-6.194-11.406-10.122-11.406c-1.662,0-3.248,0.075-3.928,0.226
				c-0.454,0.151-0.604,0.377-0.604,0.907L212.996-50.532L212.996-50.532z"/>
			<path fill="#E4DAC9" d="M256.352-55.518c0-9.744,0-11.556-0.076-13.596c-0.151-2.191-0.756-2.87-2.87-3.475
				c-0.528-0.15-1.662-0.227-2.644-0.227c-0.68,0-1.133-0.227-1.133-0.68c0-0.454,0.528-0.604,1.511-0.604
				c3.474,0,7.705,0.15,9.594,0.15c2.115,0,16.843,0.075,18.127,0c1.208-0.076,2.266-0.302,2.796-0.377
				c0.377-0.076,0.755-0.302,1.057-0.302c0.377,0,0.454,0.302,0.454,0.604c0,0.453-0.377,1.208-0.528,4.154
				c-0.076,0.68-0.227,3.474-0.377,4.229c-0.075,0.303-0.227,1.058-0.755,1.058c-0.454,0-0.529-0.303-0.529-0.831
				c0-0.453-0.075-1.585-0.452-2.342c-0.53-1.133-1.058-2.04-4.381-2.34c-1.134-0.151-9.064-0.303-10.423-0.303
				c-0.303,0-0.453,0.226-0.453,0.604v15.862c0,0.377,0.075,0.68,0.453,0.68c1.511,0,10.121,0,11.632-0.151
				c1.585-0.151,2.568-0.301,3.173-0.981c0.528-0.452,0.755-0.831,1.057-0.831c0.303,0,0.529,0.302,0.529,0.68
				s-0.151,1.435-0.529,4.683c-0.15,1.284-0.302,3.852-0.302,4.305c0,0.528-0.075,1.435-0.68,1.435
				c-0.453,0-0.604-0.227-0.604-0.528c-0.075-0.68-0.075-1.511-0.226-2.342c-0.377-1.284-1.209-2.266-3.701-2.492
				c-1.208-0.151-8.762-0.303-10.424-0.303c-0.303,0-0.377,0.303-0.377,0.68v5.136c0,2.191-0.077,7.628,0,9.517
				c0.15,4.381,2.189,5.363,8.988,5.363c1.737,0,4.532-0.075,6.27-0.831c1.662-0.755,2.417-2.115,2.87-4.758
				c0.151-0.68,0.303-0.982,0.756-0.982c0.529,0,0.604,0.831,0.604,1.511c0,1.435-0.53,5.816-0.907,7.101
				c-0.453,1.662-1.057,1.662-3.55,1.662c-4.985,0-8.989-0.075-12.236-0.227c-3.248-0.076-5.74-0.15-7.705-0.15
				c-0.755,0-2.19,0.075-3.777,0.075c-1.586,0.076-3.248,0.151-4.608,0.151c-0.831,0-1.285-0.227-1.285-0.68
				c0-0.303,0.227-0.68,1.058-0.68c0.981,0,1.738-0.076,2.34-0.227c1.361-0.302,1.738-1.511,1.964-3.399
				c0.303-2.718,0.303-7.779,0.303-13.671v-11.33H256.352z"/>
			<path fill="#E4DAC9" d="M302.352-73.873c0.15-1.058,0.756-1.662,1.284-1.662c0.68,0,1.133,0.303,2.04,2.04l17.826,35.803
				l17.826-36.256c0.528-1.057,1.133-1.586,1.738-1.586c0.528,0,1.284,0.68,1.511,2.04l6.043,39.655
				c0.604,4.003,1.208,5.74,3.248,6.344c1.889,0.529,2.946,0.604,3.777,0.604c0.604,0,1.058,0.227,1.058,0.604
				c0,0.528-0.756,0.754-1.737,0.754c-1.662,0-11.104-0.301-13.747-0.452c-1.586-0.076-1.964-0.377-1.964-0.756
				c0-0.303,0.303-0.528,0.756-0.68c0.377-0.151,0.529-0.907,0.303-2.72l-3.701-27.796h-0.226l-14.276,28.703
				c-1.511,3.022-1.888,3.626-2.643,3.626c-0.831,0-1.586-1.284-2.645-3.248c-1.586-2.946-6.874-12.765-7.629-14.579
				c-0.528-1.208-4.457-9.291-6.647-13.747h-0.227l-3.173,25.078c-0.151,1.133-0.227,1.963-0.227,3.021
				c0,1.208,0.907,1.662,2.04,1.888c1.132,0.227,1.737,0.303,2.34,0.303c0.604,0,1.057,0.303,1.057,0.604
				c0,0.604-0.604,0.755-1.585,0.755c-2.794,0-5.816-0.227-7.024-0.227c-1.285,0-4.456,0.227-6.571,0.227
				c-0.681,0-1.209-0.15-1.209-0.755c0-0.302,0.377-0.604,1.058-0.604c0.529,0,0.982,0,2.04-0.15
				c1.813-0.227,2.417-2.794,2.719-4.91L302.352-73.873z"/>
			<path fill="#E4DAC9" d="M369.577-55.518c0-9.744,0-11.556-0.076-13.596c-0.15-2.191-0.831-2.946-2.266-3.4
				c-0.756-0.226-1.585-0.303-2.417-0.303c-0.68,0-1.058-0.15-1.058-0.756c0-0.377,0.53-0.528,1.586-0.528
				c2.493,0,7.025,0.15,8.913,0.15c1.662,0,5.967-0.15,8.535-0.15c0.832,0,1.359,0.15,1.359,0.528c0,0.604-0.377,0.756-1.058,0.756
				c-0.681,0-1.208,0.076-1.963,0.227c-1.813,0.303-2.341,1.208-2.493,3.474c-0.15,2.039-0.15,3.852-0.15,13.596v11.331
				c0,6.194,0,11.33,0.303,14.049c0.226,1.737,0.68,2.719,2.644,3.022c0.906,0.15,2.417,0.227,3.399,0.227
				c0.756,0,1.058,0.377,1.058,0.68c0,0.453-0.53,0.68-1.285,0.68c-4.381,0-8.913-0.227-10.726-0.227
				c-1.511,0-6.043,0.227-8.686,0.227c-0.831,0-1.284-0.227-1.284-0.68c0-0.303,0.226-0.68,1.058-0.68
				c0.981,0,1.737-0.076,2.341-0.227c1.36-0.303,1.737-1.209,1.964-3.097c0.303-2.644,0.303-7.779,0.303-13.973L369.577-55.518
				L369.577-55.518z"/>
			<path fill="#E4DAC9" d="M397.449-55.518c0-9.744,0.075-11.556-0.076-13.596c-0.151-2.266-0.755-2.87-2.871-3.475
				c-0.528-0.15-1.662-0.227-2.568-0.227c-0.755,0-1.134-0.227-1.134-0.68c0-0.454,0.453-0.604,1.435-0.604
				c3.55,0,8.006,0.15,9.971,0.15c1.662,0,6.118-0.15,8.536-0.15c0.98,0,1.435,0.15,1.435,0.604c0,0.453-0.377,0.68-1.057,0.68
				c-0.756,0-1.133,0.075-1.965,0.227c-1.736,0.303-2.267,1.208-2.417,3.475c-0.15,2.04-0.15,3.852-0.15,13.596v8.989
				c0,9.366,1.814,12.991,5.062,15.56c2.945,2.341,6.117,2.568,8.384,2.568c2.87,0,6.27-0.831,8.913-3.399
				c3.701-3.474,3.853-9.064,3.853-15.635v-8.082c0-9.744-0.075-11.556-0.15-13.596c-0.15-2.191-0.681-2.87-2.794-3.474
				c-0.53-0.151-1.662-0.227-2.417-0.227c-0.757,0-1.134-0.227-1.134-0.68c0-0.454,0.453-0.604,1.358-0.604
				c3.4,0,7.855,0.15,7.932,0.15c0.756,0,5.212-0.15,7.781-0.15c0.906,0,1.359,0.15,1.359,0.604c0,0.453-0.377,0.68-1.133,0.68
				c-0.757,0-1.135,0.075-1.964,0.227c-1.813,0.303-2.266,1.208-2.417,3.474c-0.075,2.04-0.15,3.852-0.15,13.596v6.874
				c0,7.175-0.756,14.729-6.344,19.337c-4.684,3.928-9.744,4.608-14.051,4.608c-3.474,0-10.348-0.151-15.183-4.381
				c-3.399-2.946-6.043-7.704-6.043-16.995L397.449-55.518L397.449-55.518z"/>
			<path fill="#E4DAC9" d="M459.01-73.873c0.15-1.058,0.756-1.662,1.284-1.662c0.68,0,1.133,0.303,2.039,2.04l17.828,35.803
				l17.826-36.256c0.527-1.057,1.133-1.586,1.737-1.586c0.528,0,1.284,0.68,1.512,2.04l6.043,39.655
				c0.604,4.003,1.206,5.74,3.249,6.344c1.888,0.529,2.944,0.604,3.775,0.604c0.604,0,1.059,0.227,1.059,0.604
				c0,0.528-0.757,0.754-1.738,0.754c-1.661,0-11.104-0.301-13.746-0.452c-1.584-0.076-1.964-0.377-1.964-0.756
				c0-0.303,0.303-0.528,0.757-0.68c0.376-0.151,0.528-0.907,0.302-2.72l-3.701-27.796h-0.227l-14.278,28.703
				c-1.511,3.022-1.887,3.626-2.642,3.626c-0.831,0-1.585-1.284-2.645-3.248c-1.586-2.946-6.875-12.765-7.629-14.579
				c-0.527-1.208-4.457-9.291-6.646-13.747h-0.228l-3.173,25.078c-0.149,1.133-0.227,1.963-0.227,3.021
				c0,1.208,0.909,1.662,2.042,1.888c1.132,0.227,1.735,0.303,2.339,0.303s1.06,0.303,1.06,0.604c0,0.604-0.604,0.755-1.586,0.755
				c-2.794,0-5.815-0.227-7.024-0.227c-1.284,0-4.456,0.227-6.571,0.227c-0.68,0-1.208-0.15-1.208-0.755
				c0-0.302,0.377-0.604,1.058-0.604c0.528,0,0.981,0,2.039-0.15c1.813-0.227,2.417-2.794,2.721-4.91L459.01-73.873z"/>
			<path fill="#E4DAC9" d="M556.069-42.224c0-3.474-0.604-4.834-1.513-6.723c-0.453-0.981-9.518-15.107-11.857-18.506
				c-1.662-2.341-3.022-3.852-4.307-4.531c-0.831-0.454-1.963-0.832-2.796-0.832c-0.527,0-0.979-0.226-0.979-0.68
				s0.451-0.604,1.284-0.604c1.134,0,6.115,0.15,8.309,0.15c1.435,0,4.533-0.15,7.554-0.15c0.604,0,0.98,0.15,0.98,0.604
				c0,0.528-0.451,0.528-1.513,0.831c-0.526,0.15-0.905,0.453-0.905,0.981s0.305,1.285,0.831,2.191
				c1.207,1.963,9.895,16.996,11.027,18.808c0.831-1.511,8.913-15.258,9.896-17.222c0.68-1.435,0.981-2.569,0.981-3.399
				c0-0.604-0.304-1.208-1.438-1.435c-0.604-0.151-1.206-0.227-1.206-0.755c0-0.454,0.377-0.604,1.134-0.604
				c2.19,0,4.531,0.15,6.494,0.15c1.436,0,5.814-0.15,7.1-0.15c0.754,0,1.207,0.15,1.207,0.528c0,0.454-0.527,0.756-1.281,0.756
				c-0.684,0-1.891,0.303-2.871,0.756c-1.436,0.68-2.039,1.285-3.473,3.021c-2.191,2.568-11.708,17.826-12.918,20.545
				c-0.982,2.34-0.832,4.305-0.832,6.42v5.136c0,1.057,0,3.701,0.153,6.42c0.15,1.889,0.756,3.097,2.718,3.399
				c0.981,0.15,2.416,0.227,3.325,0.227c0.755,0,1.134,0.377,1.134,0.68c0,0.453-0.53,0.68-1.438,0.68
				c-4.154,0-8.61-0.227-10.423-0.227c-1.663,0-6.117,0.227-8.611,0.227c-0.906,0-1.436-0.151-1.436-0.68
				c0-0.303,0.303-0.68,1.059-0.68c0.906,0,1.737-0.076,2.342-0.227c1.359-0.302,1.889-1.51,2.039-3.399
				c0.227-2.719,0.227-5.363,0.227-6.42L556.069-42.224L556.069-42.224z"/>
			<path fill="#E4DAC9" d="M656.679-29.836c0,1.737,0,1.813-0.832,2.266c-4.455,2.19-11.025,2.87-16.234,2.87
				c-16.318,0-30.744-7.402-30.744-25.153c0-10.272,5.512-17.448,11.633-20.998c6.346-3.701,12.313-4.154,17.902-4.154
				c4.605,0,10.422,0.756,11.783,1.057c1.357,0.227,3.701,0.604,5.287,0.68c0.756,0.076,0.908,0.303,0.908,0.756
				c0,0.756-0.455,2.493-0.455,10.575c0,0.983-0.377,1.435-0.904,1.435c-0.453,0-0.605-0.303-0.682-0.831
				c-0.152-1.435-0.529-3.474-2.266-5.288c-1.965-2.04-6.951-4.909-14.428-4.909c-3.629,0-8.234,0.075-12.842,3.777
				c-3.703,3.022-6.115,7.78-6.115,15.635c0,13.822,8.908,23.869,23.111,23.869c1.738,0,3.098,0,4.684-0.68
				c0.98-0.452,1.283-1.134,1.283-2.266v-5.891c0-3.173,0-5.589-0.072-7.554c-0.076-2.19-0.756-2.87-2.869-3.474
				c-0.529-0.15-1.662-0.227-2.568-0.227c-0.604,0-1.061-0.303-1.061-0.68c0-0.529,0.529-0.604,1.438-0.604
				c3.475,0,8.234,0.151,10.197,0.151c2.113,0,5.59-0.151,7.777-0.151c0.908,0,1.359,0.076,1.359,0.604
				c0,0.377-0.379,0.68-0.83,0.68c-0.529,0-1.059,0.075-1.813,0.227c-1.814,0.303-2.494,1.209-2.568,3.474
				c-0.076,1.964-0.076,4.532-0.076,7.705v7.099H656.679z"/>
			<path fill="#E4DAC9" d="M675.259-55.518c0-9.744,0-11.556-0.072-13.596c-0.15-2.191-0.83-2.946-2.268-3.4
				c-0.754-0.226-1.584-0.303-2.416-0.303c-0.682,0-1.059-0.15-1.059-0.756c0-0.377,0.525-0.528,1.586-0.528
				c2.49,0,7.021,0.15,8.91,0.15c1.662,0,5.969-0.15,8.533-0.15c0.832,0,1.359,0.15,1.359,0.528c0,0.604-0.377,0.756-1.057,0.756
				c-0.682,0-1.209,0.076-1.965,0.227c-1.813,0.303-2.34,1.208-2.492,3.474c-0.15,2.039-0.15,3.852-0.15,13.596v11.331
				c0,6.194,0,11.33,0.303,14.049c0.227,1.737,0.682,2.719,2.646,3.022c0.906,0.15,2.416,0.227,3.396,0.227
				c0.756,0,1.059,0.377,1.059,0.68c0,0.453-0.527,0.68-1.283,0.68c-4.381,0-8.912-0.227-10.725-0.227
				c-1.514,0-6.045,0.227-8.688,0.227c-0.832,0-1.285-0.227-1.285-0.68c0-0.303,0.227-0.68,1.059-0.68
				c0.98,0,1.736-0.076,2.342-0.227c1.355-0.303,1.734-1.209,1.961-3.097c0.303-2.644,0.303-7.779,0.303-13.973L675.259-55.518
				L675.259-55.518z"/>
			<path fill="#E4DAC9" d="M745.81-29.836c0,1.737,0,1.813-0.828,2.266c-4.459,2.19-11.029,2.87-16.24,2.87
				C712.423-24.7,698-32.102,698-49.853c0-10.272,5.514-17.448,11.631-20.998c6.35-3.701,12.314-4.154,17.902-4.154
				c4.607,0,10.424,0.756,11.785,1.057c1.359,0.227,3.701,0.604,5.289,0.68c0.754,0.076,0.904,0.303,0.904,0.756
				c0,0.756-0.453,2.493-0.453,10.575c0,0.983-0.377,1.435-0.906,1.435c-0.453,0-0.604-0.303-0.68-0.831
				c-0.15-1.435-0.527-3.474-2.266-5.288c-1.965-2.04-6.949-4.909-14.43-4.909c-3.625,0-8.232,0.075-12.842,3.777
				c-3.701,3.022-6.115,7.78-6.115,15.635c0,13.822,8.912,23.869,23.111,23.869c1.738,0,3.1,0,4.686-0.68
				c0.98-0.452,1.285-1.134,1.285-2.266v-5.891c0-3.173,0-5.589-0.074-7.554c-0.076-2.19-0.756-2.87-2.871-3.474
				c-0.529-0.15-1.66-0.227-2.568-0.227c-0.604,0-1.057-0.303-1.057-0.68c0-0.529,0.527-0.604,1.436-0.604
				c3.473,0,8.232,0.151,10.197,0.151c2.113,0,5.588-0.151,7.777-0.151c0.908,0,1.357,0.076,1.357,0.604
				c0,0.377-0.377,0.68-0.828,0.68c-0.529,0-1.061,0.075-1.814,0.227c-1.813,0.303-2.49,1.209-2.566,3.474
				c-0.076,1.964-0.076,4.532-0.076,7.705v7.099H745.81z"/>
			<path fill="#E4DAC9" d="M767.261-41.695c-0.379,0-0.453,0.076-0.604,0.453l-3.553,8.611c-0.68,1.585-0.979,3.172-0.979,3.927
				c0,1.134,0.602,1.813,2.643,1.813h0.98c0.832,0,0.98,0.303,0.98,0.681c0,0.528-0.377,0.68-1.057,0.68
				c-2.193,0-5.289-0.227-7.402-0.227c-0.68,0-4.229,0.227-7.703,0.227c-0.832,0-1.209-0.151-1.209-0.68
				c0-0.377,0.227-0.681,0.754-0.681c0.604,0,1.359-0.076,1.965-0.076c3.021-0.452,4.154-2.417,5.514-5.666l17.373-40.409
				c0.754-1.814,1.285-2.569,1.963-2.569c0.98,0,1.283,0.604,1.963,2.039c1.584,3.551,12.688,29.836,16.92,39.58
				c2.566,5.817,4.455,6.647,5.664,6.874c0.98,0.151,1.736,0.227,2.492,0.227c0.604,0,0.906,0.227,0.906,0.681
				c0,0.528-0.377,0.68-2.869,0.68c-2.342,0-7.176,0-12.766-0.151c-1.209-0.075-1.963-0.075-1.963-0.528
				c0-0.377,0.148-0.604,0.83-0.68c0.451-0.076,0.904-0.68,0.604-1.436l-5.137-12.917c-0.15-0.377-0.377-0.453-0.682-0.453H767.261z
				 M781.462-45.246c0.301,0,0.377-0.151,0.301-0.377l-6.268-16.316c-0.074-0.227-0.152-0.604-0.305-0.604
				c-0.227,0-0.303,0.377-0.377,0.604l-6.422,16.24c-0.148,0.302,0,0.453,0.229,0.453H781.462z"/>
			<path fill="#E4DAC9" d="M816.281-34.293c0.15,4.985,0.982,6.495,2.268,6.948c1.131,0.377,2.416,0.453,3.475,0.453
				c0.756,0,1.133,0.303,1.133,0.681c0,0.528-0.605,0.68-1.512,0.68c-4.305,0-7.402-0.227-8.611-0.227
				c-0.604,0-3.775,0.227-7.174,0.227c-0.91,0-1.512-0.075-1.512-0.68c0-0.377,0.451-0.681,1.059-0.681
				c0.904,0,2.113-0.076,3.02-0.303c1.738-0.453,1.963-2.189,2.041-7.779l0.604-38.069c0-1.285,0.453-2.191,1.135-2.191
				c0.828,0,1.736,0.982,2.869,2.115c0.828,0.831,10.799,11.028,20.471,20.469c4.531,4.457,13.369,13.521,14.352,14.428h0.303
				l-0.68-28.552c-0.076-3.927-0.68-5.06-2.268-5.666c-0.98-0.377-2.57-0.377-3.475-0.377c-0.828,0-1.059-0.302-1.059-0.68
				c0-0.529,0.682-0.604,1.662-0.604c3.475,0,7.025,0.15,8.459,0.15c0.756,0,3.248-0.15,6.496-0.15c0.906,0,1.512,0.075,1.512,0.604
				c0,0.377-0.377,0.68-1.135,0.68c-0.682,0-1.207,0-2.039,0.227c-1.813,0.529-2.34,1.662-2.418,5.288L854.5-26.817
				c0,1.435-0.527,2.04-1.057,2.04c-1.135,0-2.039-0.68-2.721-1.359c-4.152-3.852-12.461-11.783-19.412-18.506
				c-7.25-6.949-14.275-14.729-15.561-15.862h-0.227L816.281-34.293z"/>
			<path fill="#E4DAC9" d="M884.488-70.172l-9.895,0.227c-3.852,0.075-5.438,0.528-6.42,1.963c-0.684,0.906-0.98,1.738-1.133,2.191
				c-0.152,0.528-0.305,0.831-0.756,0.831c-0.453,0-0.605-0.377-0.605-1.058c0-1.058,1.283-7.251,1.436-7.779
				c0.152-0.831,0.377-1.208,0.756-1.208c0.531,0,1.207,0.529,2.871,0.756c1.963,0.226,4.457,0.302,6.645,0.302h26.967
				c2.113,0,3.551-0.15,4.531-0.302c1.059-0.151,1.584-0.303,1.813-0.303c0.455,0,0.529,0.377,0.529,1.36
				c0,1.359-0.15,6.118-0.15,7.78c-0.074,0.68-0.227,1.058-0.604,1.058c-0.529,0-0.68-0.302-0.756-1.285l-0.074-0.68
				c-0.148-1.662-1.889-3.625-7.855-3.701l-8.383-0.151v25.985c0,5.891,0.072,10.952,0.377,13.746
				c0.227,1.813,0.604,3.022,2.566,3.324c0.906,0.15,2.418,0.227,3.4,0.227c0.754,0,1.059,0.377,1.059,0.68
				c0,0.453-0.529,0.68-1.283,0.68c-4.381,0-8.84-0.227-10.729-0.227c-1.51,0-6.041,0.227-8.686,0.227
				c-0.83,0-1.285-0.227-1.285-0.68c0-0.303,0.227-0.68,1.061-0.68c0.98,0,1.813-0.076,2.338-0.227
				c1.359-0.303,1.738-1.511,1.965-3.399c0.303-2.719,0.303-7.78,0.303-13.672v-25.985H884.488z"/>
			<path fill="#E4DAC9" d="M923.464-55.518c0-9.744,0-11.556-0.076-13.596c-0.15-2.191-0.756-2.87-2.869-3.475
				c-0.529-0.15-1.664-0.227-2.645-0.227c-0.68,0-1.133-0.227-1.133-0.68c0-0.454,0.527-0.604,1.51-0.604
				c3.475,0,7.705,0.15,9.594,0.15c2.115,0,16.844,0.075,18.129,0c1.207-0.076,2.266-0.302,2.793-0.377
				c0.377-0.076,0.758-0.302,1.061-0.302c0.379,0,0.451,0.302,0.451,0.604c0,0.453-0.377,1.208-0.529,4.154
				c-0.074,0.68-0.225,3.474-0.377,4.229c-0.076,0.303-0.229,1.058-0.756,1.058c-0.453,0-0.527-0.303-0.527-0.831
				c0-0.453-0.076-1.585-0.453-2.342c-0.529-1.133-1.059-2.04-4.379-2.34c-1.133-0.151-9.064-0.303-10.424-0.303
				c-0.305,0-0.453,0.226-0.453,0.604v15.862c0,0.377,0.076,0.68,0.453,0.68c1.512,0,10.121,0,11.631-0.151
				c1.588-0.151,2.572-0.301,3.174-0.981c0.529-0.452,0.754-0.831,1.061-0.831c0.303,0,0.527,0.302,0.527,0.68
				s-0.15,1.435-0.527,4.683c-0.15,1.284-0.307,3.852-0.307,4.305c0,0.528-0.07,1.435-0.68,1.435c-0.451,0-0.604-0.227-0.604-0.528
				c-0.072-0.68-0.072-1.511-0.227-2.342c-0.379-1.284-1.205-2.266-3.701-2.492c-1.209-0.151-8.762-0.303-10.424-0.303
				c-0.301,0-0.377,0.303-0.377,0.68v5.136c0,2.191-0.074,7.628,0,9.517c0.15,4.381,2.191,5.363,8.99,5.363
				c1.734,0,4.531-0.075,6.268-0.831c1.664-0.755,2.418-2.115,2.869-4.758c0.152-0.68,0.305-0.982,0.756-0.982
				c0.529,0,0.605,0.831,0.605,1.511c0,1.435-0.529,5.816-0.906,7.101c-0.453,1.662-1.061,1.662-3.551,1.662
				c-4.984,0-8.99-0.075-12.236-0.227c-3.248-0.076-5.74-0.15-7.707-0.15c-0.754,0-2.189,0.075-3.777,0.075
				c-1.582,0.076-3.244,0.151-4.604,0.151c-0.83,0-1.283-0.227-1.283-0.68c0-0.303,0.227-0.68,1.059-0.68
				c0.98,0,1.736-0.076,2.342-0.227c1.357-0.302,1.732-1.511,1.961-3.399c0.305-2.718,0.305-7.779,0.305-13.671L923.464-55.518
				L923.464-55.518z"/>
		</g>
	</g>
</g>
</svg>
