<?xml version="1.0" encoding="utf-8"?>
<!-- Generator: Adobe Illustrator 23.0.6, SVG Export Plug-In . SVG Version: 6.00 Build 0)  -->
<svg version="1.1" id="Layer_1" xmlns="http://www.w3.org/2000/svg" xmlns:xlink="http://www.w3.org/1999/xlink" x="0px" y="0px"
	 viewBox="0 0 1957.6 279.5" style="enable-background:new 0 0 1957.6 279.5;" xml:space="preserve">
<style type="text/css">
	.st0{fill:#B3A075;}
	.st1{fill-rule:evenodd;clip-rule:evenodd;fill:#B3A075;}
</style>
<g>
	<path class="st0" d="M285.6,172.6l24-67H332l24,67h-21.9l-2.6-8.8h-21.9l-2.5,8.8H285.6z M320.6,125.8l-6.8,24h13.9L320.6,125.8z"
		/>
	<path class="st0" d="M405.3,131.2c-0.3-3.5-1.5-6.2-3.6-8.1c-2.1-1.9-4.8-2.8-8.3-2.8c-3.9,0-7,1.6-9.1,4.9
		c-2.2,3.2-3.3,8.1-3.3,14.6c0,2.4,0.2,4.6,0.5,6.8c0.3,2.2,1,4.2,1.9,5.8c0.9,1.7,2.3,3,4,4c1.7,1,4,1.5,6.8,1.5
		c3.5,0,6.2-1.1,8-3.3c1.8-2.2,2.9-4.9,3.3-8.1h21.1c-0.5,4.3-1.6,8.2-3.4,11.6c-1.7,3.4-4,6.3-6.7,8.7c-2.8,2.4-6,4.2-9.7,5.5
		c-3.7,1.3-7.8,1.9-12.2,1.9c-5.5,0-10.5-0.8-14.9-2.5c-4.4-1.6-8.1-4-11.2-7.1c-3.1-3.1-5.4-6.8-7-11.1c-1.6-4.3-2.4-9.2-2.4-14.7
		c0-5.4,0.9-10.3,2.6-14.6c1.7-4.3,4.1-8,7.1-11.1c3-3,6.5-5.4,10.6-7c4.1-1.6,8.4-2.5,13.1-2.5c10.2,0,18.2,2.4,23.9,7.2
		c5.7,4.8,8.9,11.5,9.8,20.1H405.3z"/>
	<polygon class="st0" points="436.5,172.6 436.5,105.6 491.1,105.6 491.1,121.2 458.4,121.2 458.4,130.8 486.1,130.8 486.1,146.4 
		458.4,146.4 458.4,156.9 492.4,156.9 492.4,172.6 	"/>
	<polygon class="st0" points="503.7,172.6 503.7,105.6 525.6,105.6 525.6,156.9 555.8,156.9 555.8,172.6 	"/>
	<path class="st0" d="M565.2,105.6h22v40.1c0,1.7,0.1,3.3,0.3,4.8c0.2,1.5,0.7,2.8,1.5,3.9c0.7,1.1,1.8,2,3.2,2.7
		c1.4,0.7,3.2,1,5.4,1c2,0,3.6-0.3,4.9-0.9c1.3-0.6,2.4-1.4,3.2-2.5c0.8-1.1,1.4-2.4,1.7-3.9c0.3-1.5,0.5-3.2,0.5-5v-40.1h22v37.9
		c0,10.7-2.6,18.6-7.8,23.5c-5.2,4.9-13.3,7.4-24.4,7.4c-5.2,0-9.8-0.5-13.8-1.6c-4-1-7.4-2.8-10.1-5.3c-2.7-2.4-4.8-5.6-6.2-9.6
		c-1.4-3.9-2.1-8.8-2.1-14.6V105.6z"/>
	<path class="st0" d="M665.6,139.5c-2.3,0-4.4-0.4-6.3-1.3c-2-0.9-3.7-2-5.1-3.5c-1.5-1.5-2.6-3.2-3.5-5.2c-0.8-2-1.3-4.1-1.3-6.3
		s0.4-4.3,1.3-6.3c0.8-2,2-3.7,3.5-5.2c1.5-1.5,3.2-2.6,5.1-3.5c2-0.9,4.1-1.3,6.3-1.3c2.2,0,4.3,0.4,6.3,1.3c2,0.8,3.7,2,5.1,3.5
		c1.5,1.5,2.6,3.2,3.5,5.2c0.9,2,1.3,4.1,1.3,6.3s-0.4,4.3-1.3,6.3c-0.9,2-2,3.7-3.5,5.2c-1.5,1.5-3.2,2.6-5.1,3.5
		C669.9,139.1,667.8,139.5,665.6,139.5 M665.6,135.6c1.7,0,3.3-0.3,4.8-0.9c1.5-0.6,2.7-1.5,3.8-2.5c1.1-1.1,1.9-2.4,2.5-3.9
		c0.6-1.5,0.9-3.2,0.9-5s-0.3-3.5-0.9-5c-0.6-1.5-1.4-2.8-2.5-3.9c-1.1-1.1-2.3-1.9-3.8-2.6c-1.5-0.6-3-0.9-4.8-0.9
		c-1.8,0-3.4,0.3-4.9,0.9c-1.5,0.6-2.7,1.5-3.8,2.6c-1,1.1-1.9,2.4-2.4,3.9c-0.6,1.5-0.9,3.2-0.9,5s0.3,3.5,0.9,5
		c0.6,1.5,1.4,2.8,2.4,3.9c1,1.1,2.3,1.9,3.8,2.5C662.2,135.3,663.8,135.6,665.6,135.6 M673.6,132.1h-4.2l-3.9-7.4h-2.9v7.4h-3.7
		v-17.5h8.5c2.3,0,4,0.4,5.1,1.1c1.1,0.8,1.7,2.2,1.7,4.2c0,1.6-0.4,2.8-1.2,3.5c-0.8,0.7-2,1.1-3.5,1.2L673.6,132.1z M667.4,122.1
		c1,0,1.8-0.1,2.4-0.5c0.6-0.3,0.9-1.1,0.9-2.1c0-0.6-0.1-1-0.4-1.4c-0.3-0.3-0.6-0.5-1-0.6c-0.4-0.1-0.9-0.2-1.4-0.2h-1.4h-4v4.8
		H667.4z"/>
	<path class="st1" d="M166.6,83.9c-1.8-3.1,13.4-12.5,6.3-24.3c-13.5-1-17.8,15.6-12.7,26.5c-2.1,0.5-5.3,5.2-6.3,3.2
		c5.3-7.3,4.2-24.8-6.4-25.4c-9,7.3-2,24.7,4.2,29.6c-1.3,2.5-3.9,3.9-3.2,8.5c0.7,2.1,5.9-0.2,6.3,2.1c-8.1,1.8-12.8,7-13.8,15.9
		c15.3,0.8,21.3-7.7,25.4-18c-1.9-0.6-6.2,1.3-6.4-1.1c9-2.7,13.8-9.5,15.9-19c-2.8,0.7-6.6,0.4-8.5,2.1H166.6z"/>
	<path class="st1" d="M144.3,86V85c-8.5-13-14.8,12.4-7.4,19.1c-2.9-0.7-2.6-4.4-6.3-4.2c-7.5,4.8-5.5,17.8-1.1,24.4
		c-3.1-0.8-2.7-5-7.4-4.2c-2.8,2.2-3.3,6.6-5.3,9.5c-28.6-18.2-76.5-13.8-77.3,26.5c1.4,2.1,4.5-3.2,5.3-5.3v-1.1
		c5-5.9,10.5-11.3,18-14.8h1.1c1.6-0.2,3.9,0.4,4.2-1.1h1.1h7.4h1.1c1.6,1.6,4.6,1.7,7.4,2.1h1.1c10.9,6,24.5,9.4,34.9,15.9
		c-0.4,3.8-2.8,5.6-2.1,10.6v1.1c-2.3-0.2-0.5,3.8-1.1,5.3v1c-1.8,7.1-1.8,21.5,0,28.6v1.1c0.3,5.7,1.1,10.9,3.2,14.8v1.1
		c1.4,8.9,3.1,17.3,11.6,19.1c-1.5-3,2.9-5.4,0-6.4v-1c-1-11.4-2.6-26.4,2.1-34.9c3,14.6,2.6,32.7,16.9,36c-2.4-7.4-5.8-14-8.5-21.2
		v-1.1c-2.2-10.4-0.6-23.1,0-33.9c-13.1-0.4-12.2,13.2-19.1,19.1c-0.1-13.5-0.6-27.4,5.3-34.9c23.5,2.7,50.8,40.1,79.4,29.6
		c13.1-4.8,18.2-21.8,24.3-36c-9.8,6-11.1,20.7-25.4,22.2h-1.1c-25.3-6.5-44.3-19.2-64.6-30.7c4-4.9,11.8-11.2,8.5-20.1
		c-7-1.6-10.9,5.3-13.8,4.2c2.6-5.6,3.5-13.8,1.1-19c1.9,0.9,2.7,3,6.3,2.1c1.8-7.1,7.2-16.4,0-21.2V86z"/>
	<path class="st0" d="M136.6,33.1c59.7,0,108.3,48.6,108.3,108.3c0,59.7-48.6,108.3-108.3,108.3c-59.7,0-108.3-48.6-108.3-108.3
		C28.2,81.7,76.8,33.1,136.6,33.1 M136.6,24.6C72,24.6,19.7,76.9,19.7,141.4c0,64.5,52.3,116.8,116.8,116.8
		c64.5,0,116.8-52.3,116.8-116.8C253.4,76.9,201.1,24.6,136.6,24.6"/>
</g>
<g>
	<path class="st0" d="M1653.4,143.9h-11.4c0.6-4.6,2.2-8.3,5-11.1c3.8-3.9,8.6-5.9,14.3-5.9c5.1,0,9.4,1.6,12.9,4.9
		c3.5,3.3,5.2,7.1,5.2,11.6c0,2.8-0.8,5.3-2.3,7.6c-1.5,2.3-3.7,4.2-6.6,5.6c3.8,1.1,6.8,3.1,8.9,5.9c2.1,2.8,3.2,6.1,3.2,10
		c0,5.6-2.1,10.4-6.2,14.3c-4.1,3.9-9.4,5.8-15.8,5.8c-6.1,0-11-1.8-14.8-5.5c-3.8-3.7-5.9-8.7-6.3-15h11.8c0.5,3.2,1.6,5.6,3.4,7.2
		c1.8,1.6,3.9,2.4,6.6,2.4c2.8,0,5.1-0.9,6.9-2.7c1.8-1.8,2.7-4,2.7-6.6c0-2.8-1.2-5.2-3.7-7.2c-2.5-2-6-3-10.7-3V152
		c2.9-0.2,5-0.7,6.4-1.3c1.4-0.7,2.5-1.6,3.3-2.7c0.8-1.2,1.2-2.4,1.2-3.7c0-1.7-0.6-3.1-1.8-4.2c-1.2-1.1-2.7-1.7-4.7-1.7
		c-1.7,0-3.2,0.5-4.6,1.5C1654.8,140.9,1653.9,142.3,1653.4,143.9"/>
	<path class="st0" d="M1700.8,148.6h-11.6c0.3-6.7,2.4-12,6.4-15.9c3.9-3.9,9-5.8,15.1-5.8c3.8,0,7.1,0.8,10.1,2.4
		c2.9,1.6,5.2,3.9,7,6.9c1.7,3,2.6,6.1,2.6,9.2c0,3.7-1.1,7.7-3.2,12c-2.1,4.3-6,9.3-11.6,15.2l-7,7.4h22.3v11h-43.3v-5.7l19.3-19.7
		c4.7-4.7,7.8-8.5,9.3-11.4c1.5-2.9,2.3-5.5,2.3-7.8c0-2.4-0.8-4.4-2.4-6c-1.6-1.6-3.7-2.4-6.2-2.4c-2.6,0-4.7,1-6.4,2.9
		C1701.8,142.8,1700.9,145.4,1700.8,148.6"/>
	<polygon class="st0" points="1739.6,128.5 1780.6,128.5 1780.6,134.7 1752.3,192.6 1742.3,187.7 1765.8,139.7 1739.6,139.7 	"/>
	<path class="st0" d="M1710,268.2c-89.3,0-161.9-50.7-161.9-112.9c0-62.3,72.6-112.9,161.9-112.9c89.3,0,161.9,50.6,161.9,112.9
		C1871.9,217.6,1799.3,268.2,1710,268.2 M1710,47.6c-86.4,0-156.7,48.3-156.7,107.7c0,59.4,70.3,107.7,156.7,107.7
		c86.4,0,156.7-48.3,156.7-107.7C1866.7,95.9,1796.4,47.6,1710,47.6"/>
	<path class="st0" d="M1609.3,88.8l4.8-3.1l10.6,16.1c0.9,1.4,1.7,2.3,2.3,2.7c0.6,0.4,1.3,0.6,2.1,0.6c0.8,0,1.6-0.3,2.4-0.8
		c0.8-0.5,1.4-1.2,1.8-2c0.4-0.8,0.4-1.5,0.3-2.3c-0.2-0.7-0.8-2-1.9-3.6l-10.2-15.5l4.8-3.1l9.7,14.9c1.7,2.5,2.6,4.3,3,5.5
		c0.4,1.2,0.4,2.5,0.2,3.9c-0.2,1.4-0.7,2.7-1.4,3.8c-0.7,1.1-1.8,2.1-3.2,3c-1.8,1.2-3.7,1.8-5.5,1.8c-1.9,0.1-3.5-0.4-4.9-1.2
		c-1.4-0.9-3.1-2.8-5-5.8L1609.3,88.8z"/>
	<path class="st0" d="M1636.6,72.7l5.6-2.2c3.1-1.2,5.4-1.8,6.9-1.8c1.5,0,2.9,0.5,4.2,1.5c1.3,1,2.3,2.3,3,4
		c0.7,1.8,0.9,3.5,0.5,5.1c-0.4,1.6-1.3,3-2.9,4.3l11.4,9.8l-5.8,2.3l-10.8-9.3l-0.5,0.2l4.6,11.8l-5.3,2.1L1636.6,72.7z
		 M1646.1,81.5l1.7-0.6c1.7-0.7,2.7-1.3,3.2-2c0.5-0.7,0.5-1.5,0.1-2.6c-0.2-0.6-0.6-1.1-1.1-1.4c-0.5-0.3-1-0.5-1.6-0.5
		c-0.6,0-1.6,0.3-3,0.9l-1.4,0.6L1646.1,81.5z"/>
	<path class="st0" d="M1662.1,63.6l5.6-1.1l3.9,18.9c0.3,1.6,0.7,2.7,1.1,3.4c0.4,0.6,1,1.1,1.7,1.3c0.7,0.3,1.6,0.3,2.5,0.1
		c1-0.2,1.8-0.6,2.4-1.2c0.6-0.6,1-1.3,1.1-2c0.1-0.7,0-2.1-0.4-4.1l-3.8-18.2l5.6-1.2l3.6,17.4c0.6,2.9,0.9,5,0.8,6.2
		c-0.1,1.2-0.5,2.4-1.2,3.7c-0.7,1.3-1.6,2.3-2.7,3c-1.1,0.8-2.5,1.3-4.1,1.6c-2.1,0.4-4.1,0.3-5.8-0.3c-1.8-0.7-3.1-1.6-4.1-3
		c-1-1.3-1.8-3.7-2.5-7.2L1662.1,63.6z"/>
	<path class="st0" d="M1720.3,62.3l-3.9,4c-2.6-2.6-5.5-3.9-8.9-3.9c-2.9,0.1-5.4,1.1-7.3,3c-1.9,2-2.9,4.4-2.8,7.1
		c0,2.9,1.1,5.3,3.2,7.3c2.1,2,4.6,2.9,7.7,2.9c2,0,3.6-0.5,4.9-1.3c1.3-0.9,2.4-2.2,3.2-3.9l-8.6,0.2l-0.1-5.3l15-0.3l0.1,1.3
		c0,2.6-0.6,5.1-1.9,7.5c-1.3,2.4-3,4.2-5.2,5.4c-2.1,1.3-4.6,1.9-7.5,2c-3.1,0.1-5.9-0.6-8.3-1.9c-2.5-1.3-4.4-3.2-5.9-5.7
		c-1.4-2.5-2.2-5.1-2.2-8c-0.1-3.9,1.2-7.4,3.7-10.4c3-3.5,7-5.3,12-5.4c2.6-0.1,5,0.4,7.3,1.3C1716.6,59,1718.5,60.4,1720.3,62.3"
		/>
	<path class="st0" d="M1731.3,58.6l5.6,1l-3.2,19c-0.3,1.6-0.3,2.8-0.2,3.6c0.2,0.7,0.6,1.3,1.1,1.9c0.6,0.5,1.4,0.9,2.3,1
		c1,0.2,1.9,0.1,2.7-0.3c0.8-0.3,1.4-0.8,1.8-1.5c0.4-0.6,0.8-2,1.1-3.9l3.1-18.3l5.6,1l-3,17.5c-0.5,3-1,5-1.5,6.1
		c-0.5,1.1-1.3,2.1-2.5,3c-1.1,0.9-2.3,1.5-3.7,1.8c-1.3,0.3-2.8,0.3-4.4,0.1c-2.1-0.4-3.9-1.2-5.3-2.4c-1.4-1.2-2.3-2.7-2.8-4.3
		c-0.4-1.6-0.3-4.1,0.2-7.6L1731.3,58.6z"/>
	<path class="st0" d="M1770.3,67.7l5.4,2l0.3,31.9l-5.5-2.1l0-6.6l-11.4-4.3l-4.4,4.9l-5.5-2.1L1770.3,67.7z M1770.3,76.1l-7.3,8.2
		l7.5,2.8L1770.3,76.1z"/>
	<polygon class="st0" points="1793.1,77.2 1798.2,80.6 1796.9,92.6 1807.4,86.7 1812.4,90 1795.8,99.3 1788.7,110.1 1783.9,107 
		1791.1,96.2 	"/>
	<polygon class="st0" points="1669.1,214.2 1674.6,215.4 1668.5,244.5 1662.9,243.4 	"/>
	<polygon class="st0" points="1679.9,216.7 1685.3,217.2 1696.1,238 1698,218.4 1703.7,219 1700.8,248.6 1695.4,248.1 1684.5,227.4 
		1682.7,246.9 1677,246.4 	"/>
	<path class="st0" d="M1724.9,222.3l-4.1,3.9c-1.5-2-3.1-3-4.6-2.9c-0.7,0-1.3,0.2-1.8,0.7c-0.5,0.4-0.7,0.9-0.7,1.4
		c0,0.5,0.2,1,0.6,1.4c0.5,0.6,1.9,1.8,4.3,3.7c2.2,1.7,3.6,2.8,4.1,3.3c1.2,1.1,2,2.2,2.6,3.2c0.5,1,0.8,2.2,0.8,3.4
		c0.1,2.4-0.7,4.5-2.3,6.1c-1.6,1.6-3.8,2.5-6.5,2.6c-2.1,0.1-4-0.4-5.6-1.4c-1.6-1-3-2.6-4.2-4.8l4.7-3c1.5,2.6,3.2,3.8,5.1,3.8
		c1,0,1.8-0.3,2.4-0.9c0.6-0.6,1-1.3,0.9-2c0-0.7-0.3-1.3-0.8-2c-0.5-0.7-1.7-1.7-3.4-3c-3.3-2.5-5.5-4.5-6.5-5.9
		c-1-1.4-1.5-2.8-1.6-4.3c-0.1-2.1,0.6-3.9,2.2-5.4c1.5-1.5,3.4-2.3,5.8-2.4c1.5-0.1,2.9,0.2,4.3,0.9
		C1721.8,219.4,1723.3,220.6,1724.9,222.3"/>
	<path class="st0" d="M1729.6,217.9l5.9-0.9c3.2-0.5,5.6-0.5,7.1-0.1s2.8,1.2,3.8,2.4c1,1.2,1.7,2.7,1.9,4.6c0.3,2.1,0,3.8-0.9,5.4
		c-0.9,1.5-2.2,2.7-3.9,3.5c-1,0.5-3,0.9-5.9,1.3l1.9,12.5l-5.6,0.8L1729.6,217.9z M1736.9,228.5l1.8-0.3c1.4-0.2,2.4-0.5,2.9-0.7
		c0.5-0.3,0.9-0.7,1.2-1.2c0.2-0.5,0.3-1.1,0.2-1.8c-0.2-1.1-0.7-1.9-1.7-2.3c-0.7-0.3-1.9-0.3-3.6-0.1l-1.6,0.2L1736.9,228.5z"/>
	<path class="st0" d="M1760,236.7c0.9-0.2,1.6-0.1,2.4,0.4c0.7,0.5,1.2,1.1,1.4,2c0.2,0.8,0.1,1.6-0.4,2.4c-0.5,0.7-1.1,1.2-2,1.4
		c-0.9,0.2-1.7,0.1-2.4-0.4c-0.7-0.5-1.2-1.1-1.4-2s-0.1-1.6,0.4-2.4C1758.5,237.4,1759.1,237,1760,236.7"/>
</g>
<g>
	<path class="st0" d="M939.3,267.5c-1.7,0-3-1.2-3.2-2.9l-7.6-67.4c-3.7,5.5-7.7,13.2-9.2,22.6l-0.3,2c-1.1,7.5-2.4,15.9-20.3,22.8
		c-1.3,0.5-2.8,0.1-3.7-1c-0.9-1.1-0.9-2.7-0.1-3.9c1-1.4,2-2.6,3-3.8c4.1-4.9,6.8-8.2,3-22c-1-2.7-1.6-11.4,0.1-20.4l-44.5,36.9
		c-1.3,1-3.1,1-4.3-0.2c-1.2-1.1-1.3-3-0.3-4.3l40.5-53.4c-6.5,1.1-14.9,3.7-22.8,9.2l-1.7,1.2c-6.2,4.4-13.1,9.4-30.4,1.3
		c-1.3-0.6-2-2-1.8-3.4c0.2-1.4,1.3-2.5,2.7-2.8c1.7-0.3,3.3-0.4,4.8-0.5c6.4-0.5,10.6-0.8,17.8-13.2c1.3-2.5,7-9,14.5-14.1
		l-59.6-6.7c-1.6-0.2-2.9-1.6-2.9-3.2c0-1.7,1.2-3,2.9-3.2l66.7-7.6c-5.5-3.8-12.7-7.6-21.5-9.2l-2-0.4c-7.5-1.3-15.9-2.8-22.2-20.9
		c-0.5-1.4,0-2.8,1.2-3.7c1.2-0.8,2.7-0.8,3.9,0c1.4,1,2.6,2.1,3.7,3.1c4.8,4.2,8,7.1,21.9,3.6c2.7-0.9,11.3-1.2,20.1,0.6L849,55.3
		c-1-1.3-0.9-3.1,0.2-4.3c1.2-1.2,3-1.3,4.3-0.3l51.7,40.8c-1.2-6.2-3.5-13.4-8.2-20.3l-1.1-1.6c-4.3-6.3-9.1-13.4-0.6-30.5
		c0.6-1.3,2-2,3.5-1.8c1.4,0.2,2.5,1.4,2.7,2.8c0.2,1.7,0.3,3.3,0.4,4.8c0.3,6.4,0.6,10.7,12.7,18.2c2.8,1.5,9.6,8,14.5,16.1
		l6.9-60.8c0.2-1.6,1.6-2.9,3.2-2.9c1.7,0,3,1.2,3.2,2.9l7.5,64.6c3.9-5.3,7.7-12.3,9.5-20.9l0.4-2c1.5-7.4,3.2-15.8,21.5-21.7
		c1.4-0.4,2.8,0.1,3.7,1.2c0.8,1.2,0.8,2.7-0.1,3.9c-1.1,1.3-2.1,2.5-3.2,3.6c-4.4,4.7-7.3,7.9-4.2,21.8c0.8,2.7,0.9,11.5-1.2,20.4
		l47.1-37c1.3-1,3.1-0.9,4.3,0.3c1.2,1.2,1.3,3,0.2,4.3l-40.9,51.4c6.7-0.9,14.7-3,22.4-7.9l1.7-1.1c6.4-4.1,13.6-8.7,30.5,0.3
		c1.3,0.7,1.9,2.1,1.7,3.5c-0.3,1.4-1.4,2.5-2.9,2.6c-1.7,0.2-3.3,0.2-4.8,0.3c-6.4,0.2-10.7,0.3-18.5,12.1
		c-1.3,2.3-6.9,8-14.1,12.6l58.5,6.6c1.6,0.2,2.9,1.6,2.9,3.2c0,1.7-1.2,3-2.9,3.2l-66.1,7.8c5.1,2.8,11.5,5.2,18.9,6.2l2,0.3
		c7.5,0.9,16,1.9,23.4,19.6c0.5,1.3,0.2,2.8-0.9,3.8c-1.1,0.9-2.7,1-3.9,0.2c-1.4-0.9-2.7-1.9-3.9-2.9c-5-4-8.4-6.6-22-2.5
		c-2.8,1-10.3,1.7-18.4,0.8l39.1,46.4c1.1,1.3,1,3.1-0.1,4.3c-1.1,1.2-3,1.4-4.3,0.4l-52.8-39.6c1.5,5.8,4.2,12.5,9,18.8l1.2,1.7
		c4.6,6,9.7,12.8,2.2,30.4c-0.6,1.3-1.8,2.2-3.4,1.9c-1.4-0.2-2.6-1.2-2.8-2.6c-0.3-1.7-0.5-3.3-0.7-4.8
		c-0.7-6.4-1.1-10.6-13.6-17.5c-2.6-1.2-9.6-7.2-15-14.9l-7,63.1C942.3,266.3,940.9,267.5,939.3,267.5L939.3,267.5z M930.8,185.7
		c0.3,0,0.7,0,1,0.1c1.2,0.4,2.1,1.5,2.3,2.7l5.2,46.5l4.9-44.5c0.2-1.5,1.3-2.7,2.8-2.9c1.5-0.1,2.9,0.7,3.5,2.1
		c4.1,10.6,14.9,19.9,17,20.9c8.7,4.8,12.8,9,14.9,13.1c-0.1-4.8-2.3-7.6-4.7-10.8l-1.3-1.7c-8-10.6-10.8-22.1-11.8-29.9
		c-0.2-1.3,0.5-2.6,1.6-3.2c1.1-0.6,2.5-0.6,3.6,0.2l36.7,27.5L979.7,174c-0.9-1.1-1-2.7-0.2-3.9c0.8-1.2,2.3-1.7,3.7-1.3
		c10.3,3.2,21.9,1.9,23.7,1.2c0.1,0,0.1-0.1,0.2-0.1c9.3-2.8,15.2-2.8,19.4-1.5c-3.5-3.2-7.1-3.7-10.9-4.1l-2.1-0.3
		c-13-1.7-23.1-7.6-29.3-12.2c-1.1-0.8-1.5-2.2-1.2-3.4c0.3-1.3,1.4-2.2,2.8-2.4l47-5.5l-41.4-4.6c-1.5-0.2-2.7-1.4-2.9-2.9
		c-0.2-1.5,0.7-2.9,2.2-3.4c10.6-3.6,19.9-13,21-14.9c5.5-8.3,10-12,14.2-13.7c-4.9-0.3-7.8,1.7-11.1,3.8l-1.8,1.1
		c-12,7.5-24.5,9.2-32.9,9.4h0c-1.2,0-2.4-0.7-2.9-1.8c-0.5-1.1-0.4-2.5,0.4-3.5l28.1-35.3l-34.1,26.8c-1.2,0.9-2.9,0.9-4.1-0.1
		c-1.2-1-1.5-2.7-0.8-4c5.4-10.1,5.4-24.6,4.7-26.8c-2.2-9.7-1.7-15.6,0-19.8c-3.5,3.2-4.3,6.8-5,10.6l-0.4,2
		c-2.9,13.6-10.2,23.6-15.8,29.6c-0.9,0.9-2.2,1.3-3.4,0.9c-1.2-0.4-2.1-1.5-2.2-2.7l-5.1-44L934.2,92c-0.2,1.6-1.5,2.8-3,2.9
		c-1.8,0.1-3-1-3.4-2.5c-2.8-11.5-14.1-22.5-16.4-23.7c-8.5-5.3-12.3-9.7-14.1-13.9c-0.2,4.8,1.9,7.8,4.1,11.1l1.2,1.7
		c7.5,11.3,9.7,23.2,10.2,31.2c0.1,1.3-0.6,2.5-1.7,3.1c-1.1,0.6-2.5,0.5-3.5-0.3l-35.2-27.8l26.9,33.4c0.9,1.2,1,2.9,0,4
		c-0.9,1.2-2.6,1.6-3.9,0.9c-10.3-4.8-24-4.3-26.2-3.6c-9.6,2.4-15.5,2.1-19.8,0.5c3.3,3.4,6.9,4,10.7,4.7l2.1,0.4
		c13.9,2.6,24.3,9.9,30.6,15.5c1,0.9,1.3,2.2,0.9,3.4c-0.4,1.2-1.5,2.1-2.7,2.2l-45.9,5.3l41.4,4.6c1.5,0.2,2.7,1.3,2.9,2.8
		c0.2,1.5-0.7,2.9-2.1,3.4c-10.6,4.1-19.7,14.2-20.7,16.2c-5,8.6-9.3,12.6-13.4,14.5h0c4.7,0,7.6-2.1,10.8-4.4l1.8-1.2
		c12.6-8.9,26.4-10.8,33.5-11.2c1.4,0,2.5,0.6,3,1.7c0.6,1.1,0.5,2.5-0.3,3.5l-28,37l31.1-25.8c1.2-1,2.8-1,4-0.1
		c1.2,0.9,1.6,2.5,1,3.9c-4.7,10.5-3.7,24.3-3,26.5c2.6,9.6,2.5,15.4,1,19.7c3.3-3.4,3.8-6.9,4.4-10.8l0.3-2.1
		c2.3-14.6,9.7-25.4,15.5-32C929,186.1,929.8,185.7,930.8,185.7"/>
	<path class="st0" d="M938.6,192.3c-28,0-50.8-22.8-50.8-50.8c0-28,22.8-50.8,50.8-50.8c28,0,50.8,22.8,50.8,50.8
		C989.4,169.5,966.6,192.3,938.6,192.3 M938.6,97.2c-24.4,0-44.3,19.9-44.3,44.3c0,24.4,19.9,44.3,44.3,44.3
		c24.4,0,44.3-19.9,44.3-44.3C982.9,117,963,97.2,938.6,97.2"/>
	<path class="st0" d="M1091.8,162.6h3.8v23.2c0,2.8,0.1,4.5,0.2,5.1c0.2,1.5,0.6,2.8,1.3,3.8c0.7,1,1.8,1.9,3.2,2.6
		c1.4,0.7,2.9,1,4.4,1c1.3,0,2.5-0.3,3.7-0.8c1.2-0.5,2.1-1.3,2.9-2.2c0.8-1,1.4-2.1,1.7-3.5c0.3-1,0.4-3,0.4-6v-23.2h3.8v23.2
		c0,3.4-0.3,6.2-1,8.3c-0.7,2.1-2,4-4,5.5c-2,1.6-4.4,2.4-7.3,2.4c-3.1,0-5.8-0.7-8-2.2c-2.2-1.5-3.7-3.4-4.4-5.9
		c-0.5-1.5-0.7-4.2-0.7-8.1V162.6z"/>
	<path class="st0" d="M1126.9,162.6h7.6c4.3,0,7.2,0.2,8.7,0.5c2.3,0.5,4.1,1.6,5.6,3.4c1.4,1.7,2.1,3.8,2.1,6.3
		c0,2.1-0.5,3.9-1.5,5.5c-1,1.6-2.4,2.8-4.2,3.6c-1.8,0.8-4.4,1.2-7.6,1.2l13.8,17.8h-4.7l-13.8-17.8h-2.2V201h-3.8V162.6z
		 M1130.7,166.3v13.1l6.6,0.1c2.6,0,4.5-0.2,5.7-0.7c1.2-0.5,2.2-1.3,2.9-2.3c0.7-1.1,1-2.3,1-3.6c0-1.3-0.3-2.5-1-3.5
		c-0.7-1.1-1.6-1.8-2.7-2.3c-1.1-0.5-3-0.7-5.7-0.7H1130.7z"/>
	<path class="st0" d="M1159.3,162.6h3.8v23.2c0,2.8,0.1,4.5,0.2,5.1c0.2,1.5,0.6,2.8,1.3,3.8c0.7,1,1.8,1.9,3.2,2.6
		c1.4,0.7,2.9,1,4.4,1c1.3,0,2.5-0.3,3.7-0.8c1.2-0.5,2.1-1.3,2.9-2.2c0.8-1,1.4-2.1,1.7-3.5c0.3-1,0.4-3,0.4-6v-23.2h3.8v23.2
		c0,3.4-0.3,6.2-1,8.3c-0.7,2.1-2,4-4,5.5c-2,1.6-4.4,2.4-7.3,2.4c-3.1,0-5.8-0.7-8-2.2c-2.2-1.5-3.7-3.4-4.4-5.9
		c-0.5-1.5-0.7-4.2-0.7-8.1V162.6z"/>
	<path class="st0" d="M1231.2,169l-3,2.8c-2.1-2.1-4.5-3.7-7-4.8c-2.6-1.1-5-1.6-7.5-1.6c-3,0-5.9,0.7-8.6,2.2
		c-2.7,1.5-4.8,3.5-6.3,6c-1.5,2.5-2.2,5.2-2.2,8c0,2.9,0.8,5.6,2.3,8.2c1.6,2.6,3.7,4.6,6.4,6.1c2.7,1.5,5.7,2.2,9,2.2
		c3.9,0,7.3-1.1,10-3.3c2.7-2.2,4.4-5.1,4.9-8.7h-12.2v-3.7h16.6c0,5.9-1.8,10.7-5.3,14.1c-3.5,3.5-8.2,5.2-14,5.2
		c-7.1,0-12.7-2.4-16.9-7.3c-3.2-3.7-4.8-8-4.8-12.9c0-3.6,0.9-7,2.7-10.2c1.8-3.1,4.3-5.6,7.5-7.4c3.2-1.8,6.8-2.7,10.8-2.7
		c3.2,0,6.3,0.6,9.2,1.8C1225.7,164.5,1228.5,166.4,1231.2,169"/>
	<path class="st0" d="M1240.9,162.6h3.8v23.2c0,2.8,0.1,4.5,0.2,5.1c0.2,1.5,0.6,2.8,1.3,3.8c0.7,1,1.8,1.9,3.2,2.6
		c1.4,0.7,2.9,1,4.4,1c1.3,0,2.5-0.3,3.7-0.8c1.2-0.5,2.1-1.3,2.9-2.2c0.8-1,1.4-2.1,1.7-3.5c0.3-1,0.4-3,0.4-6v-23.2h3.8v23.2
		c0,3.4-0.3,6.2-1,8.3c-0.7,2.1-2,4-4,5.5c-2,1.6-4.4,2.4-7.3,2.4c-3.1,0-5.8-0.7-8-2.2c-2.2-1.5-3.7-3.4-4.4-5.9
		c-0.5-1.5-0.7-4.2-0.7-8.1V162.6z"/>
	<path class="st0" d="M1291.5,162.6l17.9,38.4h-4.1l-6-12.6h-16.6l-6,12.6h-4.3l18.1-38.4H1291.5z M1291,170.7l-6.6,13.9h13.1
		L1291,170.7z"/>
	<polygon class="st0" points="1312.4,162.6 1316.8,162.6 1326.6,178.4 1336.3,162.6 1340.7,162.6 1328.5,182.6 1328.5,201 
		1324.8,201 1324.8,182.6 	"/>
	<path class="st0" d="M1362.7,162.6l17.9,38.4h-4.1l-6-12.6h-16.6l-6,12.6h-4.3l18.1-38.4H1362.7z M1362.2,170.7l-6.6,13.9h13.1
		L1362.2,170.7z"/>
	<rect x="1114.8" y="115.5" class="st0" width="3.5" height="35.2"/>
	<polygon class="st0" points="1126.4,150.7 1126.4,115.5 1127.1,115.5 1150.6,142.5 1150.6,115.5 1154.1,115.5 1154.1,150.7 
		1153.3,150.7 1130,124 1130,150.7 	"/>
	<path class="st0" d="M1162.6,150.7v-35.2h7.3c5.3,0,9.1,0.4,11.5,1.3c3.4,1.2,6.1,3.3,8,6.2c1.9,2.9,2.9,6.5,2.9,10.6
		c0,3.5-0.8,6.6-2.3,9.3c-1.5,2.7-3.5,4.7-5.9,5.9c-2.4,1.3-5.9,1.9-10.2,1.9H1162.6z M1166,147.4h4.1c4.9,0,8.2-0.3,10.1-0.9
		c2.7-0.9,4.7-2.4,6.2-4.6c1.5-2.2,2.3-5,2.3-8.2c0-3.4-0.8-6.3-2.5-8.7c-1.6-2.4-3.9-4.1-6.9-5c-2.2-0.7-5.8-1-10.9-1h-2.5V147.4z"
		/>
	<path class="st0" d="M1199.2,115.5h3.5v21.3c0,2.5,0,4.1,0.1,4.7c0.2,1.4,0.6,2.6,1.2,3.5c0.6,0.9,1.6,1.7,2.9,2.3
		c1.3,0.6,2.7,1,4,1c1.2,0,2.3-0.3,3.4-0.7c1.1-0.5,2-1.2,2.7-2.1c0.7-0.9,1.2-1.9,1.6-3.2c0.2-0.9,0.4-2.7,0.4-5.5v-21.3h3.5v21.3
		c0,3.1-0.3,5.7-0.9,7.6c-0.6,1.9-1.9,3.6-3.7,5.1c-1.8,1.4-4.1,2.2-6.7,2.2c-2.8,0-5.3-0.7-7.3-2c-2-1.4-3.4-3.2-4.1-5.4
		c-0.4-1.4-0.6-3.8-0.6-7.4V115.5z"/>
	<path class="st0" d="M1227.6,144.1l3-1.8c2.1,3.9,4.5,5.8,7.3,5.8c1.2,0,2.3-0.3,3.3-0.8c1-0.5,1.8-1.3,2.4-2.2
		c0.5-0.9,0.8-1.9,0.8-2.9c0-1.2-0.4-2.3-1.2-3.5c-1.1-1.6-3.1-3.4-6-5.7c-2.9-2.2-4.8-3.8-5.5-4.8c-1.2-1.7-1.9-3.5-1.9-5.4
		c0-1.5,0.4-2.9,1.1-4.2c0.7-1.3,1.8-2.2,3.1-3c1.3-0.7,2.8-1.1,4.3-1.1c1.7,0,3.2,0.4,4.7,1.2c1.4,0.8,3,2.3,4.6,4.5l-2.9,2.2
		c-1.3-1.8-2.5-2.9-3.4-3.5c-0.9-0.6-2-0.8-3-0.8c-1.4,0-2.6,0.4-3.5,1.3c-0.9,0.9-1.3,1.9-1.3,3.2c0,0.8,0.2,1.5,0.5,2.2
		c0.3,0.7,0.9,1.5,1.7,2.3c0.5,0.4,2,1.6,4.5,3.5c3,2.2,5.1,4.3,6.3,6c1.1,1.8,1.7,3.5,1.7,5.3c0,2.6-1,4.8-2.9,6.7
		c-1.9,1.9-4.3,2.8-7.1,2.8c-2.1,0-4.1-0.6-5.8-1.7C1230.6,148.7,1229,146.8,1227.6,144.1"/>
	<polygon class="st0" points="1252.1,118.9 1252.1,115.5 1271.4,115.5 1271.4,118.9 1263.6,118.9 1263.6,150.7 1260,150.7 
		1260,118.9 	"/>
	<path class="st0" d="M1276.7,115.5h7c3.9,0,6.6,0.2,7.9,0.5c2.1,0.5,3.8,1.5,5.1,3.1c1.3,1.6,2,3.5,2,5.8c0,1.9-0.4,3.6-1.3,5.1
		c-0.9,1.5-2.2,2.6-3.9,3.3c-1.7,0.7-4,1.1-6.9,1.1l12.7,16.4h-4.4l-12.7-16.4h-2v16.4h-3.5V115.5z M1280.2,118.9v12l6.1,0.1
		c2.4,0,4.1-0.2,5.2-0.7c1.1-0.4,2-1.2,2.6-2.1c0.6-1,1-2.1,1-3.3c0-1.2-0.3-2.3-1-3.2c-0.6-1-1.5-1.7-2.5-2.1
		c-1-0.4-2.8-0.6-5.2-0.6H1280.2z"/>
	<rect x="1305.7" y="115.5" class="st0" width="3.5" height="35.2"/>
	<path class="st0" d="M1331.7,115.5l16.4,35.2h-3.8l-5.5-11.6h-15.2l-5.5,11.6h-3.9l16.6-35.2H1331.7z M1331.3,123l-6,12.7h12
		L1331.3,123z"/>
</g>
</svg>
