<?xml version="1.0" encoding="utf-8"?>
<!-- Generator: Adobe Illustrator 15.1.0, SVG Export Plug-In . SVG Version: 6.00 Build 0)  -->
<!DOCTYPE svg PUBLIC "-//W3C//DTD SVG 1.1//EN" "http://www.w3.org/Graphics/SVG/1.1/DTD/svg11.dtd">
<svg version="1.1" id="Layer_1" xmlns="http://www.w3.org/2000/svg" xmlns:xlink="http://www.w3.org/1999/xlink" x="0px" y="0px"
	 width="780px" height="190px" viewBox="0 0 780 190" enable-background="new 0 0 780 190" xml:space="preserve">
<g>
	<path fill="#B3A075" d="M364.04,108.089l9.563-26.696h8.925l9.563,26.696h-8.726l-1.036-3.507h-8.726l-0.996,3.507H364.04z
		 M377.986,89.441l-2.709,9.563h5.539L377.986,89.441z"/>
	<path fill="#B3A075" d="M411.734,91.593c-0.119-1.395-0.598-2.47-1.435-3.228c-0.837-0.757-1.913-1.116-3.308-1.116
		c-1.553,0-2.788,0.638-3.625,1.953c-0.877,1.275-1.314,3.228-1.314,5.817c0,0.958,0.08,1.833,0.199,2.709
		c0.119,0.875,0.398,1.672,0.757,2.312c0.358,0.677,0.917,1.194,1.595,1.594c0.676,0.399,1.594,0.599,2.709,0.599
		c1.395,0,2.469-0.439,3.188-1.315c0.718-0.876,1.156-1.952,1.314-3.228h8.407c-0.198,1.713-0.638,3.268-1.354,4.621
		c-0.678,1.354-1.594,2.512-2.67,3.467c-1.115,0.957-2.391,1.674-3.864,2.19c-1.476,0.519-3.108,0.759-4.861,0.759
		c-2.19,0-4.184-0.318-5.937-0.996c-1.754-0.639-3.229-1.594-4.463-2.83c-1.235-1.234-2.151-2.709-2.789-4.422
		c-0.639-1.713-0.957-3.666-0.957-5.857c0-2.152,0.359-4.104,1.037-5.817c0.678-1.713,1.634-3.188,2.828-4.423
		c1.195-1.195,2.59-2.151,4.225-2.789c1.634-0.638,3.347-0.996,5.22-0.996c4.063,0,7.251,0.956,9.522,2.869s3.547,4.582,3.906,8.009
		h-8.328v0.119H411.734z"/>
	<polygon fill="#B3A075" points="424.166,108.089 424.166,81.393 445.921,81.393 445.921,87.609 432.892,87.609 432.892,91.434 
		443.929,91.434 443.929,97.648 432.892,97.648 432.892,101.834 446.439,101.834 446.439,108.089 	"/>
	<polygon fill="#B3A075" points="450.941,108.089 450.941,81.393 459.668,81.393 459.668,101.834 471.701,101.834 471.701,108.089 	
		"/>
	<path fill="#B3A075" d="M475.445,81.393h8.767v15.978c0,0.678,0.039,1.314,0.119,1.912s0.279,1.115,0.598,1.555
		c0.279,0.438,0.717,0.797,1.275,1.075c0.558,0.278,1.274,0.397,2.15,0.397c0.797,0,1.436-0.119,1.952-0.357
		c0.52-0.239,0.957-0.559,1.275-0.996c0.317-0.438,0.559-0.957,0.678-1.555s0.199-1.274,0.199-1.992V81.433h8.766v15.102
		c0,4.263-1.036,7.41-3.106,9.363c-2.072,1.951-5.301,2.947-9.724,2.947c-2.071,0-3.903-0.199-5.497-0.637
		c-1.595-0.398-2.95-1.116-4.025-2.111c-1.076-0.957-1.913-2.231-2.47-3.826c-0.559-1.554-0.838-3.506-0.838-5.816V81.393H475.445z"
		/>
	<path fill="#B3A075" d="M515.45,94.9c-0.916,0-1.754-0.159-2.511-0.518c-0.797-0.358-1.475-0.797-2.032-1.395
		c-0.599-0.598-1.035-1.275-1.396-2.072c-0.317-0.797-0.518-1.634-0.518-2.51c0-0.876,0.16-1.713,0.518-2.51
		c0.319-0.797,0.797-1.474,1.396-2.072c0.598-0.598,1.274-1.036,2.032-1.395c0.798-0.359,1.634-0.518,2.511-0.518
		s1.713,0.159,2.51,0.518c0.797,0.318,1.475,0.797,2.032,1.395c0.598,0.598,1.036,1.275,1.395,2.072
		c0.359,0.797,0.52,1.634,0.52,2.51c0,0.876-0.16,1.713-0.52,2.51c-0.358,0.797-0.797,1.474-1.395,2.072
		c-0.599,0.598-1.274,1.036-2.032,1.395C517.163,94.741,516.327,94.9,515.45,94.9 M515.45,93.347c0.678,0,1.313-0.12,1.912-0.359
		c0.598-0.239,1.075-0.598,1.514-0.996c0.438-0.438,0.758-0.956,0.996-1.554c0.24-0.598,0.358-1.275,0.358-1.993
		c0-0.717-0.118-1.395-0.358-1.992c-0.238-0.598-0.558-1.115-0.996-1.554c-0.438-0.438-0.916-0.757-1.514-1.036
		c-0.599-0.239-1.195-0.358-1.912-0.358c-0.718,0-1.355,0.12-1.953,0.358c-0.599,0.239-1.075,0.598-1.515,1.036
		c-0.397,0.438-0.757,0.956-0.956,1.554c-0.238,0.598-0.357,1.275-0.357,1.992c0,0.717,0.119,1.395,0.357,1.993
		c0.239,0.598,0.559,1.115,0.956,1.554c0.398,0.439,0.916,0.757,1.515,0.996C514.095,93.227,514.733,93.347,515.45,93.347
		 M518.638,91.952h-1.674l-1.554-2.948h-1.155v2.948h-1.475v-6.973h3.387c0.916,0,1.594,0.16,2.032,0.438
		c0.438,0.319,0.677,0.876,0.677,1.673c0,0.638-0.158,1.116-0.479,1.395c-0.319,0.279-0.797,0.438-1.395,0.478L518.638,91.952z
		 M516.167,87.967c0.397,0,0.717-0.04,0.957-0.199c0.238-0.12,0.356-0.438,0.356-0.836c0-0.239-0.039-0.398-0.157-0.558
		c-0.12-0.12-0.24-0.199-0.398-0.239c-0.16-0.04-0.359-0.08-0.559-0.08h-0.559h-1.594v1.913L516.167,87.967L516.167,87.967z"/>
	<path fill="#B3A075" d="M316.625,72.747c-0.717-1.235,5.339-4.98,2.51-9.682c-5.379-0.398-7.092,6.216-5.061,10.559
		c-0.836,0.199-2.112,2.072-2.51,1.275c2.112-2.909,1.674-9.882-2.55-10.121c-3.586,2.909-0.797,9.842,1.673,11.794
		c-0.518,0.996-1.554,1.554-1.275,3.387c0.279,0.837,2.351-0.08,2.51,0.837c-3.228,0.717-5.1,2.789-5.499,6.335
		c6.096,0.318,8.487-3.068,10.121-7.172c-0.757-0.239-2.471,0.518-2.55-0.438c3.586-1.076,5.499-3.786,6.335-7.571
		c-1.116,0.279-2.63,0.16-3.387,0.837h-0.319v-0.04H316.625z"/>
	<path fill="#B3A075" d="M307.74,73.583v-0.398c-3.387-5.18-5.897,4.941-2.949,7.61c-1.155-0.279-1.036-1.753-2.51-1.673
		c-2.988,1.912-2.191,7.092-0.438,9.722c-1.235-0.318-1.076-1.992-2.949-1.673c-1.116,0.876-1.315,2.63-2.112,3.785
		c-11.396-7.251-30.481-5.499-30.8,10.56c0.558,0.836,1.793-1.274,2.112-2.113v-0.438c1.992-2.352,4.184-4.503,7.172-5.897h0.438
		c0.637-0.08,1.554,0.16,1.673-0.438h0.438h2.948h0.438c0.637,0.637,1.833,0.677,2.948,0.836h0.438
		c4.343,2.392,9.762,3.745,13.906,6.335c-0.159,1.516-1.116,2.232-0.837,4.225v0.438c-0.917-0.08-0.199,1.515-0.438,2.111v0.397
		c-0.717,2.83-0.717,8.567,0,11.396v0.438c0.12,2.271,0.438,4.344,1.275,5.897v0.438c0.558,3.545,1.235,6.893,4.622,7.609
		c-0.598-1.195,1.155-2.15,0-2.55v-0.397c-0.398-4.543-1.036-10.521,0.836-13.906c1.196,5.816,1.036,13.028,6.734,14.344
		c-0.956-2.948-2.311-5.578-3.387-8.447v-0.438c-0.876-4.146-0.239-9.205,0-13.508c-5.22-0.16-4.861,5.26-7.61,7.61
		c-0.04-5.38-0.239-10.918,2.112-13.905c9.363,1.075,20.241,15.978,31.637,11.793c5.22-1.912,7.251-8.687,9.682-14.345
		c-3.905,2.392-4.423,8.248-10.121,8.847h-0.438c-10.081-2.591-17.651-7.65-25.74-12.232c1.594-1.952,4.702-4.462,3.387-8.008
		c-2.789-0.638-4.343,2.112-5.499,1.673c1.036-2.231,1.395-5.499,0.438-7.57c0.757,0.358,1.076,1.195,2.51,0.836
		c0.717-2.829,2.869-6.534,0-8.447v-0.518H307.74z"/>
	<path fill="#B3A075" d="M304.672,52.506c23.788,0,43.152,19.364,43.152,43.151c0,23.788-19.364,43.151-43.152,43.151
		c-23.787,0-43.152-19.363-43.152-43.151C261.48,71.87,280.844,52.506,304.672,52.506 M304.672,49.119
		c-25.74,0-46.578,20.839-46.578,46.539c0,25.699,20.838,46.539,46.539,46.539c25.7,0,46.539-20.84,46.539-46.539
		C351.21,69.958,330.372,49.119,304.672,49.119"/>
</g>
</svg>
